<svg width="240" height="203" viewBox="0 0 240 203" fill="none" xmlns="http://www.w3.org/2000/svg">
<path opacity="0.1" d="M22.3941 174.697C28.0208 174.697 32.5822 173.998 32.5822 173.135C32.5822 172.272 28.0208 171.573 22.3941 171.573C16.7674 171.573 12.2061 172.272 12.2061 173.135C12.2061 173.998 16.7674 174.697 22.3941 174.697Z" fill="#590799"/>
<path opacity="0.1" d="M169.338 176.822C174.965 176.822 179.527 176.123 179.527 175.26C179.527 174.398 174.965 173.698 169.338 173.698C163.712 173.698 159.15 174.398 159.15 175.26C159.15 176.123 163.712 176.822 169.338 176.822Z" fill="#590799"/>
<path opacity="0.1" d="M144.24 191.295C149.867 191.295 154.428 190.596 154.428 189.733C154.428 188.87 149.867 188.171 144.24 188.171C138.613 188.171 134.052 188.87 134.052 189.733C134.052 190.596 138.613 191.295 144.24 191.295Z" fill="#590799"/>
<path opacity="0.1" d="M55.4068 163.041C61.0335 163.041 65.5949 162.342 65.5949 161.479C65.5949 160.616 61.0335 159.917 55.4068 159.917C49.7801 159.917 45.2188 160.616 45.2188 161.479C45.2188 162.342 49.7801 163.041 55.4068 163.041Z" fill="#590799"/>
<path opacity="0.1" d="M58.4386 203C90.7133 203 116.877 197.362 116.877 190.407C116.877 183.452 90.7133 177.814 58.4386 177.814C26.1638 177.814 0 183.452 0 190.407C0 197.362 26.1638 203 58.4386 203Z" fill="#590799"/>
<path opacity="0.1" d="M231.877 139.951C230.299 143.752 228.23 147.395 225.333 150.19C221.804 153.595 217.421 155.452 212.728 156.34C211.345 156.598 209.948 156.778 208.545 156.881C204.836 157.167 201.039 156.977 197.397 156.581C188.476 155.607 179.678 153.726 171.14 150.965C169.737 150.512 168.342 150.036 166.956 149.535C164.864 148.786 162.791 147.982 160.737 147.122C152.37 143.626 143.72 139.169 134.819 140.551C130.505 141.223 126.452 143.257 122.129 143.863C119.094 144.261 116.01 144.042 113.063 143.218C111.636 142.836 110.238 142.354 108.879 141.774C105.817 140.443 102.904 138.794 100.187 136.854C93.6661 132.298 87.8141 126.649 80.9482 122.704C73.3786 118.352 64.9993 116.283 56.4625 114.74C55.0729 114.489 53.6784 114.25 52.279 114.022C48.3293 113.37 44.3697 112.767 40.4667 112.054C36.7065 111.36 32.8798 110.511 29.6069 108.425C27.2715 106.937 25.3077 104.875 23.5063 102.703C20.1834 98.6781 17.3331 94.2852 15.0114 89.6108C14.8883 89.3648 14.7677 89.1188 14.6496 88.8728C11.0346 81.4581 8.60323 73.3744 7.11194 65.0102C7.06764 64.7642 7.02581 64.5182 6.98397 64.2721C5.58127 56.0728 5.06941 47.5954 5.22444 39.1795L5.23921 38.4415C5.33518 34.2864 5.59358 30.1486 5.97747 26.0698C6.25309 23.2014 6.62222 20.2247 8.1086 17.8139C9.59497 15.403 12.0165 13.8556 14.4281 12.5666C25.0936 6.89119 35.3087 5.31183 46.7715 8.06218C48.6123 8.50253 50.4456 8.97732 52.279 9.46933C53.6743 9.84326 55.0696 10.2295 56.4625 10.6182C66.0919 13.3021 75.6967 16.1582 85.651 17.0143C86.6124 17.098 87.5746 17.1619 88.5376 17.2062C90.4423 17.2948 92.3471 17.3145 94.2518 17.2653C99.1583 17.1276 104.048 16.6244 108.879 15.7597C110.277 15.5186 111.672 15.2513 113.063 14.9577C119.067 13.7056 125.018 12.0352 130.872 10.1877C132.068 9.81046 133.262 9.42669 134.455 9.03636C137.142 8.15812 139.83 7.26266 142.522 6.39179C150.559 3.78659 158.636 1.40771 166.956 0.448283C167.668 0.367921 168.38 0.296579 169.092 0.234258C169.774 0.175216 170.458 0.128475 171.14 0.0940342C184.047 -0.594783 197.102 2.5172 208.545 8.8863C209.966 9.67516 211.36 10.5149 212.728 11.4054C214.627 12.6404 216.467 13.9688 218.248 15.3907C221.9 18.3059 225.318 21.6245 227.922 25.6123C230.459 29.4967 232.105 33.8584 233.053 38.4439C233.105 38.69 233.154 38.936 233.198 39.182C234.589 46.5843 234.155 54.5229 232.595 61.94C232.43 62.7174 232.256 63.4972 232.073 64.2746C232.017 64.5206 231.958 64.7666 231.899 65.0126C230.215 72.0263 228.065 79.0202 228.626 86.1913C228.697 87.0941 228.81 87.9896 228.958 88.8752C229 89.1212 229.042 89.3672 229.088 89.6133C230.186 95.4633 232.681 101.013 234.178 106.807C236.986 117.816 236.179 129.435 231.877 139.951Z" fill="#009F79"/>
<path opacity="0.1" d="M212.729 39.182H233.201C233.156 38.936 233.107 38.6899 233.056 38.4439H212.729V11.4054C211.36 10.5165 209.966 9.67679 208.545 8.88629V38.4439H171.14V0.0940247C170.458 0.128466 169.774 0.175207 169.092 0.234248C168.411 0.29329 167.667 0.367091 166.956 0.448273V38.4439H113.555L113.427 38.3037L142.522 6.38933C139.83 7.26019 137.143 8.15565 134.455 9.03389L113.063 32.5004V14.9553C111.67 15.2472 110.276 15.5145 108.879 15.7572V33.3098L94.252 17.2628C92.3473 17.3087 90.4425 17.289 88.5378 17.2038L107.772 38.3037L107.644 38.4439H56.4578V10.6182C55.0649 10.2295 53.6696 9.84325 52.2743 9.46932V38.4439H5.23449L5.21973 39.182H52.2792V64.2746H6.97926C7.02109 64.5206 7.06293 64.7666 7.10722 65.0126H52.2792V88.8752H14.6449C14.763 89.1212 14.8836 89.3672 15.0067 89.6132H52.2792V114.032C53.677 114.261 55.0715 114.501 56.4627 114.75V89.6132H108.879V141.767C110.238 142.346 111.636 142.829 113.063 143.211V89.6132H166.956V149.533C168.344 150.035 169.739 150.511 171.14 150.962V89.6132H208.545V156.879C209.949 156.776 211.345 156.595 212.729 156.338V89.6132H229.089C229.042 89.3672 229 89.1212 228.958 88.8752H212.716V65.0126H231.887C231.946 64.7666 232.005 64.5206 232.061 64.2746H212.729V39.182ZM208.545 39.182V64.2746H171.14V39.182H208.545ZM166.956 64.2746H113.063V39.182H166.956V64.2746ZM56.4627 39.182H108.141L108.879 39.8536V64.2746H56.4627V39.182ZM56.4627 88.8752V65.0126H108.879V88.8752H56.4627ZM113.063 88.8752V65.0126H166.956V88.8752H113.063ZM208.545 88.8752H171.14V65.0126H208.545V88.8752Z" fill="#590799"/>
<path opacity="0.1" d="M190.561 21.9025H190.236C190.351 21.8365 190.447 21.7429 190.516 21.6304C190.585 21.5179 190.625 21.3899 190.632 21.258C190.632 20.7512 190.01 20.3354 189.249 20.3354H179.554C178.793 20.3354 178.168 20.7512 178.168 21.258C178.168 21.7672 178.793 22.183 179.554 22.183H179.878C179.764 22.2492 179.668 22.3427 179.599 22.4552C179.53 22.5677 179.49 22.6957 179.482 22.8275C179.482 23.2605 179.935 23.627 180.54 23.7254H177.745C176.982 23.7254 176.359 24.1412 176.359 24.6479C176.359 25.1547 176.982 25.5729 177.745 25.5729H187.443C188.206 25.5729 188.829 25.1572 188.829 24.6479C188.829 24.215 188.376 23.8509 187.768 23.7525H190.561C191.322 23.7525 191.944 23.3367 191.944 22.8275C191.944 22.3183 191.322 21.9025 190.561 21.9025Z" fill="#590799"/>
<path opacity="0.1" d="M85.442 30.7021H85.1172C85.2309 30.6352 85.3264 30.5415 85.3955 30.4291C85.4646 30.3167 85.505 30.1892 85.5134 30.0576C85.5134 29.5483 84.8908 29.1326 84.1279 29.1326H74.4295C73.6667 29.1326 73.0441 29.5483 73.0441 30.0576C73.0441 30.5643 73.6667 30.9801 74.4295 30.9801H74.7519C74.6385 31.0471 74.5433 31.1409 74.4747 31.2533C74.406 31.3657 74.366 31.4932 74.3582 31.6246C74.3582 32.06 74.811 32.4241 75.4164 32.5225H72.6257C71.8628 32.5225 71.2402 32.9383 71.2402 33.4475C71.2402 33.9567 71.8628 34.37 72.6257 34.37H82.324C83.0869 34.37 83.7095 33.9543 83.7095 33.4475C83.7095 33.0121 83.2543 32.648 82.6489 32.5496H85.442C86.2024 32.5496 86.825 32.1338 86.825 31.6246C86.825 31.1154 86.2024 30.7021 85.442 30.7021Z" fill="#590799"/>
<path opacity="0.1" d="M205.44 68.3558H205.115C205.228 68.2889 205.324 68.1952 205.393 68.0828C205.462 67.9705 205.503 67.8429 205.511 67.7113C205.511 67.2045 204.888 66.7888 204.125 66.7888H194.427C193.664 66.7888 193.042 67.2045 193.042 67.7113C193.042 68.2181 193.664 68.6338 194.427 68.6338H194.749C194.636 68.7007 194.541 68.7944 194.472 68.9068C194.403 69.0193 194.363 69.1468 194.356 69.2783C194.356 69.7113 194.809 70.0779 195.414 70.1763H192.621C191.86 70.1763 191.238 70.592 191.238 71.0988C191.238 71.6056 191.86 72.0238 192.621 72.0238H202.322C203.082 72.0238 203.707 71.608 203.707 71.0988C203.707 70.6658 203.252 70.3017 202.646 70.2033H205.44C206.2 70.2033 206.823 69.7876 206.823 69.2783C206.823 68.7691 206.2 68.3558 205.44 68.3558Z" fill="#590799"/>
<path d="M55.9481 147.966L169.338 160.704V164.318L55.6602 151.147L55.9481 147.966Z" fill="#EAECF0"/>
<path d="M55.7758 161.393H53.625V107.99L55.1729 108.46L55.1901 110.061L55.7758 161.393Z" fill="#EAECF0"/>
<path d="M56.7232 160.532L55.7758 161.393L55.1901 110.061L55.1729 108.46H56.2926L56.3073 110.157L56.7232 160.532Z" fill="#D3DAE1"/>
<path d="M22.8442 159.154L54.2279 148.224V149.257L22.8442 160.101V159.154Z" fill="#D3DAE1"/>
<path d="M23.4053 162.596L22.8442 160.101L54.2279 149.257V151.408L23.4053 162.596Z" fill="#EAECF0"/>
<path d="M169.338 104.588V175.162H167.702L167.618 109.692L167.616 107.599L169.338 104.588Z" fill="#EAECF0"/>
<path d="M170.542 104.243V174.559L169.338 175.162V104.588L170.542 104.243Z" fill="#D3DAE1"/>
<path d="M144.24 173.615L167.682 160.517L169.338 161.479L144.24 175.162V173.615Z" fill="#D3DAE1"/>
<path d="M144.973 178.089L144.24 175.162L169.338 161.479V164.318L144.973 178.089Z" fill="#EAECF0"/>
<path d="M141.442 115.862L141.528 190.397H143.854L143.509 115.001L141.442 115.862Z" fill="#EAECF0"/>
<path d="M144.973 114.312V189.794L143.853 190.397L143.509 115.001L143.647 114.937L144.973 114.312Z" fill="#D3DAE1"/>
<path d="M22.5441 173.701H20.5631L19.8839 107.028L19.874 105.879H21.7689L21.7837 107.19L22.5441 173.701Z" fill="#EAECF0"/>
<path d="M23.9199 173.184L22.5442 173.701L21.7838 107.19L21.769 105.879H23.2333L23.2456 107.318L23.9199 173.184Z" fill="#D3DAE1"/>
<path opacity="0.1" d="M143.646 114.937L144.973 114.312V117.24L143.681 117.67L143.646 114.937Z" fill="black"/>
<path opacity="0.1" d="M170.542 104.243V108.718L169.338 109.122L167.618 109.692L167.616 107.599L169.338 104.588L170.542 104.243Z" fill="black"/>
<path d="M170.542 95.6355V108.029L143.681 116.981L143.509 103.727L170.542 95.6355Z" fill="#009F79"/>
<path d="M19.5298 94.7745L54.8311 88.0634L170.542 95.6355L143.509 103.727L19.5298 94.7745Z" fill="#0CD9A8"/>
<path opacity="0.1" d="M23.2331 105.879L23.2454 107.318L21.7837 107.19L19.8839 107.028L19.874 105.879H23.2331Z" fill="black"/>
<path opacity="0.1" d="M56.3074 110.157L55.1901 110.061L53.625 109.928V107.99L55.1729 108.46H56.2926L56.3074 110.157Z" fill="black"/>
<path d="M19.5298 94.7745V106.31L143.681 116.981L143.509 103.727L19.5298 94.7745Z" fill="#009F79"/>
<path d="M117.967 108.489H101.752V102.607L117.967 103.749V108.489Z" fill="#009F79"/>
<path opacity="0.1" d="M117.967 108.489H101.752V102.607L117.967 103.749V108.489Z" fill="black"/>
<path opacity="0.1" d="M79.9688 101.318V110.612L142.217 115.346V105.449L117.938 104.071L115.526 106.224L105.626 105.535L102.097 102.952L79.9688 101.318Z" fill="black"/>
<path d="M79.6245 100.971V110.268L141.873 115.001V105.104L117.593 103.727L115.184 105.879L105.282 105.19L101.753 102.607L79.6245 100.971Z" fill="white"/>
<path d="M41.2272 98.4769L55.9482 99.5101L55.7759 104.187H46.1637L39.7334 101.66L41.2272 98.4769Z" fill="#D48A9B"/>
<path opacity="0.1" d="M41.2272 98.4769L55.9482 99.5101L55.7759 104.187H46.1637L39.7334 101.66L41.2272 98.4769Z" fill="black"/>
<path opacity="0.1" d="M21.5967 97.1853V105.535L78.0764 110.01V101.144L56.2927 99.8545L53.9696 101.574L45.1867 101.06L41.5717 98.8213L21.5967 97.1853Z" fill="black"/>
<path d="M21.252 96.8409V105.19L77.7317 109.665V100.802L55.9479 99.5101L53.6249 101.232L44.842 100.715L41.2269 98.4768L21.252 96.8409Z" fill="white"/>
<path opacity="0.1" d="M23.7842 159.777L24.1705 159.644L23.9761 162.389L23.7842 162.458V159.777Z" fill="black"/>
<path opacity="0.1" d="M142.224 96.8729L150.141 97.392L137.022 101.318L130.341 100.834L142.224 96.8729Z" fill="black"/>
<path d="M142.224 96.5285L150.141 97.0476L137.022 100.971L130.341 100.489L142.224 96.5285Z" fill="white"/>
<path d="M141.277 97.4166C141.589 97.2837 141.922 97.5347 142.261 97.5986C142.451 97.6355 142.648 97.5986 142.837 97.6355C143.226 97.6872 143.612 97.948 143.981 97.8151" fill="#D3DAE1"/>
<path d="M140.868 97.6552C141.178 97.5199 141.513 97.7708 141.853 97.8348C142.042 97.8717 142.239 97.8348 142.431 97.8717C142.82 97.9234 143.204 98.1841 143.573 98.0513" fill="#D3DAE1"/>
<path d="M139.933 98.1275C140.246 97.9947 140.58 98.2456 140.917 98.3095C141.107 98.3464 141.304 98.3095 141.496 98.3464C141.885 98.3981 142.268 98.6589 142.638 98.526" fill="#D3DAE1"/>
<path d="M12.3044 183.681C13.5806 183.681 14.6152 182.647 14.6152 181.371C14.6152 180.095 13.5806 179.061 12.3044 179.061C11.0282 179.061 9.99365 180.095 9.99365 181.371C9.99365 182.647 11.0282 183.681 12.3044 183.681Z" fill="#535461"/>
<path d="M16.4387 192.717C17.7149 192.717 18.7495 191.683 18.7495 190.407C18.7495 189.131 17.7149 188.097 16.4387 188.097C15.1625 188.097 14.1279 189.131 14.1279 190.407C14.1279 191.683 15.1625 192.717 16.4387 192.717Z" fill="#535461"/>
<path d="M57.6657 194.353C58.942 194.353 59.9765 193.319 59.9765 192.043C59.9765 190.767 58.942 189.733 57.6657 189.733C56.3895 189.733 55.355 190.767 55.355 192.043C55.355 193.319 56.3895 194.353 57.6657 194.353Z" fill="#535461"/>
<path d="M66.8772 182.562C68.1534 182.562 69.1879 181.528 69.1879 180.252C69.1879 178.976 68.1534 177.942 66.8772 177.942C65.601 177.942 64.5664 178.976 64.5664 180.252C64.5664 181.528 65.601 182.562 66.8772 182.562Z" fill="#535461"/>
<path d="M40.8037 140.576H37.9097V158.65H40.8037V140.576Z" fill="#535461"/>
<path opacity="0.1" d="M40.8037 155.723H37.9097V158.65H40.8037V155.723Z" fill="black"/>
<path d="M41.3623 156.411H37.3511V176.466H41.3623V156.411Z" fill="#3A3768"/>
<path d="M66.3773 176.335L40.1147 175.26V179.484H70.5928C70.2898 178.596 69.725 177.819 68.9727 177.257C68.2204 176.695 67.3156 176.374 66.3773 176.335Z" fill="#3A3768"/>
<path d="M13.8522 176.335L40.1147 175.26V179.484H9.63672C9.93941 178.595 10.5041 177.819 11.2565 177.257C12.0089 176.695 12.9138 176.374 13.8522 176.335Z" fill="#3A3768"/>
<path d="M37.3514 175.691L16.3847 186.023C15.4979 186.463 14.7515 187.142 14.2298 187.983C13.708 188.824 13.4316 189.794 13.4316 190.783V191.098L37.9174 180.426L41.3627 180.168L61.724 193.165C61.8539 192.204 61.7183 191.226 61.3317 190.337C60.9452 189.448 60.3226 188.682 59.5313 188.122L41.3627 175.263L37.3514 175.691Z" fill="#3A3768"/>
<path opacity="0.1" d="M40.8037 140.573V142.522C40.2967 142.543 39.7799 142.554 39.2533 142.554C38.798 142.554 38.3502 142.554 37.9097 142.529V140.573H40.8037Z" fill="black"/>
<path d="M39.2535 141.865C45.1506 141.865 49.9312 140.467 49.9312 138.743C49.9312 137.019 45.1506 135.621 39.2535 135.621C33.3563 135.621 28.5757 137.019 28.5757 138.743C28.5757 140.467 33.3563 141.865 39.2535 141.865Z" fill="#3A3768"/>
<path opacity="0.1" d="M49.838 138.743C49.8277 138.917 49.782 139.086 49.7037 139.242C49.6254 139.397 49.5162 139.535 49.3827 139.646C48.0637 140.93 43.986 141.86 39.1627 141.86C34.4451 141.86 30.4462 140.965 29.0312 139.727C28.8744 139.612 28.7442 139.465 28.6495 139.295C28.5548 139.125 28.4978 138.937 28.4824 138.743C28.4824 137.021 33.2639 135.621 39.1627 135.621C45.0614 135.621 49.838 137.019 49.838 138.743Z" fill="black"/>
<path opacity="0.1" d="M49.9288 138.743C49.9185 138.917 49.8728 139.086 49.7945 139.242C49.7163 139.397 49.607 139.535 49.4735 139.646C48.1151 139.307 47.1751 139.026 47.1751 139.026C47.1751 139.026 37.7622 139.553 29.122 139.732C28.9652 139.617 28.835 139.47 28.7403 139.3C28.6456 139.13 28.5886 138.942 28.5732 138.748C28.5732 137.026 33.3547 135.626 39.2535 135.626C45.1522 135.626 49.9288 137.019 49.9288 138.743Z" fill="black"/>
<path d="M12.3042 97.6256C12.3042 97.6256 15.8356 107.267 15.6633 113.033C15.4911 118.799 12.7349 129.643 12.7349 129.643C12.7349 129.643 9.98115 138.423 17.0414 139.198C24.1017 139.973 47.1749 138.682 47.1749 138.682C47.1749 138.682 55.788 141.262 58.5393 140.143C59.6098 139.71 60.5375 138.755 61.2709 137.749C61.6724 137.201 61.9581 136.577 62.1104 135.914C62.2628 135.252 62.2787 134.566 62.1571 133.897C62.0356 133.228 61.7791 132.591 61.4033 132.025C61.0276 131.459 60.5404 130.975 59.9715 130.603C58.6862 129.802 57.2863 129.201 55.82 128.822C55.5114 128.738 55.1923 128.699 54.8726 128.706L24.7883 129.299C24.7883 129.299 21.4316 128.782 22.0346 125.427C22.6375 122.071 23.6686 111.741 23.6686 111.741C23.6686 111.741 23.8408 99.1755 17.8141 95.6478C11.7874 92.12 12.3042 97.6256 12.3042 97.6256Z" fill="#3A3768"/>
<path opacity="0.1" d="M12.3042 97.5961C12.3042 97.5961 15.8356 107.235 15.6633 113.001C15.4911 118.767 12.7349 129.614 12.7349 129.614C12.7349 129.614 9.98115 138.391 17.0414 139.166C24.1017 139.941 47.1749 138.647 47.1749 138.647C47.1749 138.647 55.788 141.23 58.5393 140.123C59.6098 139.688 60.5375 138.733 61.2709 137.73C61.6725 137.181 61.9582 136.556 62.1106 135.894C62.263 135.231 62.2789 134.545 62.1573 133.876C62.0357 133.207 61.7793 132.57 61.4035 132.004C61.0277 131.437 60.5405 130.953 59.9715 130.581C58.6851 129.782 57.2855 129.181 55.82 128.8C55.5115 128.715 55.1922 128.677 54.8726 128.686L24.7883 129.269C24.7883 129.269 21.4316 128.753 22.0346 125.395C22.6375 122.037 23.6686 111.712 23.6686 111.712C23.6686 111.712 23.8408 99.146 17.8141 95.6158C11.7874 92.0856 12.3042 97.5961 12.3042 97.5961Z" fill="black"/>
<path d="M12.9934 97.2813C12.9934 97.2813 16.5248 106.922 16.3525 112.689C16.1802 118.455 13.424 129.299 13.424 129.299C13.424 129.299 10.6703 138.079 17.7281 138.854C24.7859 139.629 47.8616 138.337 47.8616 138.337C47.8616 138.337 56.4747 140.918 59.2284 139.813C60.2989 139.378 61.2267 138.423 61.96 137.417C62.3616 136.869 62.6472 136.244 62.7996 135.582C62.952 134.92 62.9679 134.233 62.8463 133.565C62.7247 132.896 62.4683 132.259 62.0925 131.693C61.7167 131.127 61.2296 130.643 60.6607 130.271C59.3761 129.465 57.9761 128.861 56.5092 128.477C56.2005 128.394 55.8815 128.355 55.5617 128.362L25.4774 128.955C25.4774 128.955 22.1208 128.438 22.7237 125.082C23.3266 121.727 24.3577 111.397 24.3577 111.397C24.3577 111.397 24.53 98.8311 18.5033 95.3034C12.4766 91.7756 12.9934 97.2813 12.9934 97.2813Z" fill="#3A3768"/>
<path d="M74.0826 180.156V183.268C74.0826 183.268 88.9538 183.536 92.2292 183.536C95.5046 183.536 100.013 181.927 100.281 180.638C100.549 179.349 96.5234 178.276 95.0198 178.225C93.5162 178.173 93.4646 177.58 91.5303 176.559C90.4401 175.984 88.784 174.313 87.5486 172.968C86.5962 171.929 85.8949 171.086 85.8949 171.086C85.8949 171.086 77.8946 170.926 75.5862 172.212C75.0547 172.51 74.688 173.091 74.437 173.811C73.6052 176.215 74.0826 180.156 74.0826 180.156Z" fill="#434175"/>
<path opacity="0.1" d="M74.437 173.811C76.1153 173.228 85.9343 173.002 87.5486 172.968C86.5962 171.929 85.8949 171.086 85.8949 171.086C85.8949 171.086 77.8945 170.926 75.5862 172.212C75.0547 172.51 74.688 173.088 74.437 173.811Z" fill="black"/>
<path d="M31.2949 124.18L32.1612 124.704L32.486 124.9L33.7484 125.658C40.4962 129.725 58.9011 140.743 59.9101 140.664C60.1734 140.642 60.9658 140.524 62.0609 140.345C62.3513 140.298 62.6638 140.249 62.9911 140.192C67.2066 139.491 74.2127 138.224 74.9953 137.875C76.0682 137.383 75.8541 139.538 75.4235 141.363C74.9928 143.188 74.6729 151.941 75.1552 153.063C75.6376 154.185 75.4235 156.015 75.4235 156.015L74.7812 165.836L75.2118 167.922C75.2118 167.922 73.7624 169.103 74.353 169.799C74.9436 170.495 74.4071 173.504 74.4071 173.504C76.1297 172.859 87.7746 172.645 87.7746 172.645C87.7746 172.645 87.2824 168.35 87.7205 167.332C88.1585 166.313 87.8288 160.247 87.8288 160.247C87.8288 160.247 88.097 155.631 87.6147 154.559C87.1323 153.486 87.7746 146.615 87.7746 146.615C87.7746 146.615 88.2053 142.537 88.3111 134.217C88.4169 125.897 83.5862 125.631 83.5862 125.631C83.5862 125.631 82.9439 125.579 81.9645 125.486C80.0524 125.301 76.8631 124.952 74.7319 124.502C74.2954 124.41 73.8642 124.295 73.44 124.157C70.8093 123.262 61.9526 123.228 60.5031 123.872C59.1078 124.492 57.7125 123.919 57.6091 123.872L56.4821 122.047L45.7132 122.964L44.5738 123.063L33.9724 123.966L33.2341 124.03L31.2949 124.18Z" fill="#565387"/>
<path opacity="0.1" d="M74.4589 132.411C77.5867 133.936 80.5717 128.531 81.9621 125.483C80.05 125.299 76.8607 124.95 74.7296 124.499C73.3293 126.839 71.4591 130.952 74.4589 132.411Z" fill="black"/>
<path d="M65.0634 95.8962C65.1283 96.2648 65.2565 96.6194 65.4424 96.9442C66.599 99.2862 69.9482 104.108 69.9482 104.108C70.9442 104.731 71.7857 105.572 72.4091 106.568C73.3221 108.125 73.5903 111.773 73.5903 111.773C73.5903 111.773 75.6304 119.877 76.5951 121.006C77.0873 121.569 76.8633 121.904 76.5286 122.098C75.8425 122.48 75.261 123.025 74.8355 123.685C73.4279 125.946 71.1811 130.436 74.3434 131.976C78.6376 134.069 82.6661 123.097 82.6661 123.097C82.6661 123.097 81.8589 115.316 81.6448 113.975C81.4307 112.635 80.1412 107.104 80.1412 107.104C80.1412 107.104 79.2282 104.743 78.6918 103.08C78.1553 101.417 76.5459 99.483 76.5459 99.483C76.5459 99.483 73.6445 93.6871 72.8398 92.8285C72.4657 92.43 71.9415 91.9282 71.4887 91.505C70.9646 91.013 70.5315 90.6292 70.5315 90.6292C70.5315 90.6292 65.0092 94.6121 65.0634 95.8962Z" fill="#EE8E9E"/>
<path d="M28.6646 179.511L38.4342 183.858C38.4342 183.858 51.0955 184.126 53.3103 183.536C55.5251 182.946 55.0329 180.478 52.1291 179.994C49.2252 179.509 48.5337 178.225 47.5666 177.634C46.9145 177.236 44.5988 174.66 43.1641 173.029C42.4726 172.244 41.9828 171.676 41.9828 171.676C41.9828 171.676 40.1027 166.685 34.8955 167.811C33.9434 168.019 33.0661 168.482 32.3583 169.152C29.5505 171.75 29.3068 176.889 29.3068 176.889L28.6646 179.511Z" fill="#434175"/>
<path opacity="0.1" d="M32.4863 124.9L33.7488 125.658C40.4965 129.725 58.9014 140.743 59.9104 140.664C60.1737 140.642 60.9661 140.524 62.0612 140.345C62.3516 140.298 62.6641 140.249 62.9914 140.192L63.0283 140.131C63.5698 139.187 63.9836 138.175 64.2588 137.122C65.3859 132.829 59.8021 129.555 59.8021 129.555L58.6209 128.637C57.2797 126.379 47.6158 124.244 47.6158 124.244L46.3706 123.395L45.7037 122.947L45.529 122.831L44.018 121.815L36.4483 122.352L34.1991 123.796L33.953 123.948L33.1311 124.487L32.4863 124.9Z" fill="black"/>
<path opacity="0.1" d="M32.3579 169.152C34.4127 176.259 42.9963 173.937 42.9963 173.937L43.1587 173.036C42.4672 172.252 41.9775 171.683 41.9775 171.683C41.9775 171.683 40.0974 166.692 34.8902 167.819C33.9406 168.025 33.0651 168.486 32.3579 169.152Z" fill="black"/>
<path d="M30.1136 136.898C33.2808 136.898 41.4337 140.709 41.4337 140.709C43.0972 141.998 45.3514 141.567 45.3514 141.567C45.3514 141.567 41.3869 145.592 41.4976 147.257C41.6084 148.923 39.241 151.659 39.241 151.659L31.9396 166.094C32.4785 176.345 42.9988 173.501 42.9988 173.501L43.4294 171.086C44.0742 170.763 45.0413 167.543 45.0413 167.543C45.0413 167.543 45.0413 166.257 45.6836 165.88C46.3259 165.504 47.6695 161.639 47.6695 161.639C47.6695 161.639 50.5685 156.756 50.406 156.114C50.2436 155.472 52.5002 152.197 52.5002 152.197C52.5002 152.197 56.3122 148.441 56.1497 147.769C55.9873 147.098 59.216 143.661 59.216 143.661C60.3831 142.758 61.353 141.626 62.0657 140.335C62.6066 139.391 63.0204 138.381 63.2961 137.329C64.2042 133.87 60.759 131.073 59.3833 130.116C59.0511 129.884 58.8395 129.761 58.8395 129.761L57.6583 128.844C57.048 127.816 54.7175 126.812 52.3551 126.027C50.6521 125.459 48.9344 125.001 47.8344 124.728C47.0961 124.549 46.6532 124.448 46.6532 124.448L45.408 123.611L44.9699 123.316L44.5688 123.048L43.0554 122.032L39.6889 122.278L35.4857 122.576L33.2389 124.022L32.166 124.711L27.9702 127.417C27.9702 127.417 27.8594 128.448 27.825 129.835C27.825 129.941 27.825 130.049 27.825 130.162C27.7684 132.95 28.0711 136.898 30.1136 136.898Z" fill="#565387"/>
<path d="M46.272 76.789L47.404 80.8136C47.404 80.8136 49.3924 87.7387 49.6065 88.2209C49.8206 88.7031 55.0204 93.5887 55.2443 93.6945C55.4683 93.8003 58.2934 95.4166 58.2934 95.4166C58.2934 95.4166 58.5173 86.5604 58.2934 83.9871C58.2749 83.4211 58.322 82.8548 58.4337 82.2995C58.7757 80.2798 59.6419 77.3204 60.3605 75.0399C60.961 73.1284 61.4605 71.6967 61.4605 71.6967C61.4605 71.6967 48.8977 71.1579 49.3284 72.3928C49.4908 72.8603 49.4367 73.6401 49.2816 74.4224C49.0208 75.7115 48.4818 77.0006 48.1472 76.9021C47.8202 76.8275 47.4859 76.7904 47.1505 76.7914C46.6928 76.7718 46.272 76.789 46.272 76.789Z" fill="#EE8E9E"/>
<path opacity="0.1" d="M49.2866 74.4174C50.8208 75.6967 52.7266 76.4477 54.7213 76.5589C56.7161 76.6701 58.6936 76.1357 60.3606 75.0349C60.961 73.1234 61.4606 71.6917 61.4606 71.6917C61.4606 71.6917 48.8978 71.1529 49.3285 72.3879C49.4958 72.8553 49.4417 73.6351 49.2866 74.4174Z" fill="black"/>
<path d="M45.9498 66.9684C45.9493 68.8052 46.4937 70.601 47.5142 72.1285C48.5347 73.656 49.9854 74.8467 51.6829 75.5499C53.3803 76.2532 55.2483 76.4375 57.0505 76.0794C58.8527 75.7214 60.5082 74.8371 61.8077 73.5384C63.1071 72.2397 63.9921 70.585 64.3508 68.7835C64.7094 66.982 64.5256 65.1146 63.8226 63.4175C63.1195 61.7204 61.9288 60.2699 60.401 59.2494C58.8733 58.2288 57.0771 57.6841 55.2396 57.6841C54.0182 57.6782 52.8078 57.9144 51.6782 58.3788C50.5486 58.8433 49.5223 59.5269 48.6585 60.3902C47.7948 61.2534 47.1106 62.2792 46.6457 63.4083C46.1808 64.5374 45.9443 65.7474 45.9498 66.9684Z" fill="#EE8E9E"/>
<path opacity="0.1" d="M46.272 76.7889L47.404 80.8136C47.404 80.8136 49.3924 87.7387 49.6065 88.2208C49.8206 88.703 55.0204 93.5887 55.2443 93.6945C55.4683 93.8003 58.2934 95.4165 58.2934 95.4165C58.2934 95.4165 58.5173 86.5603 58.2934 83.9871C58.2749 83.421 58.322 82.8547 58.4337 82.2995L57.6954 85.2737L57.7495 91.232L58.1777 91.5542L57.2131 93.0032V91.9282C57.2131 91.9282 53.7678 88.6022 53.2387 87.2048C52.7096 85.8075 50.7778 83.2835 50.7778 83.2835C50.7778 83.2835 48.5631 79.5934 48.5237 78.9415C48.4818 78.4495 47.5566 77.2785 47.1505 76.7914C46.6928 76.7717 46.272 76.7889 46.272 76.7889Z" fill="black"/>
<path opacity="0.1" d="M65.0634 95.8963C65.1283 96.2648 65.2565 96.6194 65.4424 96.9443C66.6162 96.8262 70.6102 96.0783 71.4961 91.5124C70.972 91.0204 70.5388 90.6367 70.5388 90.6367C70.5388 90.6367 65.0092 94.6121 65.0634 95.8963Z" fill="black"/>
<path opacity="0.1" d="M27.813 130.145C28.8958 129.378 29.9269 128.332 30.5421 128.044C31.4551 127.614 32.8504 126.219 32.8504 126.219C32.8504 126.219 33.2048 125.973 33.7486 125.658C34.7453 125.075 36.3793 124.229 37.6294 124.125C38.7491 124.032 42.4749 123.793 45.4034 123.611L49.2251 123.365C49.2251 123.365 52.7147 122.135 54.2183 122.935C55.2949 123.472 56.4293 123.885 57.5995 124.165C57.5995 124.165 57.5995 124.047 57.5995 123.845L56.4724 122.02L44.5642 123.036L43.0508 122.02L35.4811 122.556L33.2343 124.002L31.2951 124.167L32.1614 124.691L27.9656 127.397C27.9656 127.397 27.8376 128.598 27.813 130.145Z" fill="black"/>
<path d="M26.2404 130.62C26.8089 130.45 27.3417 130.179 27.8129 129.818C28.8932 129.053 29.9218 128.01 30.5346 127.722C31.4476 127.292 32.8429 125.897 32.8429 125.897C32.8429 125.897 35.6901 123.963 37.6219 123.803C38.1486 123.759 39.251 123.683 40.575 123.597L44.9578 123.316L47.2317 123.173L49.2176 123.053C49.2176 123.053 52.7071 121.823 54.2107 122.622C55.2874 123.159 56.4218 123.572 57.592 123.852C57.592 123.852 57.6461 120.096 58.0842 118.539C58.5222 116.981 59.103 114.138 59.103 114.138C59.103 114.138 59.5952 110.221 60.0701 108.45C60.5451 106.679 62.4326 96.804 63.3997 96.1496C64.3668 95.4952 64.9008 96.6416 64.9008 96.6416C64.9008 96.6416 71.3434 96.5334 71.4517 89.4509C71.4517 89.4509 68.4445 86.4447 68.2304 85.6944C68.0163 84.944 65.1715 82.1519 65.1715 82.1519C65.1715 82.1519 63.5596 79.1457 61.7263 79.0915C60.8643 79.0414 59.9995 79.0686 59.1424 79.1727L57.592 85.4779L57.6461 91.4361L58.0768 91.7584L57.1097 93.2074V92.152C57.1097 92.152 53.6644 88.8235 53.1378 87.4287C52.6112 86.0338 50.6769 83.5049 50.6769 83.5049C50.6769 83.5049 48.4769 79.8148 48.4228 79.1629C48.3686 78.511 46.865 76.7938 46.865 76.7938C46.5618 76.7573 46.2553 76.7573 45.952 76.7938C45.8167 76.8026 45.6809 76.7834 45.5534 76.7373C44.6864 76.461 43.7637 76.4085 42.871 76.5847C41.0155 76.971 38.1953 77.6745 37.4177 78.5183C36.2365 79.8074 34.5188 81.0424 32.5845 86.4078L42.999 90.1643L42.1081 91.8593L33.8199 107.604C33.8199 107.604 33.5443 108.051 33.1727 108.634C32.6805 109.392 32.0431 110.384 31.6174 110.927C30.8668 111.894 31.0809 114.952 31.0809 114.952C31.0809 114.952 30.921 116.401 30.3845 116.94C29.848 117.478 29.9514 119.459 29.9514 119.459L28.5561 124.664C28.5561 124.664 27.2665 125.845 27.2665 126.386C27.2665 126.927 26.2477 128.426 26.2477 128.426C26.2477 128.426 24.69 130.994 26.2404 130.62Z" fill="#DFE5EE"/>
<path opacity="0.1" d="M33.1704 108.635C33.2422 108.93 33.2972 109.23 33.3353 109.532C33.3353 109.532 37.5754 119.461 38.1119 120.052C38.2767 120.234 38.9018 121.127 39.6844 122.266L40.5826 123.592C42.2043 126 44.0278 128.736 44.0278 128.736L47.9997 132.224C47.9997 132.224 56.6423 132.915 59.3887 130.111C59.0564 129.88 58.8448 129.757 58.8448 129.757L57.6636 128.839C57.0533 127.811 54.7228 126.807 52.3604 126.022C50.185 126.037 48.4057 126.214 48.4057 126.214L47.8397 124.723L47.2491 123.169L44.237 115.277C44.237 115.277 42.3003 105.296 41.6555 104.812C41.0108 104.327 41.1634 102.826 41.1634 102.826C41.1634 102.826 42.3446 98.5876 41.9139 97.9972C41.4833 97.4068 42.6128 93.0574 42.6128 93.0574C42.5008 92.6332 42.3266 92.2278 42.096 91.8544L33.8078 107.599C33.8078 107.599 33.542 108.044 33.1704 108.635Z" fill="black"/>
<path d="M42.7285 92.7302C42.7285 92.7302 41.6014 97.0771 42.0321 97.6675C42.4627 98.2579 41.279 102.497 41.279 102.497C41.279 102.497 41.1191 104 41.7712 104.482C42.4233 104.964 44.3527 114.947 44.3527 114.947L48.5116 125.897C48.5116 125.897 61.5272 124.608 60.186 128.686C58.8448 132.765 48.1055 131.907 48.1055 131.907L44.1337 128.418C44.1337 128.418 38.764 120.315 38.2275 119.724C37.6911 119.134 33.4485 109.205 33.4485 109.205C33.4485 109.205 33.2344 107.22 32.3214 106.199C31.4084 105.178 32.1073 103.456 32.1073 103.456C32.1073 103.456 30.9802 90.4743 32.1615 88.9195C33.3427 87.3648 41.4981 88.061 42.7285 92.7302Z" fill="#EE8E9E"/>
<path opacity="0.1" d="M81.2239 134.482C81.2239 134.482 77.8402 135.612 76.9346 137.22C76.029 138.829 81.2239 134.482 81.2239 134.482Z" fill="black"/>
<path opacity="0.1" d="M79.5037 130.942C79.3979 131.102 74.8723 135.641 75.1553 136.738C75.4383 137.835 79.5037 130.942 79.5037 130.942Z" fill="black"/>
<path opacity="0.1" d="M54.6488 134.163C54.6488 134.163 49.6015 136.541 49.1709 137.577C48.7402 138.613 54.6488 134.163 54.6488 134.163Z" fill="black"/>
<path opacity="0.1" d="M54.3266 137.22C54.3266 137.22 49.7715 139.152 49.1588 139.636C48.546 140.121 54.3266 137.22 54.3266 137.22Z" fill="black"/>
<path opacity="0.1" d="M52.2322 141.353C52.2322 141.353 50.2142 142.856 49.1019 141.676C47.9896 140.495 52.2322 141.353 52.2322 141.353Z" fill="black"/>
<path opacity="0.1" d="M59.8021 102.174C59.6938 102.337 52.983 114.411 51.2111 115.323C49.4393 116.236 59.8021 102.174 59.8021 102.174Z" fill="black"/>
<path opacity="0.1" d="M59.4794 106.738C59.4794 107.006 52.9286 121.006 51.8507 121.173C50.7728 121.341 59.4794 106.738 59.4794 106.738Z" fill="black"/>
<path opacity="0.1" d="M34.5678 115.754C34.5678 115.754 31.408 122.507 30.1776 122.903C28.9471 123.299 34.5678 115.754 34.5678 115.754Z" fill="black"/>
<path opacity="0.1" d="M34.0316 112.748C34.0316 112.748 32.9414 115.109 32.2795 115.109C31.6175 115.109 34.0316 112.748 34.0316 112.748Z" fill="black"/>
<path opacity="0.1" d="M45.9497 66.9684C45.949 68.0782 46.1482 69.179 46.5379 70.2181C46.5035 69.013 46.7181 67.8136 47.1683 66.6951C47.6186 65.5766 48.2947 64.563 49.1546 63.7175C50.0144 62.872 51.0394 62.2129 52.1656 61.7814C53.2918 61.3498 54.4949 61.1551 55.6997 61.2094C56.1501 61.2291 56.6841 61.3349 56.8662 61.7432C56.9378 61.9625 56.9751 62.1915 56.9769 62.4222C57.1123 63.4653 58.1705 64.1172 59.1646 64.4567C60.1588 64.7962 61.2662 65.0126 61.9873 65.7777C62.6468 66.4788 62.8338 67.485 63.1587 68.3928C63.3413 68.9486 63.6515 69.4541 64.0643 69.8688C64.4843 68.5922 64.6222 67.2397 64.4684 65.9046C64.3146 64.5696 63.8727 63.2838 63.1734 62.1361C62.474 60.9883 61.5339 60.006 60.4177 59.2569C59.3016 58.5078 58.0362 58.0098 56.7088 57.7973C55.3813 57.5848 54.0236 57.6627 52.7293 58.0259C51.435 58.389 50.2349 59.0287 49.212 59.9006C48.189 60.7726 47.3676 61.8561 46.8043 63.0764C46.2411 64.2966 45.9495 65.6245 45.9497 66.9684Z" fill="black"/>
<path d="M63.2964 58.5623C62.5335 57.5266 61.1801 57.1675 60.0038 56.646C58.549 55.9868 57.2647 55.0029 56.2498 53.77C55.2349 52.5371 54.5163 51.0879 54.1493 49.5339C53.6804 50.2231 53.4605 51.0515 53.5258 51.8824C53.5912 52.7133 53.9378 53.4972 54.5086 54.1047C52.3701 53.9596 50.0076 53.7136 48.5582 52.1367C48.2284 53.2732 49.2152 54.5647 48.6763 55.6176C48.2137 56.5229 46.9537 56.6017 46.1391 57.2167C45.2704 57.8612 44.9825 59.0297 44.9284 60.1097C44.8742 61.1897 44.9875 62.2967 44.6675 63.3299C44.4214 64.1147 43.9293 64.8355 43.8801 65.6547C43.8744 66.265 44.0092 66.8685 44.2738 67.4186C44.881 68.8839 45.7039 70.2504 46.715 71.4727C46.4398 70.1622 46.468 68.8062 46.7975 67.5082C47.1269 66.2103 47.749 65.0048 48.6159 63.9841C49.4829 62.9633 50.5719 62.1543 51.7997 61.6188C53.0275 61.0833 54.3614 60.8355 55.6997 60.8945C56.15 60.9142 56.684 61.0224 56.8661 61.4308C56.9382 61.6499 56.9756 61.879 56.9769 62.1097C57.1122 63.1504 58.1704 63.8023 59.1646 64.1418C60.1588 64.4812 61.2662 64.7002 61.9872 65.4628C62.6467 66.1639 62.8338 67.1701 63.1586 68.0779C63.4834 68.9856 64.111 69.9352 65.0682 70.0459C65.2873 68.6978 65.5087 67.3398 65.3734 65.972C65.2257 64.5083 64.2414 63.6793 63.8969 62.405C63.5228 61.0691 64.2315 59.8317 63.2964 58.5623Z" fill="#603556"/>
<path opacity="0.1" d="M36.0839 84.5726L32.7026 86.612C32.7026 86.612 31.7355 89.8838 30.98 90.3021C30.98 90.3021 37.7449 86.5455 42.8439 95.1853C42.8439 95.1853 42.6839 94.0586 43.3804 93.5223C44.0768 92.986 43.9168 90.6784 43.9168 90.6784C44.1046 90.3128 44.269 89.9357 44.409 89.5493C44.8766 88.3807 42.3542 81.6205 36.0839 84.5726Z" fill="black"/>
<path d="M35.9657 84.3561L32.582 86.3955C32.582 86.3955 31.6149 89.6698 30.8594 90.1003C30.8594 90.1003 37.6243 86.3414 42.7233 94.9836C42.7233 94.9836 42.5633 93.8568 43.2622 93.3205C43.9611 92.7843 43.7987 90.4743 43.7987 90.4743C43.9877 90.1101 44.1521 89.7337 44.2909 89.3475C44.7683 88.1667 42.236 81.404 35.9657 84.3561Z" fill="#DFE5EE"/>
<g opacity="0.1">
<path opacity="0.1" d="M48.8387 54.8427C48.8264 53.9669 48.3047 53.0026 48.5581 52.1367L48.6024 52.1834C48.664 53.0789 49.1611 54.0211 48.8387 54.8427Z" fill="black"/>
<path opacity="0.1" d="M45.0366 59.4603C44.9849 60.4443 45.0735 61.4283 44.8521 62.3853C44.9333 61.635 44.889 60.8625 44.9283 60.1048C44.9446 59.7456 44.9915 59.3884 45.0686 59.0371C45.0538 59.1872 45.0415 59.32 45.0366 59.4603Z" fill="black"/>
<path opacity="0.1" d="M43.8801 65.6498C43.8941 65.4546 43.9296 65.2616 43.9859 65.0742C43.9951 65.661 44.1302 66.239 44.3821 66.7691C44.9379 68.1097 45.6748 69.3678 46.5723 70.5084C46.6016 70.8307 46.6492 71.151 46.715 71.4679C45.7039 70.2455 44.881 68.8791 44.2738 67.4137C44.0092 66.8636 43.8744 66.2602 43.8801 65.6498Z" fill="black"/>
<path opacity="0.1" d="M54.6167 53.4602C54.41 53.4479 54.1984 53.4331 53.9892 53.4159C53.5204 52.5713 53.3927 51.5792 53.6324 50.6434C53.5872 51.1559 53.6516 51.6721 53.8213 52.1577C53.991 52.6434 54.2622 53.0874 54.6167 53.4602Z" fill="black"/>
<path opacity="0.1" d="M48.7204 63.3325C49.5943 62.3197 50.6847 61.5161 51.911 60.9813C53.1374 60.4465 54.4683 60.194 55.8053 60.2426C56.2557 60.2648 56.7897 60.3705 56.9742 60.7789C57.0449 60.9984 57.0822 61.2273 57.085 61.4579C57.2203 62.4985 58.2761 63.1529 59.2727 63.4899C60.2694 63.8269 61.3718 64.0483 62.0929 64.8134C62.7549 65.5145 62.9419 66.5207 63.2667 67.426C63.5916 68.3313 64.2166 69.2809 65.1714 69.394L65.0681 70.0386C64.1108 69.9353 63.4833 68.9857 63.1584 68.0705C62.8336 67.1554 62.6466 66.1566 61.9871 65.4555C61.266 64.6929 60.1586 64.4715 59.1644 64.1344C58.1702 63.7974 57.1121 63.1504 56.9767 62.1024C56.9754 61.8717 56.938 61.6426 56.866 61.4234C56.674 61.0151 56.1498 60.9068 55.6995 60.8871C53.6078 60.7896 51.5506 61.446 49.9022 62.7367C48.2537 64.0275 47.1235 65.867 46.7173 67.9205C46.9314 66.2308 47.6267 64.6383 48.7204 63.3325Z" fill="black"/>
</g>
<path d="M106.261 83.5565V93.1827L97.0474 92.4447V83.5565H106.261Z" fill="#3A3768"/>
<path opacity="0.1" d="M106.261 92.3956V93.1828L97.0474 92.4448V91.6575L106.261 92.3956Z" fill="black"/>
<path d="M109.076 93.8741L94.7441 93.1361C94.7441 92.7642 94.8919 92.4075 95.155 92.1445C95.418 91.8816 95.7748 91.7338 96.1468 91.7338L107.674 92.4718C108.046 92.4718 108.402 92.6196 108.665 92.8826C108.929 93.1455 109.076 93.5022 109.076 93.8741Z" fill="#3A3768"/>
<path d="M126.581 86.2011L77.0061 84.7251C76.8079 84.7254 76.6116 84.6866 76.4284 84.611C76.2452 84.5353 76.0788 84.4242 75.9387 84.2841C75.7985 84.144 75.6874 83.9777 75.6117 83.7945C75.536 83.6114 75.4972 83.4152 75.4976 83.2171V53.9423C75.4976 53.7444 75.5366 53.5484 75.6124 53.3656C75.6883 53.1828 75.7994 53.0167 75.9395 52.8769C76.0797 52.737 76.246 52.6262 76.429 52.5507C76.612 52.4751 76.8081 52.4364 77.0061 52.4368L126.581 53.9128C126.98 53.9128 127.364 54.0713 127.646 54.3536C127.929 54.6359 128.088 55.0188 128.089 55.4184V84.6931C128.089 85.0931 127.93 85.4766 127.647 85.7594C127.364 86.0422 126.981 86.2011 126.581 86.2011Z" fill="#3A3768"/>
<path d="M126.871 84.0609L76.605 82.5849V56.2081L126.871 57.6841V84.0609Z" fill="#FFD037"/>
<path d="M101.738 55.2831C101.983 55.2831 102.181 55.087 102.181 54.8452C102.181 54.6033 101.983 54.4073 101.738 54.4073C101.493 54.4073 101.295 54.6033 101.295 54.8452C101.295 55.087 101.493 55.2831 101.738 55.2831Z" fill="white"/>
<path opacity="0.1" d="M106.251 85.3795L97.0669 85.2319V85.5443H106.251V85.3795Z" fill="black"/>
<path opacity="0.1" d="M89.5267 94.4374L102.104 95.2615L99.4244 99.1115L85.5967 97.6355L89.5267 94.4374Z" fill="black"/>
<path d="M89.2806 94.1915L101.858 95.0156L99.1783 98.8656L85.3506 97.3895L89.2806 94.1915Z" fill="#3A3768"/>
<path d="M89.8372 94.4768L100.805 95.1459L98.47 98.2825L86.4092 97.0795L89.8372 94.4768Z" fill="#D5E1F4"/>
<path opacity="0.1" d="M217.402 197.841C226.127 197.841 233.201 196.756 233.201 195.418C233.201 194.08 226.127 192.995 217.402 192.995C208.676 192.995 201.603 194.08 201.603 195.418C201.603 196.756 208.676 197.841 217.402 197.841Z" fill="#590799"/>
<path d="M226.28 138.227C226.28 138.227 228.035 140.522 225.468 143.988C222.902 147.454 220.793 150.384 221.642 152.539C221.642 152.539 225.515 146.101 228.665 146.013C231.815 145.924 229.755 142.091 226.28 138.227Z" fill="#009F79"/>
<path opacity="0.1" d="M226.281 138.227C226.432 138.448 226.553 138.69 226.637 138.945C229.714 142.559 231.352 145.929 228.397 146.013C225.643 146.091 222.341 151.012 221.548 152.256C221.575 152.352 221.606 152.447 221.642 152.539C221.642 152.539 225.515 146.101 228.665 146.013C231.815 145.924 229.755 142.091 226.281 138.227Z" fill="black"/>
<path d="M229.544 141.152C229.544 141.958 229.453 142.628 229.342 142.628C229.231 142.628 229.138 141.971 229.138 141.152C229.138 140.332 229.251 140.724 229.364 140.724C229.477 140.724 229.544 140.345 229.544 141.152Z" fill="#FFD037"/>
<path d="M230.663 142.116C229.955 142.502 229.334 142.736 229.283 142.637C229.231 142.539 229.76 142.145 230.469 141.759C231.178 141.373 230.9 141.656 230.961 141.759C231.023 141.863 231.375 141.73 230.663 142.116Z" fill="#FFD037"/>
<path d="M217.005 138.227C217.005 138.227 215.248 140.522 217.815 143.988C220.382 147.454 222.491 150.384 221.642 152.539C221.642 152.539 217.771 146.101 214.618 146.013C211.466 145.924 213.538 142.091 217.005 138.227Z" fill="#009F79"/>
<path opacity="0.1" d="M217.005 138.227C216.852 138.448 216.731 138.69 216.646 138.945C213.573 142.559 211.934 145.929 214.889 146.013C217.643 146.091 220.945 151.012 221.735 152.256C221.71 152.352 221.679 152.447 221.642 152.539C221.642 152.539 217.771 146.101 214.618 146.013C211.466 145.924 213.538 142.091 217.005 138.227Z" fill="black"/>
<path d="M213.742 141.152C213.742 141.958 213.831 142.628 213.944 142.628C214.057 142.628 214.146 141.971 214.146 141.152C214.146 140.332 214.033 140.724 213.922 140.724C213.811 140.724 213.742 140.345 213.742 141.152Z" fill="#FFD037"/>
<path d="M212.62 142.116C213.331 142.502 213.949 142.736 214.003 142.637C214.057 142.539 213.511 142.145 212.815 141.759C212.118 141.373 212.386 141.656 212.322 141.759C212.258 141.863 211.911 141.73 212.62 142.116Z" fill="#FFD037"/>
<path opacity="0.1" d="M221.642 170.099C231.781 170.099 240 168.838 240 167.282C240 165.727 231.781 164.466 221.642 164.466C211.503 164.466 203.284 165.727 203.284 167.282C203.284 168.838 211.503 170.099 221.642 170.099Z" fill="#590799"/>
<path d="M231.091 149.444L231.003 150.163L230.88 151.174L230.828 151.597L230.705 152.608L230.653 153.031L230.53 154.042L229.125 165.555C229 166.584 227.319 167.383 225.291 167.383H217.992C215.964 167.383 214.289 166.584 214.163 165.555L212.755 154.042L212.632 153.031L212.581 152.608L212.455 151.597L212.404 151.174L212.28 150.163L212.194 149.444C212.123 148.864 213.031 148.372 214.178 148.372H229.108C230.247 148.372 231.163 148.864 231.091 149.444Z" fill="#65617D"/>
<path d="M231.003 150.163L230.88 151.174H212.406L212.283 150.163H231.003Z" fill="#9D9CB5"/>
<path d="M230.829 151.597L230.705 152.611H212.581L212.456 151.597H230.829Z" fill="#9D9CB5"/>
<path d="M230.653 153.031L230.53 154.045H212.755L212.632 153.031H230.653Z" fill="#9D9CB5"/>
</svg>
