<svg width="257" height="195" viewBox="0 0 257 195" fill="none" xmlns="http://www.w3.org/2000/svg">
<path opacity="0.1" d="M253.267 56.1121C253.223 56.3211 253.18 56.53 253.131 56.7366C251.59 63.8384 249.071 70.6819 245.325 76.9666C245.201 77.1756 245.076 77.3845 244.949 77.5935C242.48 81.637 239.525 85.3638 236.15 88.691C234.284 90.5316 232.249 92.2806 229.829 93.5413C226.439 95.3114 222.475 96.0298 218.579 96.6168C214.533 97.2295 210.431 97.7413 206.34 98.293C204.886 98.4855 203.441 98.6898 202.005 98.9058C198.053 99.4903 194.129 100.166 190.299 101.063C185.564 102.169 180.975 103.618 176.64 105.655C176.294 105.812 175.952 105.978 175.613 106.153C175.275 106.322 174.934 106.493 174.601 106.667C174.267 106.841 173.938 107.015 173.611 107.193C173.442 107.285 173.273 107.376 173.106 107.472C172.939 107.569 172.775 107.653 172.613 107.747C172.124 108.019 171.645 108.299 171.165 108.581L171.147 108.592C170.829 108.778 170.517 108.968 170.207 109.158C168.435 110.233 166.701 111.356 164.967 112.485L163.877 113.189L162.187 114.281C161.858 114.494 161.522 114.708 161.191 114.919C160.956 115.074 160.721 115.229 160.465 115.389C159.234 116.164 157.986 116.924 156.706 117.65C156.403 117.823 156.097 117.997 155.789 118.166C153.202 119.608 150.496 120.827 147.702 121.81L147.664 121.824C146.258 122.314 144.824 122.718 143.369 123.035C142.53 123.218 141.689 123.369 140.838 123.484C138.565 123.806 136.259 123.838 133.977 123.58C129.497 123.061 125.298 121.343 120.819 120.763C111.599 119.589 102.645 123.371 93.9745 126.334C91.8426 127.062 89.695 127.743 87.5317 128.379C86.0937 128.804 84.651 129.205 83.1966 129.592C74.2857 131.945 65.1913 133.538 56.0111 134.356C52.1735 134.732 48.313 134.817 44.4625 134.612C42.9987 134.523 41.5513 134.377 40.1297 134.142C35.2659 133.391 30.7311 131.816 27.0703 128.93C24.0722 126.562 21.9269 123.474 20.2939 120.244C18.6223 116.948 17.442 113.425 16.7906 109.787C16.7013 109.292 16.6214 108.794 16.5556 108.297C16.4381 107.445 16.3504 106.589 16.2925 105.728C15.9763 101.14 16.5246 96.533 17.909 92.1468C19.4598 87.2354 22.0444 82.5213 23.1817 77.5723C23.2286 77.3626 23.2733 77.1537 23.3156 76.9455C23.4709 76.1938 23.5862 75.4345 23.661 74.6706C24.2413 68.5901 22.0162 62.6622 20.2704 56.7155C20.2093 56.5089 20.1482 56.2999 20.0895 56.091C19.9015 55.4305 19.7214 54.7708 19.5491 54.1119C17.9325 47.8248 17.4837 41.094 18.9241 34.8186C18.9687 34.6097 19.0228 34.4007 19.0744 34.1941C20.0387 30.2274 21.852 26.5166 24.3894 23.3173C27.0868 19.9366 30.6277 17.1217 34.4107 14.6496C36.2544 13.4445 38.1607 12.3184 40.1297 11.2713C41.5395 10.5201 42.9838 9.80871 44.4625 9.13727C56.3165 3.73759 69.8388 1.10114 83.2107 1.68336C83.9156 1.71388 84.6205 1.75145 85.3254 1.8031C86.0303 1.85474 86.801 1.91578 87.5388 1.98387C96.1526 2.81964 104.534 4.83631 112.856 7.04078C115.645 7.7803 118.43 8.53861 121.212 9.28282C122.45 9.6115 123.686 9.94018 124.924 10.2595C130.989 11.8254 137.142 13.2434 143.374 14.3022C144.816 14.551 146.261 14.778 147.706 14.983C152.726 15.7202 157.787 16.149 162.859 16.2672C164.832 16.3063 166.804 16.2891 168.778 16.2155C169.774 16.1795 170.771 16.1255 171.769 16.0536C182.073 15.3281 192.03 12.9006 202.005 10.6327C203.447 10.3041 204.892 9.98009 206.34 9.6608C208.238 9.24291 210.137 8.83911 212.045 8.46583C223.918 6.13458 234.5 7.47511 245.539 12.2855C248.049 13.3772 250.556 14.6966 252.092 16.7461C253.629 18.7957 254.014 21.3124 254.301 23.7422C254.708 27.2027 254.973 30.7078 255.074 34.2317C255.074 34.4383 255.074 34.6472 255.088 34.8562C255.248 41.9744 254.717 49.1606 253.267 56.1121Z" fill="#009F79"/>
<path opacity="0.1" d="M174.512 76.9666H173.736V77.2437V77.5935H174.615L174.512 76.9666ZM165.717 76.9666C165.716 76.972 165.716 76.9776 165.717 76.9831C165.696 77.1544 165.672 77.3258 165.649 77.4996V77.5465V77.5935H172.369V77.5559L172.839 76.9666H165.717ZM147.707 76.9666V56.7366H155.437C155.355 56.6826 155.27 56.6263 155.183 56.5746L155.071 56.5019L154.925 56.4126C154.84 56.3633 154.756 56.314 154.666 56.2671C154.577 56.2201 154.523 56.1873 154.448 56.1473L154.396 56.1192H154.384H147.707V55.004L147.526 55.0745L147.335 55.1637H147.321L147.281 55.1848L147.162 55.2482L147.042 55.3116C146.924 55.375 146.807 55.4454 146.689 55.5182L146.577 55.5933L146.342 55.7435C146.038 55.9454 145.74 56.1567 145.432 56.3539C145.355 56.4032 145.277 56.4525 145.197 56.4971C145.03 56.5958 144.859 56.6897 144.683 56.7742C144.607 56.8117 144.535 56.8446 144.448 56.8751L144.321 56.9244L144.203 56.9643C143.928 57.0602 143.645 57.134 143.357 57.185V76.9619H131.767C131.767 76.9854 131.783 77.0042 131.79 77.0277C131.854 77.2155 131.917 77.401 131.978 77.5888H143.374V99.272C143.433 99.272 143.492 99.272 143.55 99.272L143.755 99.2837L144.123 99.3049L144.713 99.3753L144.983 99.4011L145.277 99.4316H145.322L145.841 99.495L145.952 99.5091L146.203 99.5443L146.562 99.596L147.425 99.5584L147.542 99.5795C147.589 99.5795 147.639 99.5936 147.688 99.603V77.5935H165.625V77.5465V77.4996C165.649 77.3258 165.672 77.1544 165.693 76.9831C165.692 76.9776 165.692 76.972 165.693 76.9666H147.707ZM174.512 76.9666H173.736V77.2437V77.5935H174.615L174.512 76.9666ZM165.233 76.9666C165.205 77.1756 165.179 77.3845 165.151 77.5935H172.644L173.154 76.9666H165.233ZM147.707 76.9666V56.7366H155.437C155.355 56.6826 155.27 56.6263 155.183 56.5746L155.071 56.5019L154.925 56.4126C154.84 56.3633 154.756 56.314 154.666 56.2671C154.577 56.2201 154.523 56.1873 154.448 56.1473L154.396 56.1192H154.38H147.707V55.004L147.526 55.0745L147.335 55.1637H147.321L147.281 55.1848L147.162 55.2482L147.042 55.3116C146.924 55.375 146.807 55.4454 146.689 55.5182L146.577 55.5933L146.342 55.7435C146.038 55.9454 145.74 56.1567 145.432 56.3539C145.355 56.4032 145.277 56.4525 145.197 56.4971C145.03 56.5958 144.859 56.6897 144.683 56.7742C144.607 56.8117 144.535 56.8446 144.448 56.8751L144.321 56.9244L144.203 56.9643C143.928 57.0602 143.645 57.134 143.357 57.185V76.9619H131.767C131.767 76.9854 131.783 77.0042 131.79 77.0277C131.854 77.2131 131.919 77.401 131.98 77.5888H143.374V99.2696H143.55L143.755 99.2814L144.123 99.3025L144.713 99.3753L144.983 99.4011L145.277 99.4316H145.322L145.841 99.495L145.952 99.5091L146.203 99.5443L146.562 99.596L147.425 99.5584L147.542 99.5795C147.589 99.5795 147.639 99.5936 147.688 99.603V77.5935H165.155C165.183 77.3845 165.209 77.1756 165.237 76.9666H147.707ZM206.34 34.8397H255.088C255.088 34.6308 255.088 34.4219 255.074 34.2153H206.34V9.65376C204.893 9.96679 203.448 10.2908 202.005 10.6257V34.2153H148.987L148.853 34.0955L149.055 33.9171L168.776 16.2109C166.802 16.286 164.829 16.3032 162.857 16.2625L147.704 29.865V14.983C146.257 14.778 144.813 14.551 143.372 14.3022V29.1795L121.217 9.28283C118.435 8.53861 115.65 7.78031 112.861 7.04079L142.991 34.0955L142.857 34.2153H87.5461V2.005C86.8083 1.93614 86.0705 1.87588 85.3327 1.82423C84.6278 1.77258 83.9229 1.73502 83.218 1.7045V34.2153H44.4627V9.1584C42.9997 9.82828 41.5554 10.5396 40.13 11.2924V34.2153H19.0747C19.023 34.4219 18.969 34.6308 18.9243 34.8397H40.13V56.1121H20.0897C20.1485 56.3211 20.2096 56.53 20.2707 56.7366H40.13V76.9666H23.3158C23.2735 77.1748 23.2289 77.3837 23.1819 77.5935H40.13V134.156C41.5398 134.375 42.9989 134.527 44.4627 134.626V77.5935H83.211V129.602C84.6654 129.214 86.1081 128.813 87.5461 128.388V77.5935H143.374V123.033C144.829 122.716 146.263 122.312 147.669 121.822L147.707 121.807V77.5935H202.005V98.9058C203.446 98.6945 204.891 98.4918 206.34 98.2977V77.5935H244.95C245.077 77.3845 245.201 77.1756 245.326 76.9666H206.34V56.7366H253.131C253.18 56.53 253.223 56.3211 253.267 56.1121H206.34V34.8397ZM44.4627 34.8397H83.211V56.1121H44.4627V34.8397ZM44.4627 76.9666V56.7366H83.211V76.9666H44.4627ZM87.5461 34.8397H143.374V56.1121H87.5461V34.8397ZM87.5461 76.9666V56.7366H143.374V76.9666H87.5461ZM202.005 76.9666H147.707V56.7366H202.005V76.9666ZM202.005 56.1121H147.707V35.4102L148.468 34.8397H202.005V56.1121ZM165.717 76.9666C165.716 76.972 165.716 76.9776 165.717 76.9831C165.696 77.1544 165.672 77.3258 165.649 77.4996V77.5465V77.5935H172.369V77.5559L172.839 76.9666H165.717ZM174.512 76.9666H173.736V77.2437V77.5935H174.615L174.512 76.9666ZM147.707 76.9666V56.7366H155.437C155.355 56.6826 155.27 56.6263 155.183 56.5746L155.071 56.5019L154.925 56.4126C154.84 56.3633 154.756 56.314 154.666 56.2671C154.577 56.2201 154.523 56.1873 154.448 56.1473L154.396 56.1192H154.384H147.707V55.004L147.526 55.0745L147.335 55.1637H147.321L147.281 55.1848L147.162 55.2482L147.042 55.3116C146.924 55.375 146.807 55.4454 146.689 55.5182L146.577 55.5933L146.342 55.7435C146.038 55.9454 145.74 56.1567 145.432 56.3539C145.355 56.4032 145.277 56.4525 145.197 56.4971C145.03 56.5958 144.859 56.6897 144.683 56.7742C144.607 56.8117 144.535 56.8446 144.448 56.8751L144.321 56.9244L144.203 56.9643C143.928 57.0602 143.645 57.134 143.357 57.185V76.9619H131.767C131.767 76.9854 131.783 77.0042 131.79 77.0277C131.854 77.2155 131.917 77.401 131.978 77.5888H143.374V99.272C143.433 99.272 143.492 99.272 143.55 99.272L143.755 99.2837L144.123 99.3049L144.713 99.3753L144.983 99.4011L145.277 99.4316H145.322L145.841 99.495L145.952 99.5091L146.203 99.5443L146.562 99.596L147.425 99.5584L147.542 99.5795C147.589 99.5795 147.639 99.5936 147.688 99.603V77.5935H165.625V77.5465V77.4996C165.649 77.3258 165.672 77.1544 165.693 76.9831C165.692 76.9776 165.692 76.972 165.693 76.9666H147.707Z" fill="#590799"/>
<path opacity="0.1" d="M63.093 20.1949H63.429C63.3182 20.1481 63.2218 20.0728 63.1496 19.9767C63.0774 19.8806 63.0319 19.7672 63.0178 19.6479C63.0178 19.2159 63.6639 18.8637 64.4534 18.8637H74.5005C75.29 18.8637 75.9338 19.2159 75.9338 19.6479C75.9338 20.0775 75.29 20.432 74.5005 20.432H74.1645C74.2754 20.478 74.372 20.5527 74.4442 20.6485C74.5165 20.7442 74.5619 20.8575 74.5757 20.9767C74.5757 21.3452 74.1058 21.6551 73.4784 21.7373H76.3709C77.158 21.7373 77.8042 22.0895 77.8042 22.5214C77.8042 22.9534 77.158 23.3056 76.3709 23.3056H66.3214C65.5343 23.3056 64.8881 22.9511 64.8881 22.5214C64.8881 22.1528 65.358 21.8453 65.9854 21.7608H63.093C62.3035 21.7608 61.6597 21.4086 61.6597 20.9767C61.6597 20.5447 62.3035 20.1949 63.093 20.1949Z" fill="#590799"/>
<path opacity="0.1" d="M171.986 27.6535H172.322C172.211 27.6063 172.115 27.5309 172.044 27.4349C171.972 27.3388 171.927 27.2255 171.913 27.1065C171.913 26.6745 172.557 26.3223 173.346 26.3223H183.393C184.183 26.3223 184.829 26.6745 184.829 27.1065C184.829 27.5361 184.183 27.8882 183.393 27.8882H183.059C183.17 27.9354 183.266 28.0108 183.337 28.1068C183.409 28.2029 183.454 28.3162 183.468 28.4352C183.468 28.8038 182.998 29.1137 182.371 29.1959H185.263C186.053 29.1959 186.697 29.548 186.697 29.98C186.697 30.412 186.053 30.7641 185.263 30.7641H175.216C174.427 30.7641 173.781 30.4096 173.781 29.98C173.781 29.6114 174.251 29.3015 174.878 29.2194H171.986C171.198 29.2194 170.552 28.8672 170.552 28.4352C170.552 28.0033 171.198 27.6535 171.986 27.6535Z" fill="#590799"/>
<path opacity="0.1" d="M47.6725 59.5726H48.0061C47.8957 59.5256 47.7996 59.4503 47.7278 59.3542C47.656 59.2581 47.6109 59.1447 47.5973 59.0256C47.5973 58.596 48.2434 58.2415 49.0306 58.2415H59.08C59.8672 58.2415 60.5133 58.596 60.5133 59.0256C60.5133 59.4576 59.8672 59.8097 59.08 59.8097H58.744C58.8546 59.8558 58.9508 59.9307 59.0227 60.0264C59.0946 60.1222 59.1395 60.2354 59.1529 60.3544C59.1529 60.723 58.683 61.0329 58.0556 61.115H60.948C61.7375 61.115 62.3837 61.4695 62.3837 61.8991C62.3837 62.3288 61.7375 62.6833 60.948 62.6833H50.9103C50.1208 62.6833 49.477 62.3311 49.477 61.8991C49.477 61.5329 49.9469 61.223 50.5743 61.1385H47.6725C46.883 61.1385 46.2368 60.7863 46.2368 60.3544C46.2368 59.9224 46.8924 59.5726 47.6725 59.5726Z" fill="#590799"/>
<path opacity="0.1" d="M236.855 143.233C238.543 134.981 217.878 123.793 190.7 118.243C163.521 112.694 140.12 114.884 138.432 123.136C136.744 131.389 157.409 142.577 184.588 148.127C211.766 153.676 235.167 151.485 236.855 143.233Z" fill="#590799"/>
<path d="M181.969 90.3579C181.969 90.3579 184.641 77.2554 194.841 78.4692C194.841 78.4692 201.89 78.9528 203.339 83.5637V93.755L181.969 90.3579Z" fill="#3A3768"/>
<path d="M237.828 95.2129L146.997 87.6885L135.34 90.116L136.069 106.374L136.863 106.47L137.768 130.884L226.897 146.897L236.371 138.889V112.424L237.583 111.712L237.828 95.2129Z" fill="#009F79"/>
<path opacity="0.05" d="M237.95 95.2128L237.705 111.712L227.87 116.323L227.748 99.0936L237.95 95.2128Z" fill="black"/>
<path opacity="0.05" d="M236.371 112.44L236.491 138.406L227.019 146.414L227.628 116.323L236.371 112.44Z" fill="black"/>
<path opacity="0.05" d="M136.985 107.442L227.701 118.502L227.748 116.403L136.917 106.616L136.985 107.442Z" fill="black"/>
<path opacity="0.05" d="M236.371 113.393V112.44L227.383 116.403V118.507L236.371 113.393Z" fill="black"/>
<path d="M135.218 90.116L146.875 87.6885L237.706 95.2129L227.506 99.0936L135.218 90.116Z" fill="#1FCBA1"/>
<path opacity="0.1" d="M228.03 95.6801L232.487 95.9712L225.1 98.1803L221.338 97.9104L228.03 95.6801Z" fill="black"/>
<path d="M228.03 95.4852L232.487 95.7763L225.1 97.9878L221.338 97.7155L228.03 95.4852Z" fill="white"/>
<path d="M227.496 95.9852C227.672 95.9101 227.858 96.0533 228.046 96.0885C228.154 96.1097 228.264 96.0885 228.373 96.1097C228.591 96.1378 228.807 96.2834 229.016 96.2106" fill="#D3DAE1"/>
<path d="M227.266 96.1191C227.44 96.0439 227.628 96.1848 227.816 96.2224C227.924 96.2412 228.034 96.2224 228.143 96.2412C228.361 96.2717 228.577 96.4172 228.786 96.3444" fill="#D3DAE1"/>
<path d="M226.735 96.3867C226.911 96.3116 227.099 96.4525 227.287 96.4877C227.393 96.5088 227.506 96.4877 227.611 96.5088C227.832 96.5393 228.048 96.6849 228.255 96.6098" fill="#D3DAE1"/>
<path opacity="0.1" d="M208.763 93.4873L213.22 93.7807L205.833 95.9899L202.071 95.7176L208.763 93.4873Z" fill="black"/>
<path d="M208.763 93.2948L213.22 93.5859L205.833 95.7951L202.071 95.5251L208.763 93.2948Z" fill="white"/>
<path d="M208.229 93.7949C208.405 93.7197 208.591 93.8606 208.779 93.8982C208.887 93.9169 208.997 93.8982 209.105 93.9169C209.324 93.9475 209.54 94.093 209.749 94.0202" fill="#D3DAE1"/>
<path d="M207.999 93.9287C208.172 93.8535 208.36 93.9944 208.548 94.0296C208.656 94.0507 208.767 94.0296 208.875 94.0507C209.093 94.0813 209.31 94.2268 209.519 94.1517" fill="#D3DAE1"/>
<path d="M207.468 94.194C207.644 94.1188 207.832 94.2621 208.02 94.2973C208.126 94.3184 208.238 94.2973 208.344 94.3184C208.565 94.3466 208.781 94.4945 208.988 94.4194" fill="#D3DAE1"/>
<path opacity="0.1" d="M218.004 94.5837L222.463 94.8748L215.076 97.0863L211.312 96.814L218.004 94.5837Z" fill="black"/>
<path d="M218.004 94.3912L222.463 94.6823L215.076 96.8915L211.312 96.6191L218.004 94.3912Z" fill="white"/>
<path d="M217.47 94.8912C217.646 94.8161 217.834 94.957 218.022 94.9922C218.128 95.0133 218.239 94.9922 218.347 95.0133C218.565 95.0415 218.784 95.1894 218.99 95.1143" fill="#D3DAE1"/>
<path d="M217.24 95.0226C217.416 94.9475 217.604 95.0907 217.792 95.1259C217.898 95.1471 218.009 95.1259 218.117 95.1471C218.335 95.1752 218.554 95.3232 218.76 95.248" fill="#D3DAE1"/>
<path d="M216.711 95.2903C216.885 95.2152 217.073 95.3561 217.261 95.3936C217.369 95.4124 217.48 95.3936 217.588 95.4124C217.806 95.4429 218.023 95.5885 218.232 95.5157" fill="#D3DAE1"/>
<path opacity="0.1" d="M117.088 185.791C143.364 185.791 164.664 181.41 164.664 176.006C164.664 170.602 143.364 166.221 117.088 166.221C90.8127 166.221 69.5122 170.602 69.5122 176.006C69.5122 181.41 90.8127 185.791 117.088 185.791Z" fill="#590799"/>
<path d="M169.187 95.8749C168.679 91.419 166.67 87.1674 166.67 87.1674L166.823 85.6648C166.823 85.6648 166.856 84.9136 166.807 83.7867C166.812 83.0831 166.904 82.3829 167.082 81.7019C167.493 80.399 166.567 78.7979 166.464 78.65C166.36 78.502 166.515 75.6449 165.59 74.2433C164.664 72.8418 158.498 70.2358 158.498 70.2358C158.498 70.2358 158.167 69.5433 157.699 68.7333L157.742 68.6512C157.359 67.9578 156.885 67.3189 156.332 66.7519C155.954 66.3481 155.589 66.118 155.296 66.2307C155.176 65.841 155.085 65.4432 155.023 65.0404C155.084 65.0568 155.148 65.0733 155.209 65.085C155.463 65.144 155.727 65.1504 155.984 65.1038C156.558 64.9747 156.938 64.4605 157.258 63.9769C158.851 61.5588 160.223 58.9059 160.503 56.0441C160.578 55.46 160.55 54.8672 160.42 54.2927C160.288 53.846 160.104 53.4166 159.871 53.0132C159.459 52.1856 158.937 51.4172 158.32 50.7289C157.222 49.5739 155.709 48.8672 154.154 48.4493C152.401 47.9785 150.576 47.8423 148.773 48.0479C148.303 48.1019 147.833 48.1793 147.363 48.2098C146.767 48.2361 146.17 48.2259 145.575 48.1793L142.5 48.0009L142.485 47.9539L141.973 47.9234C141.771 48.3249 141.973 48.8015 142.225 49.1771C142.476 49.5527 142.765 49.9448 142.744 50.3885C142.723 50.8322 142.401 51.1891 142.149 51.5623C141.898 51.9356 141.708 52.4239 141.959 52.7902C141.994 52.8408 142.036 52.8866 142.084 52.9263C142.349 53.201 142.812 53.2315 143.214 53.2269H143.284C142.272 54.5584 141.725 56.1846 141.726 57.8565C141.733 59.2852 142.133 60.6845 142.883 61.9011C143.633 63.1177 144.703 64.1047 145.977 64.754C146.022 64.9066 146.066 65.0639 146.109 65.2235C146.574 66.8726 146.741 68.5915 146.602 70.2992L146.548 70.4166L146.515 70.2922C146.515 70.2922 142.892 72.7479 141.816 73.3982C140.74 74.0485 139.659 76.253 139.607 76.854C139.555 77.455 137.859 86.5194 137.859 86.5194C137.514 87.4325 137.23 88.3674 137.008 89.3178L134.844 91.2171C134.844 91.2171 130.38 91.6186 129.088 91.3181L129.125 91.5669C127.986 91.307 126.825 91.1498 125.657 91.0974C125.019 91.0155 124.371 91.1021 123.777 91.3486L123.733 91.3697L123.698 91.3862C123.017 91.4791 122.353 91.6655 121.724 91.9402C121.649 91.9707 121.581 92.0012 121.515 92.0318L121.529 91.7242L116.698 91.4754L114.231 90.9753C114.231 90.9753 113.357 90.271 112.842 90.3743C112.328 90.4776 111.249 89.7733 111.249 89.7733C111.003 89.5806 110.737 89.4153 110.455 89.2803C110.373 88.7121 110.321 88.367 110.321 88.367C110.321 88.367 108.401 80.7558 106.963 76.2811C106 73.2925 104.614 71.8205 103.796 71.1796C103.432 70.5457 103.192 70.1372 103.192 70.1372C103.035 69.5879 102.17 68.3506 101.949 68.3201C101.914 68.2638 101.888 68.2356 101.874 68.2356C101.827 68.2306 101.779 68.2378 101.735 68.2567C101.331 66.2471 101.096 63.7281 101.714 61.533C102.56 60.8383 103.242 59.9654 103.711 58.9767C104.179 57.988 104.424 56.908 104.426 55.814C104.426 55.7811 104.426 55.7483 104.426 55.7154C104.426 55.6825 104.426 55.6473 104.426 55.6145C104.425 53.8697 103.807 52.1815 102.68 50.8486L102.6 50.7594C102.621 50.7443 102.642 50.7278 102.661 50.7101C102.838 50.5671 102.972 50.3789 103.05 50.1656C103.128 49.9523 103.147 49.7219 103.105 49.4987C102.999 49.048 102.647 48.6935 102.466 48.2662C102.357 47.9373 102.27 47.6016 102.205 47.2614C102.067 46.7781 101.813 46.3358 101.465 45.9725L101.5 46.0664C100.579 45.0311 98.9956 44.5169 97.5693 44.747C96.5097 44.916 95.5228 45.4091 94.4584 45.5617C93.6948 45.6696 92.917 45.5992 92.1487 45.6767C91.4358 45.7499 90.7419 45.9503 90.0998 46.2683C89.9321 46.3396 89.7832 46.4489 89.6651 46.5876C89.5558 46.7734 89.4825 46.9781 89.4489 47.191C89.1881 48.1418 88.361 48.8202 87.7619 49.6138C87.0775 50.5203 86.6813 51.6114 86.6246 52.7456C86.6012 53.0338 86.6291 53.3239 86.7069 53.6025C86.7586 53.7692 86.8385 53.9265 86.8761 54.0955C86.9935 54.612 86.7233 55.1261 86.5918 55.6379C86.426 56.2908 86.4848 56.9804 86.7586 57.5959C87.6867 59.6713 90.7342 60.3638 91.3686 62.5425C91.854 62.7654 92.3667 62.9233 92.8935 63.012C92.9358 63.228 92.9734 63.4463 93.004 63.667C92.9897 63.673 92.9762 63.6809 92.964 63.6905C92.1416 64.4911 91.9372 66.0382 91.9372 66.0382L91.8385 66.118C91.5025 66.395 90.3536 67.3247 89.315 68.0408C88.0814 68.893 86.0255 71.7478 84.5875 72.6C83.1495 73.4522 81.9653 78.7039 82.2754 80.6126C82.5856 82.5213 83.8685 87.874 83.3539 89.8273C82.8393 91.7806 84.1246 100.695 84.1246 100.695C84.9871 100.859 85.8309 101.109 86.6434 101.441L86.6176 101.831L86.5401 103.005C86.5401 103.005 84.2115 111.419 85.1021 117.896C85.9926 124.373 84.6909 125.04 84.6909 125.04C84.6909 125.04 84.9634 127.911 84.2797 128.914C83.5959 129.916 83.4573 132.118 83.4573 132.118C83.4573 132.118 83.3892 137.06 83.5254 138.457C83.6617 139.854 83.7299 142.399 83.2505 143C82.7712 143.601 81.8807 147.538 81.9488 148.74C82.017 149.942 80.2359 152.682 81.1946 156.22C82.1532 159.758 78.375 159.826 78.375 159.826C78.375 159.826 78.8567 165.226 79.8835 166.77L80.0339 166.991C80.008 167.08 79.9822 167.174 79.954 167.275C79.5663 168.684 79.0352 170.907 79.4041 171.445C79.9516 172.248 80.2265 172.111 80.2265 172.111L80.431 175.717C80.431 175.717 84.5428 179.19 87.6961 179.058C90.8493 178.927 90.2314 175.717 90.2314 175.717L87.5457 168.759L87.4541 168.524L90.4381 162.89C90.4381 162.89 91.2605 160.42 91.4649 159.551C91.6694 158.683 92.7854 155.605 92.7854 155.605C92.7854 155.605 95.605 148.928 95.6638 148.125C95.7225 147.322 95.9387 142.986 96.4862 142.115C97.0336 141.244 98.5421 136.246 98.5421 136.246L98.5797 136.279C98.8356 136.53 99.0184 136.846 99.1086 137.193C99.1988 137.54 99.1931 137.904 99.0919 138.248C98.7465 139.516 98.9533 142.12 98.9533 142.12C98.9533 142.12 98.817 144.324 98.5421 145.46C98.2672 146.597 98.2014 155.877 98.6807 158.079C99.0637 159.842 99.052 163.143 99.0332 164.392C98.7113 165.719 98.4293 167.367 98.9533 167.562C99.8462 167.897 104.369 167.829 104.369 167.829C104.369 167.829 106.287 167.16 108.892 169.498C111.498 171.837 119.513 168.832 119.513 168.832C119.513 168.832 121.98 168.163 117.114 166.228C113.719 164.878 111.526 163.979 110.093 163.016C110.126 162.953 110.161 162.89 110.192 162.822C110.192 162.822 108.204 160.943 109.849 157.614C111.493 154.285 111.425 151.47 111.425 151.47L111.7 140.251L110.878 125.357L110.241 109.726L110.354 109.689C110.462 112.562 111.023 119.403 113.963 118.077C117.664 116.408 114.51 112.067 114.51 112.067L112.849 108.832L113.345 108.663L111.486 102.662C111.308 101.491 111.284 100.301 111.416 99.1241C111.453 98.4354 111.439 97.7448 111.374 97.0582C113.808 96.6332 116.139 96.1825 116.557 96.2858C117.05 96.4055 119.811 96.429 120.897 96.4337C120.542 96.7107 120.258 96.9854 120.258 96.9854L124.677 99.9576C124.677 99.9576 126.176 99.1382 126.489 98.2696C126.796 98.1918 127.08 98.0403 127.316 97.8282C127.363 98.8541 127.636 99.9646 128.585 99.9904C128.822 99.9954 129.058 99.9489 129.276 99.8543L136.503 98.4245L135.883 102.296L136.315 103.064C136.097 106.329 135.845 109.797 135.624 112.846L135.523 113.513L135.575 113.525C135.232 118.22 134.957 121.777 134.957 121.777C135.362 121.006 135.99 120.375 136.759 119.967L136.806 126.935C136.806 126.935 137.168 137.952 137.168 139.455C137.168 140.958 137.217 144.312 137.217 144.312C137.217 144.312 137.991 148.418 138.451 149.771C138.912 151.123 139.273 157.283 139.273 157.283C139.273 157.283 140.354 158.985 139.891 159.631C139.428 160.277 141.691 161.683 141.691 161.683C141.691 161.683 140.251 163.636 140.147 164.939C140.136 165.089 140.284 165.249 140.552 165.409C140.467 165.477 140.38 165.545 140.284 165.611C139.616 166.057 138.639 166.367 137.168 166.24C133.157 165.888 130.331 169.595 132.798 170.346C135.265 171.097 142.666 171.247 142.666 171.247C142.666 171.247 144.908 169.851 146.661 170.48C146.635 171.949 146.708 173.297 146.719 173.475L146.698 173.492C145.65 174.431 143.644 176.046 141.684 176.706C138.865 177.657 138.24 181.514 141.889 182.014C145.538 182.514 150.883 181.413 150.883 181.413C150.883 181.413 153.658 179.361 155.766 178.91C157.873 178.459 159.673 177.457 159.314 176.255C159.079 175.487 158.475 173.475 158.066 172.123C158.042 172.042 158.019 171.963 157.996 171.888C158.059 171.747 158.122 171.602 158.181 171.452C158.181 171.452 157.103 165.843 157.977 164.441C158.851 163.04 158.388 149.015 158.388 149.015C158.388 149.015 156.896 145.46 157.669 143.308C158.442 141.155 156.435 138.098 156.435 138.098C156.435 138.098 156.654 131.973 157.241 128.559C157.268 128.414 157.294 128.273 157.319 128.137C158.302 127.845 159.261 127.475 160.185 127.031C160.185 127.031 160.7 119.317 161.008 117.565C161.038 117.401 161.081 117.136 161.132 116.79L161.367 115.553L161.645 114.145L162.584 109.344L164.281 107.151L168.651 102.69C168.651 102.69 169.701 100.333 169.187 95.8749ZM101.789 68.3295L101.756 68.353C101.751 68.336 101.747 68.3188 101.745 68.3013C101.758 68.3126 101.773 68.322 101.789 68.3295ZM144.969 73.7973L144.8 74.1659L145.418 73.5508L144.579 74.4898L144.861 73.8982L144.969 73.7973ZM140.796 82.4133C140.634 82.8429 140.46 83.3078 140.279 83.7914L140.61 82.803L140.796 82.4133Z" fill="url(#paint0_linear)"/>
<path d="M127.311 96.4595C127.311 96.4595 126.736 100.289 128.463 100.338C130.19 100.387 131.343 97.3845 131.343 97.3845L130.638 94.9828L127.311 96.4595Z" fill="#585B8A"/>
<path opacity="0.2" d="M127.311 96.4595C127.311 96.4595 126.736 100.289 128.463 100.338C130.19 100.387 131.343 97.3845 131.343 97.3845L130.638 94.9828L127.311 96.4595Z" fill="black"/>
<path d="M88.6291 179.342C85.5557 179.476 81.5472 176.006 81.5472 176.006L81.3475 172.402C81.3475 172.402 81.082 172.536 80.5462 171.736C80.1867 171.198 80.7037 168.97 81.082 167.569C81.2652 166.883 81.4156 166.395 81.4156 166.395L88.1591 168.198L88.481 169.05L91.0986 176.004C91.0986 176.004 91.7001 179.208 88.6291 179.342Z" fill="#636992"/>
<path d="M119.614 169.134C119.614 169.134 111.801 172.137 109.275 169.801C106.75 167.465 104.868 168.132 104.868 168.132C104.868 168.132 100.46 168.2 99.5902 167.864C99.078 167.67 99.3552 166 99.6748 164.672C99.8909 163.754 100.126 162.995 100.126 162.995C100.126 162.995 107.805 160.392 109.008 161.993C109.369 162.463 109.801 162.875 110.288 163.214C111.679 164.218 113.853 165.129 117.29 166.531C122.018 168.465 119.614 169.134 119.614 169.134Z" fill="#636992"/>
<path d="M112.603 108.144L114.739 112.414C114.739 112.414 117.812 116.753 114.205 118.42C110.598 120.087 110.667 108.813 110.667 108.813L112.603 108.144Z" fill="#FFD6D6"/>
<path d="M103.653 71.1115C103.653 71.1115 105.991 72.1797 107.393 76.6497C108.796 81.1197 110.667 88.7286 110.667 88.7286C110.667 88.7286 111.935 97.3352 111.733 99.4716C111.605 100.648 111.628 101.836 111.801 103.007L113.604 109.013L109.997 110.28L104.454 89.0619L103.653 71.1115Z" fill="#DCE6F2"/>
<path opacity="0.05" d="M103.653 71.1115C103.653 71.1115 105.991 72.1797 107.393 76.6497C108.796 81.1197 110.667 88.7286 110.667 88.7286C110.667 88.7286 111.935 97.3352 111.733 99.4716C111.605 100.648 111.628 101.836 111.801 103.007L113.604 109.013L109.997 110.28L104.454 89.0619L103.653 71.1115Z" fill="black"/>
<path opacity="0.1" d="M88.1594 168.2L88.4813 169.052L88.0866 169.806C86.5499 170.473 82.7435 169.94 82.7435 169.94C82.7435 169.94 82.0386 169.045 81.0752 167.573C81.2585 166.888 81.4088 166.399 81.4088 166.399L88.1594 168.2Z" fill="black"/>
<path opacity="0.1" d="M110.533 163.528C108.585 167.937 101.964 166.301 100.124 165.749C99.8206 165.658 99.6538 165.597 99.6538 165.597C99.6538 165.597 99.6656 165.237 99.6703 164.672C99.8864 163.754 100.121 162.995 100.121 162.995C100.121 162.995 107.8 160.392 109.003 161.993C109.364 162.463 109.796 162.875 110.284 163.214C110.357 163.326 110.441 163.431 110.533 163.528Z" fill="black"/>
<path d="M110.196 157.924C108.594 161.258 110.532 163.129 110.532 163.129C108.585 167.536 101.963 165.902 100.123 165.348C99.8203 165.258 99.6535 165.197 99.6535 165.197C99.6535 165.197 99.7874 160.591 99.3199 158.389C98.8523 156.187 98.9181 146.914 99.1859 145.78C99.4538 144.646 99.5854 142.441 99.5854 142.441C99.5854 142.441 99.3856 139.84 99.7193 138.572C99.8197 138.23 99.8264 137.867 99.7388 137.521C99.6512 137.175 99.4725 136.858 99.2212 136.605L99.1859 136.57C99.1859 136.57 97.7174 141.575 97.1817 142.439C96.6459 143.303 96.4486 147.644 96.3804 148.444C96.3123 149.245 93.5749 155.919 93.5749 155.919C93.5749 155.919 92.5082 158.988 92.3085 159.854C92.1088 160.72 91.3052 163.192 91.3052 163.192L88.0861 169.4C86.5495 170.066 82.743 169.534 82.743 169.534C82.743 169.534 82.0099 168.594 81.0066 167.064C80.0033 165.533 79.5381 160.126 79.5381 160.126C79.5381 160.126 83.2106 160.058 82.2754 156.523C81.3403 152.987 83.0767 150.25 83.0109 149.048C82.9451 147.846 83.8121 143.911 84.2797 143.31C84.7473 142.709 84.6791 140.173 84.5452 138.772C84.4113 137.37 84.4794 132.433 84.4794 132.433C84.4794 132.433 84.6133 130.231 85.2806 129.231C85.948 128.231 85.6824 125.359 85.6824 125.359C85.6824 125.359 86.9489 124.693 86.0819 118.22C85.2149 111.748 87.4917 103.341 87.4917 103.341L87.5692 102.167L87.6914 100.265C87.6914 100.265 106.792 99.063 108.328 100.53C108.73 100.938 109.06 101.41 109.304 101.927C109.829 103.056 110.201 104.251 110.408 105.479L111.209 125.698L112.01 140.577L111.742 151.787C111.742 151.787 111.801 154.586 110.196 157.924Z" fill="#565988"/>
<path opacity="0.1" d="M104.534 118.021L102.53 161.392L100.124 165.345C99.8204 165.256 99.6536 165.195 99.6536 165.195C99.6536 165.195 99.7875 160.589 99.3199 158.387C98.8523 156.185 98.9181 146.911 99.186 145.777C99.4538 144.643 99.5854 142.439 99.5854 142.439C99.5854 142.439 99.3857 139.838 99.7194 138.57C99.8198 138.227 99.8265 137.864 99.7389 137.518C99.6513 137.172 99.4726 136.856 99.2212 136.603L99.2541 136.368L104.534 118.021Z" fill="black"/>
<path opacity="0.1" d="M82.9499 164.596C82.9499 164.596 88.1591 162.528 88.9604 163.188C89.7616 163.847 82.8184 164.855 82.8184 164.855L82.9499 164.596Z" fill="black"/>
<path opacity="0.1" d="M108.663 159.124C108.463 159.192 103.388 161.002 103.855 162.927C104.323 164.852 108.663 159.124 108.663 159.124Z" fill="black"/>
<path d="M92.8022 60.4037C92.8022 60.4037 94.5034 64.5074 93.6035 66.611C92.7036 68.7145 103.319 72.3159 103.319 72.3159C103.319 72.3159 100.215 64.3079 103.221 59.8027C106.226 55.2975 92.8022 60.4037 92.8022 60.4037Z" fill="#FFD6D6"/>
<path d="M154.96 179.208C152.906 179.659 150.202 181.711 150.202 181.711C150.202 181.711 144.993 182.812 141.435 182.312C137.878 181.812 138.482 177.957 141.236 177.006C143.146 176.349 145.103 174.727 146.125 173.797C146.576 173.381 146.844 173.093 146.844 173.093L156.814 171.09C156.814 171.09 156.976 171.646 157.201 172.414C157.601 173.769 158.191 175.778 158.416 176.544C158.766 177.758 157.014 178.758 154.96 179.208Z" fill="#505484"/>
<path d="M152.406 171.501C152.406 171.501 148.198 171.952 146.445 170.952C144.692 169.951 142.187 171.553 142.187 171.553C142.187 171.553 134.974 171.402 132.57 170.651C130.167 169.9 132.92 166.19 136.828 166.547C138.252 166.676 139.215 166.364 139.866 165.918C140.546 165.453 141.02 164.743 141.189 163.937L149.648 164.437L150.822 167.432L152.406 171.501Z" fill="#505484"/>
<path opacity="0.1" d="M150.951 168.799C150.951 168.799 141.12 167.193 139.866 165.918C140.546 165.453 141.019 164.743 141.189 163.937L149.647 164.437L150.822 167.432L150.951 168.799Z" fill="black"/>
<path d="M136.376 112.6L136.477 127.261C136.477 127.261 136.828 138.272 136.828 139.774C136.828 141.277 136.877 144.627 136.877 144.627C136.877 144.627 137.629 148.731 138.08 150.083C138.531 151.435 138.881 157.596 138.881 157.596C138.881 157.596 139.934 159.298 139.483 159.943C139.032 160.589 141.236 161.995 141.236 161.995C141.236 161.995 139.826 163.948 139.734 165.249C139.642 166.55 150.951 168.397 150.951 168.397L146.546 123.258L143.038 111.95L136.376 112.6Z" fill="#575988"/>
<path opacity="0.1" d="M136.376 112.6L136.477 127.261C136.477 127.261 136.828 138.272 136.828 139.774C136.828 141.277 136.877 144.627 136.877 144.627C136.877 144.627 137.629 148.731 138.08 150.083C138.531 151.435 138.881 157.596 138.881 157.596C138.881 157.596 139.934 159.298 139.483 159.943C139.032 160.589 141.236 161.995 141.236 161.995C141.236 161.995 139.826 163.948 139.734 165.249C139.642 166.55 150.951 168.397 150.951 168.397L146.546 123.258L143.038 111.95L136.376 112.6Z" fill="black"/>
<path opacity="0.1" d="M157.202 172.426C153.929 180.223 146.144 174.205 146.144 174.205C146.144 174.205 146.144 174.055 146.125 173.797C146.577 173.381 146.844 173.093 146.844 173.093L156.814 171.09C156.814 171.09 156.976 171.658 157.202 172.426Z" fill="black"/>
<path d="M157.314 171.752C154.107 179.969 146.144 173.804 146.144 173.804C146.144 173.804 145.893 169.55 146.395 167.599C146.898 165.648 145.843 159.791 145.843 159.791C145.843 159.791 145.242 154.586 144.692 153.386C144.142 152.186 144.191 149.782 144.191 149.583C144.191 149.383 144.391 147.78 143.94 146.679C143.489 145.578 143.235 142.876 143.235 142.876C143.235 142.876 143.235 139.072 142.784 136.821L141.231 129.074L138.425 113.208L139.302 113.058L155.004 110.306C155.004 110.306 157.96 125.331 156.957 126.871C156.741 127.209 156.551 127.949 156.393 128.902C155.82 132.311 155.606 138.431 155.606 138.431C155.606 138.431 157.559 141.483 156.809 143.636C156.059 145.789 157.514 149.341 157.514 149.341C157.514 149.341 157.965 163.354 157.112 164.756C156.259 166.158 157.314 171.752 157.314 171.752Z" fill="#575988"/>
<path d="M155.81 69.3108C155.81 69.3108 141.586 79.319 144.79 74.3138C146.517 71.6186 146.2 68.1863 145.524 65.5945C145.181 64.2762 144.709 62.9951 144.114 61.7701C144.114 61.7701 156.2 56.6333 154.598 61.2371C154.222 62.3097 154.063 63.4458 154.128 64.5803C154.224 66.2855 154.808 67.9274 155.81 69.3108Z" fill="#D28690"/>
<path d="M130.199 92.2313C130.199 92.2313 124.189 90.4964 123.188 92.1984C122.187 93.9005 123.489 97.6357 125.303 98.2367C127.116 98.8377 131.28 96.2012 131.28 96.2012L130.199 92.2313Z" fill="#D28690"/>
<path d="M137.079 89.2802L134.574 91.5833C134.574 91.5833 130.216 91.9824 128.963 91.6819C128.963 91.6819 130.117 99.3894 128.463 100.34L138.581 98.2883L137.079 89.2802Z" fill="#585B8A"/>
<path opacity="0.1" d="M137.079 89.2802L134.574 91.5833C134.574 91.5833 130.216 91.9824 128.963 91.6819C128.963 91.6819 130.117 99.3894 128.463 100.34L138.581 98.2883L137.079 89.2802Z" fill="black"/>
<path opacity="0.1" d="M104.922 56.199C104.922 58.1915 104.129 60.1023 102.719 61.5112C101.309 62.9201 99.3968 63.7116 97.4027 63.7116C93.5446 61.8593 89.8838 60.3521 89.8838 56.199C89.8438 55.1882 90.0085 54.1798 90.368 53.2342C90.7276 52.2885 91.2745 51.4252 91.9761 50.6959C92.6777 49.9666 93.5195 49.3864 94.451 48.9901C95.3824 48.5938 96.3844 48.3895 97.3968 48.3895C98.4092 48.3895 99.4112 48.5938 100.343 48.9901C101.274 49.3864 102.116 49.9666 102.818 50.6959C103.519 51.4252 104.066 52.2885 104.426 53.2342C104.785 54.1798 104.95 55.1882 104.91 56.199H104.922Z" fill="black"/>
<path d="M104.922 55.9971C104.923 57.7639 104.3 59.4743 103.162 60.8268C102.024 62.1793 100.445 63.0868 98.7026 63.3895C96.9604 63.6922 95.1673 63.3705 93.6393 62.4812C92.1114 61.5918 90.9468 60.192 90.351 58.5285C89.7552 56.865 89.7663 55.0448 90.3826 53.3887C90.9988 51.7327 92.1805 50.3472 93.7192 49.4767C95.2579 48.6062 97.0549 48.3065 98.7932 48.6305C100.531 48.9545 102.099 49.8814 103.221 51.2477C104.319 52.5876 104.919 54.2654 104.922 55.9971Z" fill="#FFD6D6"/>
<path opacity="0.1" d="M109.304 101.934C108.56 102.396 107.781 102.799 106.975 103.141C106.975 103.141 103.169 102.589 102.619 103.24C102.069 103.89 97.2149 104.141 97.2149 104.141C97.2149 104.141 89.8017 103.791 88.6997 102.84C88.359 102.565 87.9798 102.34 87.5742 102.174L87.6964 100.272C87.6964 100.272 106.797 99.0701 108.333 100.537C108.733 100.945 109.062 101.417 109.304 101.934Z" fill="black"/>
<path d="M110.232 100.589C110.082 101.439 106.975 102.74 106.975 102.74C106.975 102.74 103.169 102.19 102.619 102.841C102.069 103.491 97.2149 103.742 97.2149 103.742C97.2149 103.742 89.8017 103.39 88.6997 102.439C87.5977 101.488 85.1423 101.03 85.1423 101.03C85.1423 101.03 83.89 92.1233 84.3928 90.1724C84.8956 88.2215 83.6409 82.8641 83.3401 80.9624C83.0394 79.0608 84.1907 73.8067 85.5935 72.9568C86.9962 72.107 89.0005 69.2522 90.2011 68.4023C91.2138 67.6863 92.3323 66.7589 92.6589 66.4796L92.7552 66.3997C92.7552 66.3997 92.9573 64.8479 93.7585 64.052C94.5598 63.2562 101.921 69.1066 101.921 69.1066C101.921 69.1066 101.973 69.5574 102.473 68.7075C102.586 68.5173 103.557 69.9166 103.726 70.5082C103.726 70.5082 107.732 77.516 107.983 78.9599C108.235 80.4037 109.285 85.1155 109.485 86.2659C109.536 86.5617 109.621 87.5993 109.72 88.9892C109.739 89.2615 109.755 89.5503 109.776 89.8508C109.924 92.1562 110.084 95.1002 110.18 97.3258C110.18 97.5793 110.201 97.8235 110.208 98.0583C110.259 98.9009 110.267 99.7456 110.232 100.589Z" fill="#DCE6F2"/>
<path opacity="0.1" d="M84.7969 82.5212C84.7969 82.5212 87.5507 85.8737 88.4529 85.8737C89.3552 85.8737 84.7969 82.5212 84.7969 82.5212Z" fill="black"/>
<path opacity="0.1" d="M90.598 89.7287C90.598 89.7287 86.089 94.633 86.6905 95.5345C87.292 96.436 90.598 89.7287 90.598 89.7287Z" fill="black"/>
<path opacity="0.1" d="M87.292 99.488C87.292 99.488 92.4612 93.8324 92.6962 91.8815L87.292 99.488Z" fill="black"/>
<path opacity="0.1" d="M93.8032 99.8871C93.8032 99.8871 99.7643 96.7342 100.265 94.2315C100.765 91.7289 93.8032 99.8871 93.8032 99.8871Z" fill="black"/>
<path opacity="0.1" d="M101.367 69.4611L100.54 71.4613L101.916 72.1116L103.27 75.8914C103.27 75.8914 107.001 83.3476 106.851 87.226C106.7 91.1044 107.527 96.9337 107.527 96.9337L109.68 96.5346L108.665 85.1272C108.507 83.361 108.064 81.6319 107.354 80.0069C105.634 76.0722 102.433 68.8084 102.231 68.8084C101.956 68.8084 102.149 68.9094 102.149 68.9094L101.367 69.4611Z" fill="black"/>
<path d="M101.566 69.2592L100.739 71.2617L102.119 71.912L103.47 75.6918C103.47 75.6918 107.201 83.1481 107.05 87.0265C106.9 90.9048 107.727 96.7341 107.727 96.7341L109.882 96.335L108.864 84.9276C108.708 83.1614 108.266 81.4321 107.556 79.8073C105.836 75.8702 102.635 68.6089 102.436 68.6089C102.158 68.6089 102.351 68.7098 102.351 68.7098L101.566 69.2592Z" fill="#575989"/>
<path d="M125.958 98.671C124.91 98.5912 122.396 97.3211 121.398 96.7928L120.975 96.5581L121.026 92.682C121.273 92.537 121.529 92.4076 121.792 92.2947C123.127 91.7124 125.864 90.9213 127.236 93.4685C129.088 96.8844 127.286 98.7602 125.958 98.671Z" fill="#FFD6D6"/>
<path opacity="0.1" d="M103.221 51.2477C103.113 51.3151 102.994 51.3635 102.87 51.3909C101.999 51.5811 101.007 50.8322 100.26 51.3135C99.8041 51.6093 99.6984 52.222 99.6373 52.762C99.5308 53.7011 99.4243 54.6339 99.3178 55.5604C99.2954 55.8903 99.2258 56.2152 99.111 56.5253C98.7421 57.3681 97.7294 57.7649 96.806 57.7508C96.4442 57.7765 96.087 57.6584 95.8121 57.4221C95.6499 57.2578 95.563 57.0277 95.3844 56.8775C94.2096 55.8938 93.8525 58.3049 94.1626 58.9904C94.6607 60.1102 96.43 61.1902 95.6875 62.6129C95.5627 62.8441 95.3733 63.0341 95.1424 63.1599C94.0235 62.8098 93.0021 62.203 92.1597 61.3882C91.3173 60.5733 90.6773 59.5729 90.2908 58.4669C89.9043 57.3608 89.7821 56.1798 89.9339 55.0181C90.0856 53.8565 90.5072 52.7464 91.1649 51.7765C91.8226 50.8067 92.6982 50.004 93.7217 49.4325C94.7452 48.861 95.8884 48.5366 97.0597 48.4853C98.2311 48.4339 99.3983 48.6569 100.468 49.1366C101.538 49.6162 102.48 50.3392 103.221 51.2477Z" fill="black"/>
<path d="M95.1846 56.8681C95.3608 57.016 95.4501 57.2461 95.6122 57.4104C95.8873 57.6464 96.2445 57.7645 96.6061 57.7391C97.5296 57.7532 98.5423 57.3587 98.9088 56.5112C99.0257 56.2025 99.0962 55.8781 99.1179 55.5487L99.4375 52.7502C99.4986 52.2103 99.602 51.5975 100.06 51.3017C100.807 50.8322 101.799 51.5693 102.671 51.3792C102.985 51.2994 103.257 51.1031 103.431 50.8301C103.606 50.5571 103.67 50.228 103.61 49.9095C103.509 49.4611 103.166 49.1066 102.99 48.6793C102.883 48.351 102.798 48.0162 102.734 47.6769C102.248 45.8551 100.107 44.8315 98.2462 45.1367C97.2123 45.3081 96.2513 45.8011 95.2151 45.9513C94.4726 46.0593 93.7137 45.9889 92.9642 46.0687C92.2678 46.1405 91.5907 46.3403 90.967 46.658C90.8032 46.7304 90.6585 46.8397 90.544 46.9773C90.4376 47.1631 90.3659 47.3668 90.3326 47.5783C90.0811 48.5174 89.2729 49.2099 88.6878 50.0011C88.0186 50.9114 87.6314 51.9978 87.5741 53.1259C87.551 53.414 87.578 53.7039 87.6539 53.9828C87.7033 54.1471 87.7808 54.3068 87.8184 54.4758C87.9336 54.9899 87.6704 55.5041 87.5412 56.0159C87.3806 56.669 87.4384 57.3566 87.7056 57.9738C88.6079 60.0468 91.5802 60.7394 92.1982 62.9157C92.7469 63.1786 93.3396 63.3378 93.9463 63.3853C94.5525 63.397 95.2057 63.1364 95.4877 62.5988C96.2278 61.1902 94.4609 60.0961 93.9628 58.9786C93.6503 58.2908 94.0004 55.882 95.1846 56.8681Z" fill="#353045"/>
<path opacity="0.1" d="M154.61 61.2371C154.235 62.3097 154.075 63.4458 154.14 64.5803C153.778 64.8878 153.384 63.9675 152.965 64.2046C151.819 64.8667 150.493 66.442 149.074 66.442C147.844 66.4428 146.63 66.1523 145.533 65.5945C145.191 64.2762 144.719 62.9951 144.124 61.7701C144.124 61.7701 156.213 56.6333 154.61 61.2371Z" fill="black"/>
<path d="M156.879 58.2345C156.879 59.7788 156.421 61.2885 155.562 62.5726C154.704 63.8567 153.483 64.8575 152.055 65.4485C150.627 66.0395 149.056 66.1941 147.54 65.8928C146.024 65.5915 144.631 64.8479 143.538 63.7558C142.446 62.6638 141.701 61.2725 141.4 59.7578C141.098 58.2431 141.253 56.6731 141.844 55.2463C142.436 53.8195 143.438 52.6 144.723 51.742C146.008 50.884 147.519 50.4261 149.064 50.4261C150.091 50.4257 151.107 50.6275 152.056 51.0198C153.004 51.4121 153.865 51.9873 154.591 52.7124C155.317 53.4375 155.893 54.2985 156.285 55.2459C156.678 56.1934 156.88 57.209 156.879 58.2345Z" fill="#D28690"/>
<path d="M156.546 71.0458C156.546 71.0458 155.075 72.6469 154.875 72.7784C154.676 72.9099 150.411 90.8556 150.336 91.0645C150.261 91.2735 145.258 107.477 145.258 107.477L137.244 111.414L137.913 91.5951L143.787 75.2505C143.787 75.2505 145.726 73.0484 146.325 72.2478C146.924 71.4473 154.406 66.6415 154.406 66.6415L155.684 69.2733L156.546 71.0458Z" fill="#F0F3F7"/>
<path opacity="0.1" d="M155.486 69.6747L146.271 76.267L146.123 72.6469C146.725 71.8463 154.204 67.043 154.204 67.043L155.486 69.6747Z" fill="black"/>
<path d="M155.686 69.2733L146.47 75.8656L146.327 72.2478C146.929 71.4449 154.408 66.6415 154.408 66.6415L155.686 69.2733Z" fill="#F0F3F7"/>
<path d="M146.02 70.6373L146.327 72.2478L144.267 74.3396L145.912 70.6607C145.912 70.6607 142.387 73.1141 141.33 73.7644C140.272 74.4147 139.215 76.6168 139.175 77.2178C139.135 77.8188 137.472 86.8762 137.472 86.8762C137.472 86.8762 136.219 90.2287 136.572 91.1795C136.924 92.1303 134.668 122.108 134.668 122.108C134.97 121.526 135.396 121.017 135.917 120.618C136.438 120.219 137.04 119.94 137.681 119.8L136.877 102.085C136.877 102.085 137.855 90.2991 137.904 90.1489C137.953 89.9986 140.183 83.1669 140.183 83.1669L146.02 70.6373Z" fill="#585B8A"/>
<path opacity="0.1" d="M146.529 72.4473L146.369 75.7341C146.369 75.7341 144.14 82.7654 143.39 83.9158C142.64 85.0661 140.359 91.9237 140.359 91.9237L139.074 103.836L136.87 104.838L135.784 102.84L137.589 91.3368C137.589 91.3368 140.993 81.6291 141.496 80.6267L144.008 75.3397L146.529 72.4473Z" fill="black"/>
<path d="M146.327 72.2478L146.17 75.5346C146.17 75.5346 143.94 82.5659 143.188 83.7162C142.436 84.8666 140.159 91.7242 140.159 91.7242L138.881 103.634L136.677 104.634L135.575 102.634L137.38 91.1302C137.38 91.1302 140.784 81.4202 141.285 80.4201L143.815 75.1401L146.327 72.2478Z" fill="#663D5C"/>
<path d="M120.35 97.3352L124.657 100.314C124.657 100.314 127.695 98.6123 125.925 97.5112C124.156 96.4102 122.586 96.2435 122.018 96.2435C121.449 96.2435 120.35 97.3352 120.35 97.3352Z" fill="#D28690"/>
<path d="M123.566 91.8275C123.47 91.8873 123.391 91.9707 123.336 92.0697C123.282 92.1688 123.253 92.2802 123.254 92.3933C123.254 93.3065 123.357 95.7247 124.123 94.633C125.063 93.2971 124.892 92.0975 126.327 92.9638C127.22 93.519 128 94.2356 128.63 95.0767L128.23 92.2078C128.23 92.2078 125.279 90.7523 123.566 91.8275Z" fill="#D28690"/>
<path opacity="0.1" d="M156.962 126.862C156.746 127.2 156.556 127.94 156.398 128.893C147.615 131.525 141.189 125.96 141.189 125.96C140.411 123.328 139.776 120.656 139.286 117.955C139.128 117.03 139.163 115.236 139.309 113.048L155.012 110.297C155.012 110.297 157.965 125.31 156.962 126.862Z" fill="black"/>
<path d="M165.977 82.0705C165.578 83.3734 165.728 86.024 165.728 86.024L162.122 103.04C162.122 103.04 160.369 116.152 160.068 117.903C159.767 119.655 159.267 127.362 159.267 127.362C149.048 132.367 141.174 125.561 141.174 125.561C140.397 122.928 139.762 120.255 139.271 117.553C138.768 114.581 140.249 102.674 140.949 97.3844C141.158 95.8185 141.299 94.8325 141.299 94.8325L143.928 85.0732C143.928 85.0732 147.159 76.8398 148.362 74.4382C149.565 72.0365 154.396 66.6415 154.396 66.6415C154.995 66.2612 155.954 67.604 156.666 68.8272C157.204 69.7522 157.605 70.6114 157.605 70.6114C157.605 70.6114 163.616 73.2127 164.516 74.6025C165.416 75.9923 165.268 78.8565 165.369 79.0067C165.47 79.157 166.379 80.7699 165.977 82.0705Z" fill="#585B8A"/>
<path opacity="0.1" d="M151.805 76.0158C151.805 76.0158 152.256 78.6687 151.1 79.4692C149.984 80.244 141.675 96.5674 141.158 97.5863C141.367 96.0181 141.508 95.0321 141.508 95.0321L144.138 85.2751C144.138 85.2751 147.371 77.0417 148.571 74.6377C149.772 72.2337 154.608 66.841 154.608 66.841C155.207 66.4607 156.163 67.8036 156.875 69.0267C155.801 71.2547 153.562 75.4664 151.805 76.0158Z" fill="black"/>
<path d="M151.605 75.8162C151.605 75.8162 152.053 78.4691 150.9 79.2697C149.746 80.0702 141.478 96.3655 140.954 97.3844C141.163 95.8185 141.304 94.8325 141.304 94.8325L143.933 85.0732C143.933 85.0732 147.164 76.8398 148.367 74.4382C149.57 72.0365 154.401 66.6415 154.401 66.6415C155 66.2612 155.959 67.604 156.67 68.8272C155.601 71.0528 153.36 75.2669 151.605 75.8162Z" fill="#585B8A"/>
<path d="M163.524 99.7885L160.698 114.483V114.485L160.428 115.891V115.894L159.819 119.056L157.223 118.507L156.013 118.251L139.267 114.706L138.035 114.445L135.225 113.851L135.775 110.203L136.003 108.686L138.031 95.2339L163.524 99.7885Z" fill="#FFD037"/>
<path d="M147.897 111.799C147.897 111.799 141.235 114.201 142.688 117.053C144.14 119.906 153.456 114.851 153.456 114.851L147.897 111.799Z" fill="#D28690"/>
<path opacity="0.1" d="M152.655 132.266C152.655 132.466 152.906 135.02 153.907 135.919C154.908 136.819 152.655 132.266 152.655 132.266Z" fill="black"/>
<path opacity="0.1" d="M145.944 141.324C145.944 141.324 147.145 144.627 151.903 145.979C156.661 147.331 145.944 141.324 145.944 141.324Z" fill="black"/>
<path opacity="0.1" d="M156.88 58.2345C156.88 59.6071 156.518 60.9556 155.83 62.1439C155.143 63.3322 154.154 64.3184 152.963 65.0028C152.514 64.7519 152.116 64.4199 151.788 64.0238C151.447 63.6107 151.182 63.0472 151.386 62.5542C151.551 62.1574 151.985 61.9062 152.091 61.4954C152.141 61.2441 152.128 60.9845 152.054 60.7394C151.967 60.3521 151.884 59.9647 151.8 59.5797C151.727 59.251 151.598 58.8636 151.271 58.7838C150.944 58.704 150.672 58.9763 150.416 59.1782C149.788 59.6736 148.585 60.0093 147.831 59.6031C147.077 59.197 147.288 57.8377 147.166 57.1029C147.165 57.039 147.149 56.9763 147.121 56.9191C147.092 56.8619 147.052 56.8116 147.002 56.7718C146.892 56.7354 146.775 56.7274 146.661 56.7484C146.255 56.7484 145.928 56.3845 145.81 55.9948C145.727 55.5969 145.682 55.1921 145.674 54.7857C145.63 54.3795 145.482 53.9499 145.134 53.741C144.856 53.6118 144.548 53.5614 144.243 53.5954L142.77 53.6119C143.747 52.2917 145.116 51.3129 146.682 50.8148C148.248 50.3167 149.932 50.3245 151.493 50.8373C153.054 51.35 154.414 52.3415 155.379 53.6707C156.344 55 156.865 56.5994 156.868 58.2415L156.88 58.2345Z" fill="black"/>
<path d="M150.625 59.1782C150.881 58.9763 151.163 58.7087 151.48 58.7861C151.797 58.8636 151.934 59.2557 152.007 59.5797L152.26 60.7371C152.335 60.9828 152.349 61.2431 152.3 61.4954C152.18 61.9086 151.748 62.1574 151.581 62.5542C151.377 63.0472 151.645 63.6106 151.983 64.0215C152.6 64.7647 153.454 65.2742 154.401 65.4653C154.648 65.5247 154.905 65.5303 155.155 65.4818C155.714 65.3526 156.095 64.8385 156.396 64.3572C157.949 61.9391 159.286 59.2886 159.558 56.4291C159.633 55.8458 159.606 55.2541 159.479 54.68C159.351 54.2339 159.171 53.8044 158.943 53.4006C158.543 52.5755 158.035 51.8073 157.432 51.1163C156.363 49.9659 154.887 49.2592 153.372 48.8413C151.667 48.3687 149.887 48.2292 148.13 48.4305C147.66 48.4845 147.209 48.562 146.746 48.5925C146.165 48.6195 145.582 48.6101 145.002 48.5643L141.544 48.3577C141.346 48.7592 141.544 49.2358 141.779 49.6114C142.013 49.987 142.305 50.3767 142.286 50.8228C142.267 51.2689 141.95 51.621 141.706 51.9966C141.461 52.3723 141.276 52.8582 141.52 53.2245C141.764 53.5907 142.263 53.6142 142.695 53.6095L144.438 53.5907C144.742 53.5595 145.048 53.6123 145.324 53.7433C145.672 53.9523 145.82 54.3842 145.865 54.788C145.874 55.1943 145.92 55.5989 146.001 55.9971C146.121 56.3868 146.445 56.7554 146.851 56.7507C146.965 56.728 147.083 56.7369 147.192 56.7765C147.242 56.8159 147.283 56.8657 147.311 56.9225C147.34 56.9793 147.355 57.0417 147.357 57.1052C147.479 57.84 147.253 59.197 148.022 59.6055C148.79 60.014 149.998 59.6736 150.625 59.1782Z" fill="#663D5C"/>
<path opacity="0.1" d="M160.557 74.6001C159.693 74.5085 158.823 74.713 158.091 75.1801C157.359 75.6472 156.807 76.3492 156.527 77.1709C155.587 79.8449 154.02 84.6694 154.412 86.5757C154.965 89.2779 155.616 93.7831 155.616 93.7831C155.616 93.7831 158.47 95.4265 157.025 97.0839C155.58 98.7414 155.171 101.089 155.171 101.089C155.171 101.089 153.318 101.89 152.918 103.592C152.519 105.294 149.812 107.644 149.812 107.644L145.756 111.698C145.756 111.698 152.467 118.507 153.82 118.854L157.977 113.999L162.885 107.494L167.143 103.033C167.143 103.033 168.144 100.685 167.643 96.2247C167.143 91.7641 165.188 87.5171 165.188 87.5171L165.338 86.0146C165.338 86.0146 165.799 75.2505 160.557 74.6001Z" fill="black"/>
<path d="M160.956 74.6002C160.093 74.5096 159.225 74.7146 158.494 75.1817C157.762 75.6487 157.211 76.3501 156.931 77.1709C155.992 79.8449 154.424 84.6694 154.817 86.5757C155.367 89.2779 156.017 93.7831 156.017 93.7831C156.017 93.7831 158.872 95.4265 157.427 97.0839C155.982 98.7414 155.576 101.089 155.576 101.089C155.576 101.089 153.722 101.89 153.32 103.592C152.918 105.294 150.216 107.644 150.216 107.644L146.158 111.698C146.158 111.698 152.869 118.507 154.222 118.854L158.379 113.999L163.275 107.494L167.533 103.033C167.533 103.033 168.536 100.685 168.034 96.2247C167.531 91.7641 165.58 87.5171 165.58 87.5171L165.731 86.0146C165.731 86.0146 166.198 75.2505 160.956 74.6002Z" fill="#585B8A"/>
<path opacity="0.1" d="M156.762 89.8296C156.762 89.8296 161.02 95.0321 162.824 93.8817C164.629 92.7313 156.762 89.8296 156.762 89.8296Z" fill="black"/>
<path opacity="0.1" d="M158.365 85.8245C158.816 85.9747 162.524 91.1302 164.427 90.5198C166.33 89.9094 158.365 85.8245 158.365 85.8245Z" fill="black"/>
<path opacity="0.1" d="M159.417 94.68C159.417 94.68 159.669 97.6334 162.723 97.2319C165.778 96.8304 159.417 94.68 159.417 94.68Z" fill="black"/>
<path opacity="0.1" d="M145.918 70.8603L144.267 74.5391L146.33 72.4473L145.918 70.8603Z" fill="black"/>
<path d="M145.918 70.6607L144.267 74.3396L146.33 72.2478L145.918 70.6607Z" fill="#F0F3F7"/>
<path opacity="0.3" d="M139.267 114.706L138.035 114.445L135.775 110.203L136.003 108.686L139.267 114.706Z" fill="black"/>
<path opacity="0.3" d="M160.698 114.485L160.428 115.891V115.894L157.223 118.507L156.013 118.251L160.698 114.485Z" fill="black"/>
<path opacity="0.1" d="M110.201 98.0676C109.581 98.1709 108.979 98.2649 108.43 98.3353C105.375 98.7367 98.1099 95.133 98.1099 95.133C98.1099 95.133 89.2446 87.7261 86.6905 80.7206C84.1365 73.7151 89.7451 72.6633 89.7451 72.6633C91.8598 71.4613 96.4581 74.8138 97.1089 75.3655C97.7598 75.9172 98.3119 77.3164 98.2602 78.218C98.2086 79.1195 99.764 80.2698 99.764 80.2698C99.764 80.2698 102.419 84.8736 103.07 85.3737C103.721 85.8738 103.871 86.3245 104.071 87.1767C104.271 88.0289 106.024 88.7285 106.775 88.6769C107.527 88.6252 108.42 88.9281 108.42 89.3272C108.42 89.6488 109.156 89.8085 109.759 89.8601C109.938 92.4262 110.114 95.788 110.201 98.0676Z" fill="black"/>
<path opacity="0.1" d="M110.173 97.3351C109.703 97.4103 109.252 97.4783 108.829 97.5347C105.775 97.9361 98.5117 94.3324 98.5117 94.3324C98.5117 94.3324 89.6465 86.9255 87.0924 79.92C84.5383 72.9145 90.1469 71.8627 90.1469 71.8627C92.2616 70.6607 96.8576 74.0132 97.5084 74.5649C98.1593 75.1166 98.7114 76.5158 98.6621 77.4174C98.6128 78.3189 100.164 79.4692 100.164 79.4692C100.164 79.4692 102.819 84.0731 103.47 84.5731C104.12 85.0732 104.271 85.5239 104.473 86.3761C104.675 87.2283 106.425 87.9256 107.177 87.8763C107.929 87.827 108.822 88.1275 108.822 88.5266C108.822 88.7614 109.24 88.9187 109.705 88.9962C109.724 89.2685 109.741 89.5572 109.762 89.8577C109.917 92.1655 110.077 95.1095 110.173 97.3351Z" fill="black"/>
<path opacity="0.1" d="M121.792 92.2946L121.602 96.7928H121.398L120.975 96.558L121.026 92.682C121.273 92.5369 121.529 92.4076 121.792 92.2946Z" fill="black"/>
<path d="M89.7451 72.2618C89.7451 72.2618 84.1365 73.3136 86.6905 80.3191C89.2446 87.3246 98.1099 94.7339 98.1099 94.7339C98.1099 94.7339 105.373 98.3352 108.43 97.9361C111.486 97.537 116.141 96.4853 116.743 96.6355C117.344 96.7858 121.402 96.7858 121.402 96.7858L121.602 92.0904L116.902 91.8392L114.499 91.3391C114.499 91.3391 113.646 90.6348 113.145 90.7381C112.645 90.8414 111.595 90.1371 111.595 90.1371C111.595 90.1371 110.791 89.4868 110.185 89.4868C109.579 89.4868 108.432 89.3366 108.432 88.9375C108.432 88.5384 107.53 88.2331 106.787 88.2871C106.045 88.3411 104.271 87.6368 104.064 86.7752C103.857 85.9136 103.714 85.4746 103.063 84.9746C102.412 84.4745 99.757 79.8683 99.757 79.8683C99.757 79.8683 98.2039 78.718 98.2532 77.8188C98.3025 76.9196 97.7527 75.5157 97.1019 74.964C96.451 74.4123 91.8457 71.0622 89.7451 72.2618Z" fill="#DCE6F2"/>
<path opacity="0.1" d="M104.172 88.3764C104.172 88.3764 102.018 90.5292 102.567 90.9283L104.172 88.3764Z" fill="black"/>
<path opacity="0.1" d="M106.475 90.0785C106.475 90.0785 103.669 92.2313 104.421 92.3815C105.173 92.5318 106.475 90.0785 106.475 90.0785Z" fill="black"/>
<path opacity="0.1" d="M101.714 93.2713C102.116 93.4732 108.075 97.0276 110.331 96.976L101.714 93.2713Z" fill="black"/>
<path opacity="0.1" d="M102.118 69.5104C102.118 69.5104 101.066 72.9638 100.664 72.9638C100.349 72.9638 95.0623 68.6864 92.856 66.888L92.9523 66.8082C92.9523 66.8082 93.152 65.2564 93.9533 64.4605C94.7545 63.6647 102.118 69.5104 102.118 69.5104Z" fill="black"/>
<path d="M101.917 69.109C101.917 69.109 100.866 72.5624 100.465 72.5624C100.147 72.5624 94.8606 68.2849 92.6543 66.4866L92.7506 66.4068C92.7506 66.4068 92.9527 64.855 93.7539 64.0591C94.5552 63.2632 101.917 69.109 101.917 69.109Z" fill="#DCE6F2"/>
<g opacity="0.15">
<path opacity="0.15" d="M87.7314 57.948C88.4363 59.5562 90.3772 60.3356 91.5027 61.6174C90.833 60.0421 88.8757 59.2697 87.7314 57.948Z" fill="black"/>
<path opacity="0.15" d="M94.9141 61.6526C94.6345 62.1903 93.9742 62.4509 93.3727 62.4391C92.838 62.4008 92.3144 62.2672 91.8267 62.0447C92.0036 62.3053 92.1384 62.5921 92.2261 62.8946C92.7747 63.158 93.3674 63.3172 93.9742 63.3641C94.5828 63.3782 95.236 63.1176 95.5156 62.5776C95.9644 61.7207 95.4968 60.9883 94.9493 60.2957C95.0514 60.5085 95.1014 60.7425 95.0953 60.9784C95.0891 61.2143 95.0271 61.4454 94.9141 61.6526Z" fill="black"/>
<path opacity="0.15" d="M103.634 49.8861C103.533 49.4353 103.19 49.0808 103.014 48.6559C102.906 48.3271 102.82 47.9914 102.758 47.6511C102.624 47.1698 102.377 46.7278 102.036 46.3622C102.084 46.4777 102.124 46.5961 102.156 46.7167C102.222 47.0585 102.31 47.3957 102.419 47.7262C102.596 48.1511 102.939 48.5056 103.04 48.9564C103.099 49.2748 103.035 49.6039 102.861 49.8769C102.686 50.1499 102.414 50.3462 102.1 50.426C101.23 50.6162 100.239 49.8649 99.4917 50.3486C99.0335 50.642 98.9277 51.2548 98.8667 51.7947C98.7617 52.7338 98.6552 53.6674 98.5471 54.5955C98.5259 54.9248 98.4562 55.2491 98.3403 55.5581C97.9714 56.4032 96.9587 56.8 96.0353 56.7859C95.6745 56.81 95.3186 56.692 95.0438 56.4572C94.9102 56.2682 94.7666 56.0864 94.6138 55.9126C93.4389 54.9265 93.0818 57.3376 93.3919 58.0255C93.5473 58.3349 93.7398 58.6243 93.9653 58.8871C93.7068 58.1124 94.0686 55.882 95.2153 56.8376C95.3681 57.0108 95.5109 57.1927 95.6429 57.3822C95.9189 57.6167 96.2754 57.7346 96.6368 57.7109C97.5602 57.725 98.5729 57.3282 98.9418 56.4831C99.058 56.1734 99.1276 55.8482 99.1486 55.5182C99.2551 54.5791 99.3616 53.6463 99.4682 52.7197C99.5293 52.1797 99.635 51.567 100.091 51.2735C100.84 50.7899 101.832 51.5412 102.701 51.3487C103.013 51.2679 103.283 51.0721 103.456 50.8007C103.629 50.5294 103.693 50.2025 103.634 49.8861Z" fill="black"/>
</g>
<path opacity="0.1" d="M155.656 64.8831C155.406 64.9297 155.149 64.9233 154.901 64.8643C153.955 64.6733 153.103 64.1647 152.486 63.4228C152.145 63.0096 151.877 62.4462 152.084 61.9532C152.249 61.5564 152.681 61.3076 152.789 60.8944C152.838 60.6422 152.824 60.3818 152.749 60.1361L152.495 58.9787C152.422 58.65 152.296 58.2626 151.969 58.1852C151.642 58.1077 151.37 58.3753 151.114 58.5772C150.486 59.0726 149.281 59.4106 148.529 59.0022C147.777 58.5937 147.986 57.2367 147.864 56.5019C147.862 56.4385 147.846 56.3762 147.818 56.3195C147.79 56.2628 147.749 56.2128 147.7 56.1732C147.59 56.1349 147.471 56.126 147.357 56.1474C146.95 56.1474 146.626 55.7835 146.506 55.3938C146.425 54.9957 146.38 54.591 146.372 54.1847C146.325 53.7809 146.179 53.3489 145.829 53.14C145.553 53.0101 145.247 52.9574 144.944 52.9874L143.2 53.0062C142.77 53.0062 142.26 52.978 142.025 52.6211C141.79 52.2643 141.964 51.7572 142.211 51.3933C142.458 51.0294 142.77 50.6679 142.791 50.2195C142.812 49.771 142.521 49.3837 142.284 49.0081C142.148 48.8026 142.048 48.5756 141.988 48.3366L141.487 48.3061C141.292 48.7052 141.487 49.1818 141.722 49.5598C141.957 49.9377 142.251 50.3251 142.23 50.7688C142.209 51.2125 141.896 51.5694 141.649 51.9427C141.403 52.3159 141.222 52.8043 141.466 53.1705C141.71 53.5367 142.206 53.5626 142.641 53.5579L144.384 53.5367C144.688 53.5074 144.994 53.5609 145.27 53.6917C145.62 53.9006 145.768 54.3326 145.813 54.7364C145.82 55.1428 145.866 55.5476 145.949 55.9455C146.067 56.3328 146.393 56.7038 146.8 56.6967C146.914 56.6766 147.031 56.6855 147.14 56.7225C147.19 56.7626 147.231 56.8129 147.259 56.87C147.287 56.9272 147.303 56.9898 147.305 57.0536C147.427 57.7861 147.202 59.1454 147.97 59.5539C148.738 59.9624 149.937 59.6243 150.554 59.1289C150.811 58.927 151.095 58.6594 151.412 58.7345C151.729 58.8096 151.866 59.204 151.936 59.528L152.192 60.6878C152.267 60.9337 152.28 61.1941 152.23 61.4461C152.112 61.8569 151.678 62.1081 151.513 62.5026C151.309 62.9956 151.574 63.5614 151.915 63.9722C152.536 64.7172 153.395 65.2262 154.347 65.4137C154.594 65.4726 154.851 65.479 155.101 65.4325C155.505 65.3095 155.852 65.0464 156.079 64.6906C155.95 64.7795 155.807 64.8447 155.656 64.8831Z" fill="black"/>
<path opacity="0.1" d="M47.8603 168.566C50.9968 168.566 53.5394 168.176 53.5394 167.695C53.5394 167.214 50.9968 166.824 47.8603 166.824C44.7238 166.824 42.1812 167.214 42.1812 167.695C42.1812 168.176 44.7238 168.566 47.8603 168.566Z" fill="#590799"/>
<path opacity="0.1" d="M246.153 145.921C249.289 145.921 251.832 145.531 251.832 145.05C251.832 144.569 249.289 144.179 246.153 144.179C243.016 144.179 240.474 144.569 240.474 145.05C240.474 145.531 243.016 145.921 246.153 145.921Z" fill="#590799"/>
<path opacity="0.1" d="M188.255 182.669C197.338 182.669 204.702 181.54 204.702 180.147C204.702 178.755 197.338 177.626 188.255 177.626C179.171 177.626 171.807 178.755 171.807 180.147C171.807 181.54 179.171 182.669 188.255 182.669Z" fill="#590799"/>
<path opacity="0.1" d="M235.01 171.433C242.096 171.433 247.839 170.552 247.839 169.465C247.839 168.379 242.096 167.498 235.01 167.498C227.925 167.498 222.181 168.379 222.181 169.465C222.181 170.552 227.925 171.433 235.01 171.433Z" fill="#590799"/>
<path opacity="0.1" d="M232.898 192.405C244.913 192.405 254.654 190.911 254.654 189.069C254.654 187.226 244.913 185.733 232.898 185.733C220.883 185.733 211.143 187.226 211.143 189.069C211.143 190.911 220.883 192.405 232.898 192.405Z" fill="#590799"/>
<path opacity="0.1" d="M23.5531 194.525C32.6368 194.525 40.0007 193.396 40.0007 192.003C40.0007 190.611 32.6368 189.482 23.5531 189.482C14.4693 189.482 7.10547 190.611 7.10547 192.003C7.10547 193.396 14.4693 194.525 23.5531 194.525Z" fill="#590799"/>
<path d="M48.1187 139.955C48.1187 139.955 48.7625 140.795 47.8226 142.068C46.8827 143.34 46.1074 144.416 46.4128 145.2C46.4128 145.2 47.8226 142.852 48.9974 142.81C50.1723 142.768 49.3898 141.373 48.1187 139.955Z" fill="#590799"/>
<path opacity="0.1" d="M48.1189 139.955C48.1763 140.035 48.2207 140.124 48.2505 140.218C49.3783 141.542 49.9775 142.775 48.8943 142.8C47.8863 142.829 46.6762 144.632 46.3872 145.087C46.396 145.122 46.407 145.157 46.4201 145.19C46.4201 145.19 47.8299 142.843 49.0047 142.8C50.1796 142.758 49.3901 141.373 48.1189 139.955Z" fill="black"/>
<path d="M49.3169 141.026C49.3169 141.321 49.2816 141.561 49.2417 141.561C49.2018 141.561 49.1665 141.326 49.1665 141.026C49.1665 140.725 49.2088 140.871 49.2487 140.871C49.2887 140.871 49.3169 140.73 49.3169 141.026Z" fill="#FFD037"/>
<path d="M49.7257 141.38C49.4672 141.521 49.2393 141.615 49.2205 141.57C49.2017 141.526 49.3944 141.392 49.6552 141.249C49.916 141.105 49.8126 141.211 49.8314 141.249C49.8502 141.286 49.9865 141.237 49.7257 141.38Z" fill="#FFD037"/>
<path d="M44.7209 139.955C44.7209 139.955 44.0771 140.795 45.017 142.068C45.9568 143.34 46.7346 144.416 46.4268 145.2C46.4268 145.2 45.017 142.852 43.8539 142.81C42.6908 142.768 43.4427 141.373 44.7209 139.955Z" fill="#590799"/>
<path opacity="0.1" d="M44.7211 139.955C44.665 140.036 44.6207 140.125 44.5896 140.218C43.4617 141.542 42.8626 142.775 43.9458 142.8C44.9538 142.829 46.1638 144.632 46.4552 145.087C46.4456 145.122 46.4338 145.157 46.4199 145.19C46.4199 145.19 45.0101 142.843 43.8471 142.8C42.684 142.758 43.4429 141.373 44.7211 139.955Z" fill="black"/>
<path d="M43.5249 141.026C43.5249 141.321 43.5578 141.561 43.5977 141.561C43.6377 141.561 43.6729 141.326 43.6729 141.026C43.6729 140.725 43.6306 140.871 43.5907 140.871C43.5507 140.871 43.5249 140.73 43.5249 141.026Z" fill="#FFD037"/>
<path d="M43.1141 141.38C43.3749 141.521 43.6005 141.615 43.6216 141.57C43.6428 141.526 43.4454 141.392 43.1846 141.249C42.9238 141.105 43.0271 141.211 43.0083 141.249C42.9895 141.286 42.8533 141.237 43.1141 141.38Z" fill="#FFD037"/>
<path opacity="0.1" d="M46.4199 151.628C50.1352 151.628 53.147 151.166 53.147 150.597C53.147 150.028 50.1352 149.566 46.4199 149.566C42.7047 149.566 39.6929 150.028 39.6929 150.597C39.6929 151.166 42.7047 151.628 46.4199 151.628Z" fill="#590799"/>
<path d="M49.8833 144.064L49.8504 144.326L49.8057 144.697L49.7869 144.852L49.7423 145.223L49.7212 145.378L49.6765 145.749L49.1619 149.975C49.1173 150.351 48.5017 150.644 47.7521 150.644H45.0876C44.3451 150.644 43.7295 150.351 43.6778 149.975L43.1633 145.749L43.1186 145.378L43.0998 145.223L43.0528 144.852L43.034 144.697L42.9894 144.326L42.9565 144.064C42.9306 143.85 43.2643 143.671 43.6849 143.671H49.1572C49.5755 143.671 49.9091 143.85 49.8833 144.064Z" fill="#65617D"/>
<path d="M49.8503 144.326L49.8056 144.697H43.0339L42.9893 144.326H49.8503Z" fill="#9D9CB5"/>
<path d="M49.7869 144.852L49.7422 145.223H43.0997L43.0527 144.852H49.7869Z" fill="#9D9CB5"/>
<path d="M49.7235 145.378L49.6765 145.749H43.1633L43.1187 145.378H49.7235Z" fill="#9D9CB5"/>
<path d="M241.676 136.704C241.676 136.704 240.873 140.441 244.447 140.882L244.668 140.467C244.668 140.467 241.897 137.863 241.676 136.704Z" fill="#009F79"/>
<path d="M245.805 140.436L244.973 140.612L244.891 140.631C244.891 140.631 242.673 138.833 242.701 134.818C242.997 135.41 243.352 135.971 243.761 136.492C244.639 137.654 245.638 139.204 245.805 140.436Z" fill="#009F79"/>
<path d="M246.084 140.821C246.019 140.864 245.945 140.891 245.868 140.901C245.791 140.911 245.712 140.904 245.638 140.88C243.504 140.382 244.228 133.436 244.228 133.436C244.346 133.49 244.463 134.375 244.966 135.516C245.824 137.518 246.77 140.319 246.084 140.821Z" fill="#009F79"/>
<path d="M250.817 136.704C250.817 136.704 250.955 140.441 247.381 140.882L247.158 140.46C247.158 140.46 250.596 137.863 250.817 136.704Z" fill="#009F79"/>
<path d="M249.792 134.825C249.821 138.84 246.94 140.638 246.94 140.638L246.855 140.619L246.026 140.443C246.19 139.211 247.201 137.661 248.068 136.499C248.565 135.867 249.145 135.304 249.792 134.825Z" fill="#009F79"/>
<path d="M246.843 140.46C246.717 140.616 246.556 140.74 246.373 140.824C246.317 140.849 246.258 140.869 246.197 140.882C245.673 141.005 245.492 140.627 245.52 139.983C245.57 138.84 246.289 136.856 246.93 135.37C247.239 134.641 247.695 133.983 248.269 133.438C248.269 133.438 248.237 138.845 246.843 140.46Z" fill="#009F79"/>
<path d="M246.246 130.999C246.246 130.999 243.864 139.45 245.915 140.713C247.966 141.976 246.773 131.745 246.246 130.999Z" fill="#009F79"/>
<path opacity="0.1" d="M241.676 136.704C241.676 136.704 240.873 140.441 244.447 140.882L244.668 140.467C244.668 140.467 241.897 137.863 241.676 136.704Z" fill="black"/>
<path opacity="0.1" d="M245.805 140.436L244.973 140.612L244.891 140.631C244.891 140.631 242.673 138.833 242.701 134.818C242.997 135.41 243.352 135.971 243.761 136.492C244.639 137.654 245.638 139.204 245.805 140.436Z" fill="black"/>
<path opacity="0.1" d="M246.084 140.821C246.019 140.864 245.945 140.891 245.868 140.901C245.791 140.911 245.712 140.904 245.638 140.88C243.504 140.382 244.228 133.436 244.228 133.436C244.346 133.49 244.463 134.375 244.966 135.516C245.824 137.518 246.77 140.319 246.084 140.821Z" fill="black"/>
<path opacity="0.1" d="M250.817 136.704C250.817 136.704 250.955 140.441 247.381 140.882L247.158 140.46C247.158 140.46 250.596 137.863 250.817 136.704Z" fill="black"/>
<path opacity="0.1" d="M249.792 134.825C249.821 138.84 246.94 140.638 246.94 140.638L246.855 140.619L246.026 140.443C246.19 139.211 247.201 137.661 248.068 136.499C248.565 135.867 249.145 135.304 249.792 134.825Z" fill="black"/>
<path opacity="0.1" d="M246.843 140.46C246.717 140.616 246.556 140.74 246.373 140.824C246.317 140.849 246.258 140.869 246.197 140.882C245.673 141.005 245.492 140.627 245.52 139.983C245.57 138.84 246.289 136.856 246.93 135.37C247.239 134.641 247.695 133.983 248.269 133.438C248.269 133.438 248.237 138.845 246.843 140.46Z" fill="black"/>
<path opacity="0.1" d="M246.246 130.999C246.246 130.999 243.864 139.45 245.915 140.713C247.966 141.976 246.773 131.745 246.246 130.999Z" fill="black"/>
<path d="M241.677 136.704C241.677 136.704 241.207 140.441 244.778 140.882L244.999 140.467C244.999 140.467 241.898 137.863 241.677 136.704Z" fill="#009F79"/>
<path d="M246.136 140.436L245.304 140.612L245.222 140.631C245.222 140.631 242.673 138.833 242.694 134.825C242.694 134.825 243.347 135.53 244.085 136.499C244.971 137.654 245.969 139.204 246.136 140.436Z" fill="#009F79"/>
<path opacity="0.1" d="M246.136 140.436L245.304 140.612C244.517 139.922 244.205 138.119 244.092 136.492C244.971 137.654 245.969 139.204 246.136 140.436Z" fill="black"/>
<path d="M246.418 140.821C246.352 140.864 246.278 140.891 246.2 140.901C246.123 140.911 246.044 140.904 245.969 140.88C243.836 140.382 244.226 133.436 244.226 133.436C244.343 133.49 244.804 134.375 245.295 135.516C246.157 137.518 247.102 140.319 246.418 140.821Z" fill="#009F79"/>
<path d="M250.817 136.704C250.817 136.704 251.286 140.441 247.715 140.882L247.494 140.467C247.494 140.467 250.596 137.863 250.817 136.704Z" fill="#009F79"/>
<path d="M249.792 134.825C249.82 138.84 247.271 140.638 247.271 140.638L247.189 140.619L246.357 140.443C246.521 139.211 247.532 137.661 248.401 136.499C249.139 135.53 249.792 134.825 249.792 134.825Z" fill="#009F79"/>
<path opacity="0.1" d="M248.401 136.492C248.293 138.009 248.016 139.678 247.341 140.457C247.295 140.514 247.244 140.565 247.189 140.612L246.357 140.436C246.521 139.204 247.522 137.654 248.401 136.492Z" fill="black"/>
<path d="M247.175 140.46C247.049 140.617 246.888 140.741 246.705 140.824C246.649 140.849 246.591 140.869 246.531 140.882C246.005 141.005 245.826 140.627 245.852 139.983C245.904 138.84 246.623 136.856 247.262 135.37C247.732 134.302 248.157 133.492 248.27 133.438C248.27 133.436 248.568 138.845 247.175 140.46Z" fill="#009F79"/>
<path opacity="0.1" d="M246.418 140.821C246.296 140.823 246.178 140.785 246.08 140.713C245.076 140.089 245.055 137.746 245.295 135.516C246.157 137.518 247.102 140.319 246.418 140.821Z" fill="black"/>
<path opacity="0.1" d="M247.174 140.46C247.059 140.711 246.904 140.842 246.704 140.824C246.602 140.811 246.505 140.774 246.42 140.716C246.159 140.537 245.96 140.281 245.852 139.983C245.903 138.84 246.622 136.856 247.261 135.37C247.492 137.429 247.569 139.612 247.174 140.46Z" fill="black"/>
<path d="M246.247 130.999C246.247 130.999 244.198 139.45 246.247 140.713C248.295 141.976 246.773 131.745 246.247 130.999Z" fill="#009F79"/>
<path d="M250.18 140.3H241.648V141.711H242.95L242.983 141.878L243.505 144.618H248.465L248.986 141.878L249.017 141.711H250.18V140.3Z" fill="#4B4770"/>
<path opacity="0.1" d="M250.18 140.3H241.648V141.711H242.95L242.983 141.878L243.505 144.618H248.465L248.986 141.878L249.017 141.711H250.18V140.3Z" fill="black"/>
<path d="M249.461 141.129L249.318 141.878L248.796 144.618H243.836L243.314 141.878L243.171 141.129H249.461Z" fill="#4B4770"/>
<path opacity="0.1" d="M249.461 141.129L249.318 141.878H243.314L243.171 141.129H249.461Z" fill="black"/>
<path d="M250.511 140.3H241.979V141.711H250.511V140.3Z" fill="#4B4770"/>
<path d="M32.7518 164.444C32.5269 164.754 32.3466 165.093 32.2161 165.453C32.1832 165.54 32.1503 165.641 32.1174 165.737C32.0578 165.71 31.9956 165.688 31.9318 165.672C31.6579 165.602 31.3745 165.579 31.093 165.601C31.093 165.491 31.1071 165.366 31.1094 165.256C31.1447 164.019 30.999 162.296 29.8171 163.026C28.6846 163.73 29.4928 164.904 30.2236 165.655C30.287 165.721 30.3505 165.782 30.4116 165.841C29.7443 166.31 29.6174 167.421 29.5069 168.573C29.3965 169.726 28.4167 170.987 27.7658 171.703C27.7001 171.776 27.6413 171.841 27.5826 171.902C27.3195 171.693 27.0149 171.541 26.6889 171.457C26.3629 171.373 26.0228 171.359 25.6911 171.416C25.6653 171.315 25.6347 171.21 25.6042 171.099C25.0778 169.2 23.9852 165.911 22.5919 165.19L22.7752 164.956C23.3673 164.183 24.0346 163.033 23.0501 162.739C22.0656 162.446 21.9763 163.735 22.0303 164.702C22.0397 164.824 22.0491 164.939 22.0585 165.047C21.8617 165.056 21.6688 165.105 21.4918 165.192C21.3148 165.278 21.1574 165.4 21.0294 165.55L20.8767 165.369C20.0778 164.43 18.6139 162.934 18.1698 164.063C17.7563 165.115 19.0463 166.482 19.9532 167.273L20.0096 167.322C19.4011 169.789 22.0585 171.801 23.4895 172.682L23.6751 172.794C21.7014 175.119 20.4819 179.476 20.4819 179.476L26.0083 180.462C26.0083 180.462 29.6738 177.302 29.2038 174.335H29.2414C32.9045 173.602 33.7363 169.7 33.1654 167.383L33.2312 167.357C33.8985 167.085 34.4833 166.643 34.9276 166.075C35.9521 164.655 33.8092 163.049 32.7518 164.444Z" fill="#FFD037"/>
<path opacity="0.1" d="M32.7518 164.444C32.5269 164.754 32.3466 165.093 32.2161 165.453C32.1832 165.54 32.1503 165.641 32.1174 165.737C32.0578 165.71 31.9956 165.688 31.9318 165.672C31.6579 165.602 31.3745 165.579 31.093 165.601C31.093 165.491 31.1071 165.366 31.1094 165.256C31.1447 164.019 30.999 162.296 29.8171 163.026C28.6846 163.73 29.4928 164.904 30.2236 165.655C30.287 165.721 30.3505 165.782 30.4116 165.841C29.7443 166.31 29.6174 167.421 29.5069 168.573C29.3965 169.726 28.4167 170.987 27.7658 171.703C27.7001 171.776 27.6413 171.841 27.5826 171.902C27.3195 171.693 27.0149 171.541 26.6889 171.457C26.3629 171.373 26.0228 171.359 25.6911 171.416C25.6653 171.315 25.6347 171.21 25.6042 171.099C25.0778 169.2 23.9852 165.911 22.5919 165.19L22.7752 164.956C23.3673 164.183 24.0346 163.033 23.0501 162.739C22.0656 162.446 21.9763 163.735 22.0303 164.702C22.0397 164.824 22.0491 164.939 22.0585 165.047C21.8617 165.056 21.6688 165.105 21.4918 165.192C21.3148 165.278 21.1574 165.4 21.0294 165.55L20.8767 165.369C20.0778 164.43 18.6139 162.934 18.1698 164.063C17.7563 165.115 19.0463 166.482 19.9532 167.273L20.0096 167.322C19.4011 169.789 22.0585 171.801 23.4895 172.682L23.6751 172.794C21.7014 175.119 20.4819 179.476 20.4819 179.476L26.0083 180.462C26.0083 180.462 29.6738 177.302 29.2038 174.335H29.2414C32.9045 173.602 33.7363 169.7 33.1654 167.383L33.2312 167.357C33.8985 167.085 34.4833 166.643 34.9276 166.075C35.9521 164.655 33.8092 163.049 32.7518 164.444Z" fill="black"/>
<path d="M21.7508 166.05L21.1046 167.928C21.1046 167.928 20.7451 167.674 20.2916 167.275C19.3846 166.484 18.0947 165.118 18.5082 164.066C18.9523 162.937 20.4161 164.427 21.215 165.371C21.5369 165.747 21.7508 166.05 21.7508 166.05Z" fill="#FFD037"/>
<path d="M23.1138 164.958C22.9175 165.216 22.7073 165.464 22.4841 165.7C22.4289 165.37 22.3905 165.038 22.369 164.704C22.3149 163.737 22.4183 162.453 23.3887 162.742C24.3591 163.031 23.7059 164.186 23.1138 164.958Z" fill="#FFD037"/>
<path d="M31.4595 165.256C31.4407 165.878 31.3796 166.376 31.3796 166.376C31.0954 166.154 30.8262 165.913 30.5737 165.655C29.843 164.897 29.0347 163.728 30.1672 163.026C31.3373 162.293 31.483 164.019 31.4595 165.256Z" fill="#FFD037"/>
<path d="M35.2661 166.071C34.8218 166.638 34.237 167.08 33.5696 167.353C33.3844 167.433 33.1945 167.502 33.001 167.559L32.2397 166.491C32.3197 166.138 32.4249 165.791 32.5546 165.453C32.6851 165.093 32.8654 164.754 33.0903 164.444C34.143 163.049 36.2906 164.655 35.2661 166.071Z" fill="#FFD037"/>
<path opacity="0.1" d="M21.2149 165.371C21.5368 165.747 21.7506 166.038 21.7506 166.038L21.1045 167.916C21.1045 167.916 20.745 167.662 20.2915 167.263C20.3923 166.658 20.6426 166.088 21.0199 165.604C21.0833 165.526 21.1515 165.446 21.2149 165.371Z" fill="black"/>
<path opacity="0.1" d="M23.1135 164.958C22.9172 165.216 22.707 165.464 22.4838 165.7C22.4286 165.37 22.3902 165.038 22.3687 164.704C22.6372 164.71 22.8974 164.799 23.1135 164.958Z" fill="black"/>
<path d="M26.2902 172.461L24.683 173.165C24.683 173.165 24.3329 172.996 23.8277 172.682C22.1383 171.644 18.7431 169.031 21.0081 165.951C23.2732 162.871 25.1835 168.395 25.9424 171.097C26.1703 171.919 26.2902 172.461 26.2902 172.461Z" fill="#FFD037"/>
<path opacity="0.1" d="M30.562 165.655C30.7958 165.414 31.1125 165.272 31.4478 165.256C31.429 165.878 31.3679 166.376 31.3679 166.376C31.0837 166.154 30.8145 165.913 30.562 165.655Z" fill="black"/>
<path opacity="0.1" d="M33.5745 167.353C33.3893 167.433 33.1994 167.502 33.0059 167.559L32.2446 166.491C32.3246 166.138 32.4298 165.791 32.5595 165.453C33.0459 165.74 33.4077 166.453 33.5745 167.353Z" fill="black"/>
<path d="M29.5799 174.33C29.493 174.349 29.4014 174.365 29.3097 174.379C23.922 175.196 27.5334 172.292 27.5334 172.292C27.5334 172.292 27.7683 172.057 28.1043 171.703C28.7552 170.987 29.7327 169.733 29.8454 168.573C30.0146 166.829 30.2096 165.193 32.2703 165.672C34.2933 166.146 34.681 173.309 29.5799 174.33Z" fill="#FFD037"/>
<path d="M29.4789 187.733H19.1851V190.437H29.4789V187.733Z" fill="#D4DFEC"/>
<path d="M30.9992 178.943H17.5498V188.381H30.9992V178.943Z" fill="#D4DFEC"/>
<path opacity="0.1" d="M29.4789 187.733H19.1851V190.437H29.4789V187.733Z" fill="black"/>
<path opacity="0.1" d="M30.9992 178.943H17.5498V188.381H30.9992V178.943Z" fill="black"/>
<path d="M30.1557 187.733H19.8618V190.437H30.1557V187.733Z" fill="#D4DFEC"/>
<path opacity="0.1" d="M25.9428 171.099C26.1778 171.907 26.2906 172.461 26.2906 172.461L24.6834 173.165C24.6834 173.165 24.3333 172.996 23.8281 172.682C24.4578 171.886 25.1674 171.285 25.9428 171.099Z" fill="black"/>
<path opacity="0.1" d="M29.5799 174.33C29.493 174.349 29.4014 174.365 29.3097 174.379C23.922 175.196 27.5334 172.292 27.5334 172.292C27.5334 172.292 27.7683 172.057 28.1043 171.703C29.11 172.508 29.5259 173.414 29.5799 174.33Z" fill="black"/>
<path d="M20.8203 179.478C20.8203 179.478 23.8373 168.679 28.069 172.01C32.3007 175.342 26.3467 180.462 26.3467 180.462L20.8203 179.478Z" fill="#FFD037"/>
<path opacity="0.1" d="M22.3427 167.982C22.5296 167.982 22.6811 167.83 22.6811 167.644C22.6811 167.457 22.5296 167.306 22.3427 167.306C22.1559 167.306 22.0044 167.457 22.0044 167.644C22.0044 167.83 22.1559 167.982 22.3427 167.982Z" fill="black"/>
<path opacity="0.1" d="M22.3149 169.559C22.5018 169.559 22.6533 169.408 22.6533 169.221C22.6533 169.035 22.5018 168.883 22.3149 168.883C22.128 168.883 21.9766 169.035 21.9766 169.221C21.9766 169.408 22.128 169.559 22.3149 169.559Z" fill="black"/>
<path opacity="0.1" d="M32.1294 168.292C32.3162 168.292 32.4677 168.14 32.4677 167.954C32.4677 167.767 32.3162 167.615 32.1294 167.615C31.9425 167.615 31.791 167.767 31.791 167.954C31.791 168.14 31.9425 168.292 32.1294 168.292Z" fill="black"/>
<path opacity="0.1" d="M24.2343 176.379C24.4212 176.379 24.5727 176.228 24.5727 176.041C24.5727 175.855 24.4212 175.703 24.2343 175.703C24.0475 175.703 23.896 175.855 23.896 176.041C23.896 176.228 24.0475 176.379 24.2343 176.379Z" fill="black"/>
<path opacity="0.1" d="M31.4243 170.912C31.6112 170.912 31.7626 170.76 31.7626 170.574C31.7626 170.387 31.6112 170.236 31.4243 170.236C31.2374 170.236 31.0859 170.387 31.0859 170.574C31.0859 170.76 31.2374 170.912 31.4243 170.912Z" fill="black"/>
<path opacity="0.1" d="M27.9282 174.407C28.1151 174.407 28.2665 174.256 28.2665 174.069C28.2665 173.883 28.1151 173.731 27.9282 173.731C27.7413 173.731 27.5898 173.883 27.5898 174.069C27.5898 174.256 27.7413 174.407 27.9282 174.407Z" fill="black"/>
<path opacity="0.1" d="M23.499 168.658C23.6859 168.658 23.8373 168.506 23.8373 168.32C23.8373 168.133 23.6859 167.982 23.499 167.982C23.3121 167.982 23.1606 168.133 23.1606 168.32C23.1606 168.506 23.3121 168.658 23.499 168.658Z" fill="black"/>
<path opacity="0.1" d="M31.1987 169.306C31.3856 169.306 31.5371 169.154 31.5371 168.968C31.5371 168.781 31.3856 168.63 31.1987 168.63C31.0118 168.63 30.8604 168.781 30.8604 168.968C30.8604 169.154 31.0118 169.306 31.1987 169.306Z" fill="black"/>
<path opacity="0.1" d="M30.0429 171.926C30.2298 171.926 30.3813 171.774 30.3813 171.588C30.3813 171.401 30.2298 171.25 30.0429 171.25C29.8561 171.25 29.7046 171.401 29.7046 171.588C29.7046 171.774 29.8561 171.926 30.0429 171.926Z" fill="black"/>
<path opacity="0.1" d="M26.4902 176.126C26.6771 176.126 26.8286 175.975 26.8286 175.788C26.8286 175.601 26.6771 175.45 26.4902 175.45C26.3033 175.45 26.1519 175.601 26.1519 175.788C26.1519 175.975 26.3033 176.126 26.4902 176.126Z" fill="black"/>
<path opacity="0.1" d="M25.7568 174.464C25.9437 174.464 26.0952 174.312 26.0952 174.126C26.0952 173.939 25.9437 173.788 25.7568 173.788C25.5699 173.788 25.4185 173.939 25.4185 174.126C25.4185 174.312 25.5699 174.464 25.7568 174.464Z" fill="black"/>
<path opacity="0.1" d="M24.0063 170.714C24.1932 170.714 24.3447 170.563 24.3447 170.376C24.3447 170.19 24.1932 170.038 24.0063 170.038C23.8195 170.038 23.668 170.19 23.668 170.376C23.668 170.563 23.8195 170.714 24.0063 170.714Z" fill="black"/>
<path opacity="0.1" d="M30.1557 187.733H19.8618V188.721H30.1557V187.733Z" fill="black"/>
<path d="M31.676 178.943H18.2266V188.381H31.676V178.943Z" fill="#D4DFEC"/>
<path opacity="0.1" d="M26.9414 177.647C27.1282 177.647 27.2797 177.496 27.2797 177.309C27.2797 177.122 27.1282 176.971 26.9414 176.971C26.7545 176.971 26.603 177.122 26.603 177.309C26.603 177.496 26.7545 177.647 26.9414 177.647Z" fill="black"/>
<path opacity="0.1" d="M24.9111 178.07C25.098 178.07 25.2495 177.918 25.2495 177.732C25.2495 177.545 25.098 177.394 24.9111 177.394C24.7242 177.394 24.5728 177.545 24.5728 177.732C24.5728 177.918 24.7242 178.07 24.9111 178.07Z" fill="black"/>
<path opacity="0.1" d="M11.7483 14.6637C13.1056 14.6637 14.206 13.5643 14.206 12.208C14.206 10.8518 13.1056 9.75235 11.7483 9.75235C10.3909 9.75235 9.29053 10.8518 9.29053 12.208C9.29053 13.5643 10.3909 14.6637 11.7483 14.6637Z" fill="#590799"/>
<path opacity="0.1" d="M247.788 92.7548C249.605 92.7548 251.078 91.2833 251.078 89.4681C251.078 87.6528 249.605 86.1813 247.788 86.1813C245.971 86.1813 244.499 87.6528 244.499 89.4681C244.499 91.2833 245.971 92.7548 247.788 92.7548Z" fill="#590799"/>
<path opacity="0.1" d="M254.129 84.8243C255.456 84.8243 256.531 83.7501 256.531 82.425C256.531 81.0999 255.456 80.0257 254.129 80.0257C252.803 80.0257 251.728 81.0999 251.728 82.425C251.728 83.7501 252.803 84.8243 254.129 84.8243Z" fill="#590799"/>
<path opacity="0.1" d="M15.9775 6.57358C17.7943 6.57358 19.267 5.10205 19.267 3.28682C19.267 1.47159 17.7943 6.10352e-05 15.9775 6.10352e-05C14.1608 6.10352e-05 12.688 1.47159 12.688 3.28682C12.688 5.10205 14.1608 6.57358 15.9775 6.57358Z" fill="#590799"/>
<path opacity="0.1" d="M3.28952 21.5988C5.10627 21.5988 6.57904 20.1273 6.57904 18.312C6.57904 16.4968 5.10627 15.0253 3.28952 15.0253C1.47277 15.0253 0 16.4968 0 18.312C0 20.1273 1.47277 21.5988 3.28952 21.5988Z" fill="#590799"/>
<defs>
<linearGradient id="paint0_linear" x1="123.857" y1="182.145" x2="123.857" y2="44.6883" gradientUnits="userSpaceOnUse">
<stop stop-color="#808080" stop-opacity="0.25"/>
<stop offset="0.54" stop-color="#808080" stop-opacity="0.12"/>
<stop offset="1" stop-color="#808080" stop-opacity="0.1"/>
</linearGradient>
</defs>
</svg>
