<svg width="268" height="192" viewBox="0 0 268 192" fill="none" xmlns="http://www.w3.org/2000/svg">
<path opacity="0.1" d="M197.175 191.27C214.787 191.27 229.064 190.099 229.064 188.655C229.064 187.21 214.787 186.039 197.175 186.039C179.563 186.039 165.285 187.21 165.285 188.655C165.285 190.099 179.563 191.27 197.175 191.27Z" fill="#590799"/>
<path opacity="0.1" d="M215.225 188.699C214.259 189.974 208.58 189.434 207.612 189.037C207.022 188.802 207.067 187.683 207.226 186.539C207.837 186.826 208.871 187.063 210.603 186.903C211.007 186.865 211.412 186.852 211.818 186.866C213.048 186.921 214.28 186.896 215.507 186.79C215.64 187.104 215.684 187.448 215.634 187.784C215.584 188.121 215.443 188.437 215.225 188.699Z" fill="black"/>
<path opacity="0.1" d="M193.049 185.412C193.004 185.798 192.832 186.157 192.56 186.434C192.288 186.712 191.932 186.89 191.547 186.943C189.449 187.255 184.395 188.054 183.119 188.662C181.495 189.434 175.083 188.896 174.773 188.122C174.728 187.966 174.715 187.802 174.734 187.641C174.753 187.48 174.804 187.324 174.883 187.183C175.103 186.712 175.466 186.323 175.92 186.07C176.965 186.774 179.287 187.441 184.393 186.645C189.263 185.884 191.676 185.14 192.851 184.633C192.935 184.743 192.995 184.869 193.029 185.003C193.063 185.137 193.07 185.276 193.049 185.412Z" fill="black"/>
<path opacity="0.1" d="M156.1 180.027C165.863 180.027 173.777 178.251 173.777 176.061C173.777 173.871 165.863 172.096 156.1 172.096C146.338 172.096 138.424 173.871 138.424 176.061C138.424 178.251 146.338 180.027 156.1 180.027Z" fill="#590799"/>
<path opacity="0.1" d="M69.1347 188.654C86.7468 188.654 101.024 186.879 101.024 184.689C101.024 182.499 86.7468 180.724 69.1347 180.724C51.5226 180.724 37.2451 182.499 37.2451 184.689C37.2451 186.879 51.5226 188.654 69.1347 188.654Z" fill="#590799"/>
<path opacity="0.1" d="M117.756 168.805C131.008 168.805 141.751 167.029 141.751 164.84C141.751 162.65 131.008 160.874 117.756 160.874C104.504 160.874 93.7612 162.65 93.7612 164.84C93.7612 167.029 104.504 168.805 117.756 168.805Z" fill="#590799"/>
<path d="M114.906 161.118C114.854 161.942 113.936 161.992 113.936 161.992C111.243 162.414 110.67 163.461 110.67 163.461C110.67 163.461 108.085 166.027 104.187 165.654C100.874 165.335 101.196 164.746 101.367 163.654C101.401 163.451 101.419 163.245 101.421 163.039C101.421 161.543 102.568 161.118 104.363 159.987C106.158 158.855 106.109 157.919 106.856 157.097C107.603 156.275 107.681 154.681 107.681 154.681C108.527 153.209 110.672 154.916 110.672 154.916C110.773 155.437 113.961 155.364 113.961 155.364C113.961 155.364 114.384 157.059 114.603 157.158C114.746 157.224 114.854 158.552 114.897 159.693C114.92 160.292 114.925 160.834 114.906 161.118Z" fill="#B07473"/>
<path opacity="0.1" d="M114.906 161.118C114.854 161.943 113.936 161.992 113.936 161.992C111.243 162.414 110.67 163.461 110.67 163.461C110.67 163.461 108.085 166.027 104.187 165.654C100.874 165.335 101.196 164.746 101.367 163.654C102.848 164.02 105.677 164.532 107.328 163.635C109.624 162.391 111.271 161.522 111.271 161.522L114.899 159.698C114.92 160.292 114.925 160.834 114.906 161.118Z" fill="black"/>
<path d="M135.2 165.553C135.023 165.879 134.727 166.124 134.373 166.236L134.31 166.253C133.212 166.488 128.971 166.488 128.971 166.488C128.971 166.488 124.683 163.175 123.386 163.1C122.089 163.025 121.391 161.903 121.391 161.903C121.391 161.903 121.417 161.133 121.499 160.236C121.6 159.175 121.776 157.942 122.089 157.618C122.662 157.019 122.794 156.21 124.084 156.721C124.084 156.721 125.926 153.477 128.097 155.984L130.343 159.388C130.343 159.388 130.766 160.797 133.612 162.325C134.749 162.936 135.256 163.654 135.4 164.309C135.49 164.734 135.419 165.178 135.2 165.553Z" fill="#B07473"/>
<path opacity="0.1" d="M135.2 165.553C134.946 165.767 134.667 165.997 134.373 166.236L134.31 166.253C133.212 166.488 128.971 166.488 128.971 166.488C128.971 166.488 124.683 163.175 123.386 163.1C122.089 163.025 121.391 161.903 121.391 161.903C121.391 161.903 121.417 161.133 121.499 160.236C122.82 160.63 124.819 161.327 125.355 162.079C126.177 163.222 128.675 164.818 128.675 164.818C128.675 164.818 133.332 164.37 135.4 164.309C135.49 164.734 135.419 165.178 135.2 165.553Z" fill="black"/>
<path opacity="0.1" d="M112.357 127.68C112.223 127.746 110.66 131.068 109.067 131.169C107.474 131.27 112.357 127.68 112.357 127.68Z" fill="black"/>
<path opacity="0.1" d="M126.22 134.958C126.22 134.958 129.185 134.294 129.845 136.418C129.845 136.411 129.646 135.747 126.22 134.958Z" fill="black"/>
<path opacity="0.1" d="M124.225 147.11C124.225 147.11 127.817 146.377 128.581 147.375C129.345 148.373 124.225 147.11 124.225 147.11Z" fill="black"/>
<path opacity="0.1" d="M114.063 148.81C114.063 148.842 110.407 149.542 110.538 150.007C110.67 150.472 114.439 150.406 114.573 149.674C114.596 149.583 114.602 149.489 114.59 149.397C114.577 149.304 114.546 149.215 114.498 149.135C114.451 149.055 114.388 148.984 114.313 148.929C114.238 148.873 114.153 148.832 114.063 148.81Z" fill="black"/>
<path opacity="0.1" d="M123.029 151.96C123.029 151.96 129.037 151.228 128.668 152.491C128.299 153.754 123.029 151.96 123.029 151.96Z" fill="black"/>
<path opacity="0.1" d="M110.547 157.98C110.547 157.98 111.722 159.475 111.417 160.327C111.111 161.18 110.547 157.98 110.547 157.98Z" fill="black"/>
<path opacity="0.1" d="M126.443 161.722C126.443 161.722 126.704 159.717 127.749 159.698C128.795 159.679 128.847 159.59 129.645 159.898C130.444 160.205 131.194 160.682 130.954 160.752C130.715 160.823 129.58 159.607 128.414 160.229C127.687 160.626 127.023 161.13 126.443 161.722Z" fill="black"/>
<path d="M153.001 168.014L152.658 174.512L150.47 173.965L150.01 171.263L153.001 168.014Z" fill="#A27772"/>
<path opacity="0.1" d="M153.001 168.014L152.658 174.512L150.47 173.965L150.01 171.263L153.001 168.014Z" fill="black"/>
<path d="M161.03 175.374L164.366 176.064L166.84 173.88V167.727L166.897 166.887V166.861V166.682L167.357 159.844C167.357 159.844 170.696 148.46 171.216 146.274C171.582 144.725 171.429 140.048 171.307 137.463C171.258 136.404 171.216 135.695 171.216 135.695L163.849 133.913L163.694 139.571L163.156 159.395C163.119 160.659 162.864 161.907 162.402 163.083L162.376 163.152C161.736 164.812 161.374 166.567 161.307 168.345L161.058 174.648V174.822L161.03 175.374Z" fill="#CC818C"/>
<path opacity="0.1" d="M161.03 175.374L164.366 176.064L166.84 173.88V173.357C166.832 173.473 166.796 173.585 166.734 173.683C166.672 173.781 166.587 173.863 166.486 173.92L166.45 173.942C165.301 174.549 163.999 174.806 162.705 174.681L161.403 174.571C161.285 174.582 161.168 174.61 161.058 174.655V174.829L161.03 175.374Z" fill="black"/>
<path d="M166.45 174.113L166.485 174.094C166.594 174.033 166.684 173.945 166.748 173.837C166.811 173.73 166.844 173.608 166.845 173.484L166.899 166.861C166.899 166.861 167.618 166.347 167.444 168.676C167.27 171.005 167.157 174.484 167.157 174.484C167.157 174.484 167.129 178.278 163.504 178.278C163.504 178.278 159.878 178.968 159.906 176.897C159.935 174.827 161.403 174.742 161.403 174.742L162.705 174.855C163.999 174.98 165.302 174.722 166.45 174.113Z" fill="#B07473"/>
<path d="M143.652 173.965C143.736 175.461 148.14 174.597 148.14 174.597L151.103 168.849C151.103 168.849 153.577 166.95 152.339 165.283C152.272 165.193 152.212 165.098 152.158 164.999C152.158 164.999 152.158 164.999 152.146 164.985C152.12 164.943 152.097 164.898 152.073 164.851C151.185 163.091 151.622 160.203 151.622 160.203C151.622 160.203 152.771 151.808 153.175 149.594C153.459 148.03 153.342 142.9 153.248 140.032C153.21 138.839 153.175 138.038 153.175 138.038L145.865 136.083C145.865 136.083 145.865 136.994 145.865 138.261C145.849 140.062 145.792 142.581 145.607 144.22C145.292 147.007 146.413 156.235 146.413 156.235L146.8 164.633C146.868 166.056 146.542 167.47 145.861 168.72C144.944 170.397 143.746 172.758 143.664 173.803C143.655 173.857 143.652 173.911 143.652 173.965Z" fill="#CC818C"/>
<path opacity="0.1" d="M143.652 173.965C143.737 175.46 148.14 174.596 148.14 174.596L151.103 168.849C151.103 168.849 153.577 166.95 152.339 165.283C152.272 165.192 152.212 165.098 152.158 164.999C152.118 165.87 151.161 168.051 151.161 168.051C151.161 168.051 148.715 172.941 147.938 174.061C147.16 175.181 143.781 173.852 143.654 173.805C143.649 173.858 143.649 173.912 143.652 173.965Z" fill="black"/>
<path d="M152.073 164.844C152.073 164.844 153.52 164.509 153.088 168.274C153.104 168.702 153.007 169.127 152.806 169.505C152.605 169.883 152.308 170.201 151.944 170.427C150.907 171.077 149.31 172.477 148.501 175.198C148.502 175.785 148.304 176.355 147.939 176.815C147.574 177.275 147.064 177.599 146.492 177.733C145.186 178.038 143.558 178.306 142.615 178.043C140.86 177.555 141.638 176.348 141.638 176.348L143.652 173.96C143.652 173.96 147.162 175.341 147.937 174.219C148.713 173.096 151.161 168.211 151.161 168.211C151.161 168.211 152.503 165.161 152.073 164.844Z" fill="#B07473"/>
<path opacity="0.1" d="M163.849 134.611L163.694 140.269C165.656 140.078 167.061 139.813 167.301 139.44C167.82 138.637 169.705 138.299 171.307 138.16C171.258 137.102 171.216 136.393 171.216 136.393L163.849 134.611Z" fill="black"/>
<path opacity="0.1" d="M145.865 138.949C146.053 138.566 146.329 138.233 146.671 137.977C147.447 137.548 147.362 140.738 147.362 140.738C147.362 140.738 149.947 140.762 153.248 140.719C153.21 139.527 153.175 138.724 153.175 138.724L145.865 136.771C145.865 136.771 145.879 137.677 145.865 138.949Z" fill="black"/>
<path opacity="0.1" d="M174.378 75.4467L169.533 79.4142C169.568 79.7301 169.622 80.0436 169.693 80.3533L169.834 80.2242L176.986 78.6419L174.378 75.4467Z" fill="black"/>
<path opacity="0.1" d="M162.137 85.4572L163.46 86.0559L164.021 82.0014L162.745 81.2971C163.626 82.3066 162.856 84.173 162.137 85.4572Z" fill="black"/>
<path opacity="0.1" d="M175.818 84.9924L177.371 86.7743C176.972 86.6517 176.615 86.4199 176.34 86.1049C176.066 85.79 175.885 85.4047 175.818 84.9924Z" fill="black"/>
<path opacity="0.1" d="M173.17 84.7036L175.588 87.8073L174.38 88.096L173.17 84.7036Z" fill="black"/>
<path d="M219.158 77.9516C214.184 75.0921 212.304 74.3878 212.295 74.3878L212.191 74.3151C211.649 73.899 211.219 73.3554 210.939 72.7327C210.933 72.6193 210.933 72.5057 210.939 72.3923C210.938 72.4032 210.938 72.4143 210.939 72.4252C211.016 70.9109 212.095 69.5328 213.117 68.3308L215.732 65.2577C216.029 64.9536 216.259 64.5905 216.406 64.1918C216.459 63.9777 216.483 63.7573 216.477 63.5368C216.477 63.4476 216.477 63.3584 216.477 63.2692C216.463 62.5062 216.442 61.7409 216.413 60.9779C216.39 60.3111 216.218 59.4706 215.551 59.3345C215.203 59.264 214.743 59.3885 214.56 59.0997C214.497 58.9771 214.482 58.8363 214.515 58.7029C214.514 58.7139 214.514 58.7249 214.515 58.7358V58.6983C214.644 58.1832 214.727 57.6575 214.762 57.1277C214.776 56.8579 214.74 56.5879 214.654 56.3318C214.268 55.226 212.936 54.7706 211.759 54.5616C210.582 54.3527 209.261 54.1743 208.523 53.254C208.326 52.9469 208.111 52.6514 207.88 52.3689C207.539 52.0667 207.124 51.8616 206.677 51.7749C205.215 51.4153 203.676 51.549 202.299 52.1552C201.73 52.4088 201.16 52.7516 200.535 52.714C199.909 52.6764 199.331 52.2257 198.692 52.1177C197.659 51.9416 196.669 52.6999 196.159 53.5991C195.858 54.1322 195.696 54.7332 195.69 55.3458V55.449C195.675 56.1082 195.915 56.7475 196.362 57.2333C196.808 57.7028 197.471 58.0127 197.656 58.6208C197.731 58.8673 197.713 59.1349 197.781 59.3861C197.788 59.4173 197.797 59.4479 197.809 59.4777L197.776 59.5223C196.709 60.8858 196.13 62.5669 196.131 64.2975C196.143 65.9784 196.689 67.6121 197.691 68.9626C198.693 70.313 200.098 71.3102 201.705 71.8101C201.705 71.8876 201.705 71.965 201.705 72.0448C201.705 72.9839 201.434 73.9629 200.624 74.6743L193.577 77.4868C193.577 77.4868 189.329 76.982 187.797 83.1846C187.552 84.2142 187.464 85.2746 187.534 86.3305C187.59 87.2696 187.461 88.913 186.359 91.0423C184.618 94.4512 185.015 102.276 188.577 103.051C191.939 103.783 193.255 103.478 193.394 103.443V103.579C193.337 105.049 192.804 117.712 190.866 119.243C190.33 119.668 190.429 119.947 190.866 120.147C190.866 120.147 190.866 120.229 190.854 120.381C190.795 121.32 190.497 124.842 189.209 126.842C187.703 129.166 187.86 142.572 187.86 142.572L186.834 150.474C186.834 150.474 187.466 155.355 186.834 156.207C186.267 156.965 185.516 175.021 185.358 178.937H185.292C184.981 178.958 184.679 179.054 184.414 179.217C184.149 179.381 183.927 179.607 183.77 179.876C182.938 181.226 180.024 183.722 180.024 183.722C179.392 184.619 177.054 185.478 175.818 185.882C175.655 185.935 175.498 186.004 175.349 186.088C174.886 186.34 174.514 186.731 174.286 187.206C174.205 187.347 174.153 187.502 174.134 187.664C174.114 187.825 174.128 187.989 174.174 188.145C174.489 188.917 181.061 189.462 182.724 188.685C184.031 188.077 189.209 187.276 191.359 186.962C191.75 186.913 192.112 186.735 192.391 186.457C192.669 186.179 192.847 185.816 192.896 185.426C192.916 185.292 192.909 185.154 192.875 185.022C192.842 184.89 192.781 184.767 192.698 184.659C192.287 184.149 192.078 182.757 191.994 181.841C192.168 181.77 192.331 181.674 192.478 181.555C192.298 178.741 192.698 175.919 193.652 173.265C195.236 169.082 195.711 161.334 195.316 156.299C195.316 156.299 200.144 135.536 203.946 133.599C204.005 133.674 205.849 136.038 206.084 143.361C206.319 150.798 209.012 155.679 209.012 155.679C209.012 155.679 207.823 168.307 209.012 173.033L207.459 180.487C207.344 180.391 207.271 180.315 207.271 180.315C207.271 180.315 207.318 180.522 207.381 180.853L207.349 181.013L207.417 181.027C207.593 181.966 207.854 183.583 207.746 184.548C207.685 185.091 207.532 185.835 207.428 186.565C207.264 187.713 207.219 188.826 207.823 189.07C208.815 189.469 214.637 190.009 215.624 188.732C215.846 188.472 215.991 188.154 216.041 187.816C216.092 187.478 216.047 187.132 215.911 186.819C215.84 186.643 215.743 186.478 215.624 186.33C215.624 186.33 214.078 183.806 214.515 182.027C214.555 181.853 214.56 181.673 214.528 181.497C214.496 181.322 214.428 181.154 214.329 181.006C214.397 180.132 214.75 176.09 215.662 172.657C216.653 168.929 218.742 160.755 217.205 155.381C217.147 155.169 217.082 154.963 217.008 154.761C216.121 151.827 215.825 148.746 216.136 145.696C215.566 143.093 215.566 140.397 216.136 137.794C217.088 133.456 217.753 129.195 217.753 129.195C217.753 129.195 218.277 123.462 217.819 119.947C217.819 119.872 217.797 119.797 217.788 119.712L218.037 119.656C218.037 119.656 216.691 113.69 216.216 109.894C216.103 108.997 215.958 107.863 215.798 106.652C216.236 106.58 216.667 106.472 217.088 106.33C221.362 104.858 222.708 91.54 222.708 91.54V87.3142C222.708 87.3142 224.146 80.8181 219.158 77.9516ZM187.306 180.837C187.174 180.771 187.097 180.726 187.097 180.726L187.306 180.837Z" fill="url(#paint0_linear)"/>
<path d="M216.578 154.845C218.432 160.172 216.268 168.819 215.262 172.688C214.256 176.557 213.949 181.182 213.949 181.182C210.008 181.799 207.149 181.027 207.149 181.027L208.772 173.075C207.612 168.366 208.772 155.78 208.772 155.78C208.772 155.78 206.145 150.915 205.913 143.504C205.678 136.209 203.885 133.85 203.829 133.777C200.121 135.707 195.407 156.4 195.407 156.4C195.793 161.417 195.328 169.138 193.784 173.303C192.846 175.95 192.452 178.759 192.625 181.562C192.085 182.032 191.333 182.097 190.511 181.966C188.304 181.609 185.659 179.71 185.659 179.71C185.659 179.71 186.507 157.172 187.127 156.317C187.748 155.463 187.127 150.603 187.127 150.603L188.131 142.729C188.131 142.729 187.975 129.371 189.444 127.056C190.713 125.056 191.004 121.539 191.061 120.616C191.061 120.471 191.061 120.381 191.061 120.381L193.297 117.705C193.297 117.705 214.933 116.083 216.559 117.705C216.956 118.102 217.203 119.008 217.349 120.147C217.795 123.649 217.283 129.361 217.283 129.361C217.283 129.361 216.634 133.608 215.706 137.93C215.15 140.526 215.15 143.211 215.706 145.807C215.408 148.848 215.704 151.917 216.578 154.845Z" fill="#65617D"/>
<path d="M215.224 188.699C214.259 189.974 208.58 189.434 207.612 189.037C207.022 188.802 207.066 187.683 207.226 186.539C207.327 185.814 207.475 185.072 207.536 184.532C207.689 183.142 207.066 180.323 207.066 180.323C207.066 180.323 208.34 181.675 208.648 180.323C208.784 179.731 209.259 179.428 209.752 179.275C210.414 179.075 211.126 179.119 211.759 179.4C212.762 179.837 214.435 180.764 214.137 182.018C213.711 183.79 215.217 186.307 215.217 186.307C215.334 186.454 215.429 186.617 215.499 186.79C215.633 187.103 215.679 187.447 215.63 187.783C215.582 188.12 215.441 188.437 215.224 188.699Z" fill="#A27772"/>
<path opacity="0.1" d="M195.405 156.39C195.791 161.407 195.326 169.129 193.782 173.294C192.844 175.941 192.45 178.75 192.623 181.553C192.083 182.022 191.331 182.088 190.509 181.956C190.979 178.7 192.962 164.67 194.233 153.585C195.683 140.961 202.457 132.277 202.457 132.277L203.808 133.763C200.119 135.698 195.405 156.39 195.405 156.39Z" fill="black"/>
<path d="M212.905 75.2448L211.966 79.8768L207.344 87.6359L201.646 85.2037C201.646 85.2037 193.892 77.0971 198.768 75.9397C199.35 75.8144 199.901 75.5698 200.384 75.2213C201.34 74.5006 201.641 73.4535 201.646 72.4276C201.61 71.2797 201.343 70.1507 200.861 69.108L210.828 65.9808C210.421 67.2895 210.184 68.6451 210.123 70.0142C210.046 72.7281 211.063 74.0639 211.883 74.7095C212.186 74.9525 212.533 75.1343 212.905 75.2448Z" fill="#FBBEBE"/>
<path opacity="0.1" d="M210.819 65.9808C210.412 67.2895 210.175 68.6451 210.114 70.0142C209.932 70.2306 209.739 70.4368 209.534 70.6316C208.505 71.6136 207.229 72.2991 205.841 72.6153C204.454 72.9314 203.007 72.8666 201.653 72.4276C201.615 71.2792 201.345 70.1502 200.861 69.108L210.819 65.9808Z" fill="black"/>
<path d="M211.963 64.706C211.964 66.2639 211.502 67.787 210.636 69.0826C209.77 70.3782 208.539 71.3881 207.099 71.9846C205.658 72.5811 204.073 72.7374 202.544 72.4338C201.015 72.1301 199.61 71.3802 198.507 70.2787C197.404 69.1773 196.653 67.7738 196.349 66.2459C196.045 64.7179 196.201 63.1341 196.797 61.6947C197.394 60.2553 198.404 59.025 199.701 58.1595C200.997 57.2939 202.521 56.8319 204.08 56.8319C205.117 56.8269 206.144 57.0272 207.102 57.4211C208.061 57.815 208.932 58.3948 209.665 59.1269C210.398 59.8591 210.978 60.7291 211.373 61.6867C211.767 62.6443 211.968 63.6705 211.963 64.706Z" fill="#FBBEBE"/>
<path opacity="0.1" d="M212.905 75.2448L211.966 79.8768L207.344 87.6359L201.646 85.2037C201.646 85.2037 193.892 77.0972 198.768 75.9397C199.35 75.8144 199.901 75.5698 200.384 75.2214C199.505 77.6348 203.133 82.6565 203.133 82.6565C203.556 83.2786 204.524 82.8912 204.524 82.8912C206.862 82.5367 211.164 75.82 211.867 74.7025C212.174 74.9499 212.527 75.1342 212.905 75.2448Z" fill="black"/>
<path opacity="0.1" d="M217.368 120.151C215.995 120.464 208.404 122.142 205.525 121.722C202.358 121.252 196.2 120.952 196.2 120.952C196.2 120.952 192.278 121.163 191.07 120.612C191.07 120.466 191.07 120.377 191.07 120.377L193.307 117.7C193.307 117.7 214.943 116.078 216.569 117.7C216.975 118.107 217.222 119.013 217.368 120.151Z" fill="black"/>
<path d="M203.131 82.8889C203.131 82.8889 199.054 77.2544 200.591 75.0476L193.704 77.8648C193.704 77.8648 189.559 77.3624 188.065 83.5439C187.826 84.5712 187.74 85.628 187.809 86.6804C187.865 87.6195 187.738 89.2628 186.674 91.3758C184.975 94.7729 185.361 102.572 188.838 103.349C192.316 104.126 193.549 103.734 193.549 103.734C193.549 103.734 193.079 117.862 191.077 119.485C189.075 121.107 196.2 120.719 196.2 120.719C196.2 120.719 202.358 121.029 205.528 121.492C208.697 121.954 217.581 119.87 217.581 119.87C217.581 119.87 216.268 113.925 215.803 110.143C215.338 106.361 214.254 98.3038 214.254 98.3038L222.135 87.6359C222.135 87.6359 223.526 81.1891 218.658 78.332C213.789 75.4749 211.959 74.7753 211.959 74.7753C211.959 74.7753 207.067 82.7339 204.517 83.1189C204.522 83.1189 203.554 83.5087 203.131 82.8889Z" fill="#FFD037"/>
<path opacity="0.1" d="M194.089 85.1262C194.089 85.1262 194.014 87.6758 194.477 88.6783C194.94 89.6807 196.641 95.2518 196.641 95.2518H192.776C192.776 95.2518 194.862 93.0121 194.71 91.9298C194.557 90.8475 194.089 85.1262 194.089 85.1262Z" fill="black"/>
<path d="M205.527 104.351C205.527 104.351 196.993 102.267 196.199 100.492C195.405 98.7169 193.213 94.7423 193.213 94.7423L194.113 93.5309L198.262 96.7848C198.262 96.7848 203.197 100.722 205.527 101.109C207.858 101.497 205.527 104.351 205.527 104.351Z" fill="#FBBEBE"/>
<path opacity="0.05" d="M205.527 104.351C205.527 104.351 196.993 102.267 196.199 100.492C195.405 98.7169 193.213 94.7423 193.213 94.7423L194.113 93.5309L198.262 96.7848C198.262 96.7848 203.197 100.722 205.527 101.109C207.858 101.497 205.527 104.351 205.527 104.351Z" fill="black"/>
<path d="M212.905 94.3151V98.94H212.163C208.486 98.9393 204.87 99.8749 201.655 101.659L200.259 102.431L199.886 102.64L197.489 97.2403L199.731 95.233H199.846C200.393 95.287 202.764 95.4842 203.77 95.1462C204.724 94.8222 205.908 93.7962 208.718 94.5123C210.102 94.8668 211.286 96.4162 212.628 95.9326L212.905 94.3151Z" fill="#FBBEBE"/>
<path opacity="0.1" d="M220.363 85.8916L221.907 87.6288V91.8382C221.907 91.8382 220.594 105.117 216.423 106.584C212.252 108.051 204.802 105.734 204.802 105.734C204.802 105.734 202.877 100.64 203.777 100.335C204.677 100.029 211.731 98.1653 211.731 98.1653C211.731 98.1653 211.632 90.3756 213.176 88.0585C213.176 88.0585 212.173 80.8018 215.65 80.6468C219.128 80.4919 220.363 85.8916 220.363 85.8916Z" fill="black"/>
<path d="M220.598 85.8916L222.144 87.6288V91.8382C222.144 91.8382 220.831 105.117 216.658 106.584C212.485 108.051 205.036 105.734 205.036 105.734C205.036 105.734 203.112 100.64 204.014 100.335C204.916 100.029 211.968 98.1653 211.968 98.1653C211.968 98.1653 211.867 90.3756 213.413 88.0585C213.413 88.0585 212.407 80.8018 215.885 80.6468C219.362 80.4919 220.598 85.8916 220.598 85.8916Z" fill="#FFD037"/>
<path opacity="0.1" d="M209.802 68.0492C209.868 67.5407 209.808 67.0237 209.626 66.5443C209.407 66.0748 208.897 65.7203 208.399 65.84C207.739 65.9949 207.459 66.8542 206.806 67.0608C206.258 67.2345 205.662 66.8471 205.396 66.3377C205.131 65.8282 205.128 65.2296 205.128 64.6568C205.128 64.0135 205.128 63.3679 205.128 62.7223C205.128 62.018 205.105 61.262 204.672 60.7103C204.134 60.0248 202.868 59.7243 202.022 59.7524C201.459 59.7588 200.919 59.9757 200.509 60.3605C200.058 60.7455 199.534 61.0272 198.918 60.9263C198.661 60.888 198.421 60.7776 198.225 60.6081C198.028 60.4385 197.884 60.2167 197.809 59.9684V59.9449C198.465 59.0741 199.294 58.3486 200.245 57.8145C201.195 57.2804 202.247 56.9493 203.332 56.8421C204.417 56.735 205.513 56.854 206.55 57.1918C207.587 57.5296 208.542 58.0788 209.356 58.8046C210.17 59.5304 210.823 60.417 211.276 61.4084C211.729 62.3997 211.971 63.4742 211.987 64.5638C212.003 65.6534 211.792 66.7344 211.368 67.7385C210.944 68.7425 210.317 69.6478 209.524 70.3968C209.66 69.62 209.753 68.8363 209.802 68.0492Z" fill="black"/>
<path d="M198.918 60.6985C198.661 60.6591 198.42 60.5481 198.224 60.3783C198.027 60.2084 197.882 59.9866 197.806 59.7383C197.743 59.4894 197.759 59.2242 197.687 58.9776C197.506 58.3696 196.857 58.055 196.422 57.5925C195.553 56.6699 195.609 55.1533 196.225 54.0428C196.723 53.1483 197.687 52.3994 198.697 52.5685C199.322 52.6765 199.872 53.1202 200.497 53.1624C201.122 53.2047 201.672 52.8596 202.219 52.606C203.561 51.9971 205.071 51.863 206.5 52.2257C206.938 52.3137 207.344 52.519 207.675 52.8197C207.899 53.1019 208.109 53.3958 208.302 53.7001C209.021 54.6157 210.311 54.7964 211.46 55.003C212.609 55.2096 213.909 55.6651 214.28 56.7685C214.531 57.501 214.28 58.2945 214.144 59.0551C214.098 59.2104 214.109 59.3766 214.174 59.5247C214.355 59.8205 214.804 59.696 215.142 59.7594C215.793 59.8979 215.96 60.7361 215.986 61.4028C216.012 62.1635 216.033 62.9249 216.047 63.6871C216.066 63.9707 216.043 64.2554 215.979 64.5323C215.838 64.929 215.614 65.2915 215.323 65.5958L212.771 68.6595C211.639 70.0165 210.438 71.5988 210.657 73.3549C210.121 73.5897 209.482 73.1319 209.308 72.5708C209.134 72.0097 209.273 71.3969 209.393 70.8311C209.601 69.8365 209.737 68.8284 209.801 67.8143C209.868 67.3067 209.807 66.7904 209.625 66.3118C209.407 65.8423 208.897 65.4878 208.399 65.6075C207.736 65.7625 207.459 66.6217 206.806 66.8283C206.258 67.002 205.661 66.6147 205.396 66.1052C205.13 65.5958 205.128 64.9995 205.128 64.4266V62.4898C205.128 61.7855 205.104 61.0295 204.672 60.4778C204.134 59.7923 202.868 59.4918 202.022 59.52C201.46 59.5269 200.921 59.7438 200.511 60.128C200.057 60.5154 199.533 60.7995 198.918 60.6985Z" fill="#7C5C5C"/>
<path opacity="0.1" d="M200.697 84.9337L203.117 94.8668C203.117 94.8668 205.025 94.855 200.697 84.9337Z" fill="black"/>
<path opacity="0.1" d="M208.965 83.2739C208.965 83.2739 205.798 88.4576 207.034 93.8197L207.624 93.862C207.624 93.862 206.571 91.3805 208.965 83.2739Z" fill="black"/>
<path opacity="0.1" d="M210.965 112.613C210.965 112.613 214.856 111.326 215.138 114.31C215.147 114.31 214.414 112.265 210.965 112.613Z" fill="black"/>
<path opacity="0.1" d="M199.731 95.4724C199.731 95.4724 198.958 100.872 200.349 103.039C200.349 103.039 197.529 104.196 193.549 103.966L193.079 95.4724H199.731Z" fill="black"/>
<path opacity="0.1" d="M200.259 102.431L199.886 102.64L197.489 97.2402L199.731 95.2329H199.846C199.811 95.5005 199.186 100.142 200.259 102.431Z" fill="black"/>
<path d="M199.731 95.2423C199.731 95.2423 198.958 100.642 200.349 102.807C200.349 102.807 197.53 103.966 193.549 103.734L190.845 95.2423H199.731Z" fill="#FFD037"/>
<path d="M193.049 185.412C193.004 185.798 192.832 186.157 192.56 186.434C192.288 186.711 191.932 186.89 191.547 186.943C189.449 187.255 184.395 188.053 183.119 188.662C181.495 189.434 175.083 188.896 174.773 188.122C174.728 187.966 174.715 187.802 174.734 187.641C174.753 187.48 174.804 187.324 174.883 187.182C175.103 186.712 175.466 186.323 175.92 186.07C176.07 185.986 176.227 185.917 176.39 185.863C177.597 185.462 179.879 184.607 180.494 183.71C180.494 183.71 183.34 181.224 184.151 179.881C184.303 179.617 184.518 179.394 184.777 179.233C185.036 179.072 185.331 178.976 185.636 178.956C186.312 178.926 187.066 179.266 187.377 180.747C187.377 180.747 191.082 182.86 192.076 181.008C192.076 181.008 192.231 183.853 192.847 184.633C192.931 184.743 192.992 184.868 193.027 185.002C193.061 185.136 193.069 185.275 193.049 185.412Z" fill="#A27772"/>
<g opacity="0.1">
<path opacity="0.1" d="M214.132 59.1632V59.1256C214.242 58.5481 214.409 57.9518 214.367 57.3719C214.318 57.8458 214.239 58.3162 214.132 58.7805C214.103 58.9064 214.103 59.0373 214.132 59.1632Z" fill="black"/>
<path opacity="0.1" d="M209.623 66.3894C209.746 66.6676 209.811 66.968 209.813 67.2721C209.848 66.8528 209.783 66.4312 209.623 66.0419C209.407 65.5724 208.897 65.2179 208.399 65.3376C207.736 65.4926 207.459 66.3518 206.803 66.5584C206.258 66.7321 205.661 66.3448 205.394 65.8353C205.126 65.3259 205.126 64.7272 205.126 64.1544C205.126 63.5088 205.126 62.8655 205.126 62.2199C205.126 61.5156 205.102 60.7596 204.67 60.2079C204.129 59.52 202.865 59.2219 202.019 59.2477C201.456 59.2549 200.916 59.4727 200.506 59.8581C200.053 60.2431 199.531 60.5249 198.913 60.4239C198.657 60.3848 198.417 60.2742 198.22 60.1047C198.024 59.9352 197.88 59.7139 197.804 59.466C197.741 59.2172 197.757 58.9496 197.684 58.7031C197.503 58.0973 196.855 57.7804 196.42 57.3203C196.012 56.8685 195.781 56.2851 195.769 55.6769C195.737 56.0337 195.779 56.3932 195.89 56.7335C196.002 57.0738 196.183 57.3877 196.42 57.656C196.855 58.1255 197.503 58.4331 197.684 59.0388C197.757 59.2735 197.741 59.5529 197.804 59.8018C197.88 60.0496 198.024 60.271 198.22 60.4404C198.417 60.6099 198.657 60.7205 198.913 60.7596C199.531 60.8606 200.053 60.5789 200.506 60.1938C200.916 59.8084 201.456 59.5906 202.019 59.5834C202.865 59.5576 204.134 59.8558 204.67 60.5436C205.102 61.0953 205.123 61.8536 205.126 62.5556C205.126 63.2012 205.126 63.8445 205.126 64.4901C205.126 65.0629 205.126 65.6639 205.394 66.1687C205.661 66.6734 206.251 67.0679 206.803 66.8941C207.452 66.6875 207.743 65.8283 208.399 65.6733C208.897 65.5653 209.407 65.9363 209.623 66.3894Z" fill="black"/>
<path opacity="0.1" d="M215.974 64.2647C215.832 64.661 215.608 65.0227 215.316 65.3259L212.764 68.3896C211.69 69.6785 210.556 71.1716 210.65 72.8173C210.727 71.3078 211.78 69.9344 212.764 68.737L215.316 65.6733C215.608 65.3702 215.832 65.0085 215.974 64.6122C216.038 64.3345 216.061 64.049 216.042 63.7646C216.038 63.9334 216.015 64.1011 215.974 64.2647Z" fill="black"/>
<path opacity="0.1" d="M209.32 72.3008C209.278 72.1666 209.252 72.0279 209.242 71.8876C209.221 72.1438 209.247 72.4017 209.32 72.6483C209.493 73.207 210.13 73.6695 210.668 73.4301C210.653 73.3179 210.644 73.2051 210.64 73.092C210.104 73.3056 209.484 72.8502 209.32 72.3008Z" fill="black"/>
</g>
<path opacity="0.1" d="M183.636 180.588C183.636 180.588 184.444 181.997 187.372 180.757L183.636 180.588Z" fill="black"/>
<path opacity="0.1" d="M208.38 180.931C208.38 180.931 210.903 183.9 214.085 181.905L208.38 180.931Z" fill="black"/>
<path opacity="0.1" d="M215.725 145.812C215.725 145.812 213.942 146.924 213.885 147.561C213.829 148.197 214.806 147.091 214.806 147.091L215.725 145.812Z" fill="black"/>
<path opacity="0.1" d="M216.43 154.348C215.81 154.863 215.039 155.164 214.233 155.205C212.899 155.263 213.012 157.001 213.883 156.479C214.755 155.958 216.43 154.348 216.43 154.348Z" fill="black"/>
<path opacity="0.1" d="M216.769 155.463C216.769 155.463 215.913 159.663 215.218 158.853L216.769 155.463Z" fill="black"/>
<path d="M93.0118 126.037C93.0118 126.037 91.2026 130.434 90.7421 134.653C90.5752 136.174 90.3591 137.55 90.1476 138.691C89.6782 141.267 89.4844 143.885 89.5696 146.502L89.6048 147.598L90.1922 150.502C90.1922 150.502 91.602 159.83 87.7087 166.701C87.7087 166.701 85.4013 170.817 85.3308 172.765L83.7683 173.369L80.6103 172.484C80.6103 172.484 82.1353 167.021 81.6395 163.191L81.9238 150.749C81.9238 150.749 79.8725 147.636 79.8021 142.001L78.5967 126.539L93.0118 126.037Z" fill="#FDC2CC"/>
<path d="M78.5968 123.835C78.5968 123.835 78.2091 129.864 75.225 134.019C72.2409 138.175 71.6065 139.978 71.6065 139.978L67.9317 147.401C67.5061 148.261 67.3844 149.24 67.5863 150.178L67.9481 151.85C67.9481 151.85 69.9359 158.588 67.9129 163.802L66.9542 173.873H61.3479C61.3479 173.873 60.878 165.504 60.6736 164.795C60.4692 164.086 59.3249 150.361 59.3249 150.361C59.3249 150.361 56.9752 147.168 59.1463 142.241C59.1463 142.241 64.0453 123.8 65.3564 124.119C66.6675 124.438 78.5968 123.835 78.5968 123.835Z" fill="#FDC2CC"/>
<g opacity="0.1">
<path opacity="0.1" d="M67.3796 151.862L67.0202 150.19C66.8127 149.248 66.9338 148.264 67.3632 147.401L71.0381 139.97C71.0381 139.97 71.6748 138.163 74.6565 134.012C77.5208 130.021 77.9931 124.302 78.0259 123.863L78.5969 123.835C78.5969 123.835 78.2092 129.864 75.2252 134.019C72.2411 138.175 71.6067 139.978 71.6067 139.978L67.9318 147.401C67.5063 148.261 67.3846 149.24 67.5864 150.178L67.9483 151.85C67.9483 151.85 69.9361 158.588 67.913 163.802L66.9544 173.873H66.3857L67.3444 163.802C69.3675 158.588 67.3796 151.862 67.3796 151.862Z" fill="black"/>
</g>
<path opacity="0.1" d="M84.7717 172.772C84.8422 170.824 87.1496 166.708 87.1496 166.708C91.0547 159.83 89.6331 150.509 89.6331 150.509L89.0316 147.603L88.9964 146.506C88.9112 143.89 89.105 141.271 89.5744 138.696C89.7835 137.555 89.9997 136.179 90.1665 134.658C90.6106 130.596 92.3047 126.37 92.4292 126.06L93.012 126.037C93.012 126.037 91.2027 130.434 90.7422 134.653C90.5754 136.174 90.3592 137.55 90.1477 138.691C89.6783 141.267 89.4845 143.885 89.5697 146.502L89.605 147.598L90.1924 150.502C90.1924 150.502 91.6022 159.83 87.7088 166.701C87.7088 166.701 85.4014 170.817 85.3309 172.765L83.7684 173.369L83.4395 173.277L84.7717 172.772Z" fill="black"/>
<path d="M82.9623 172.702C83.3854 172.869 83.8438 172.928 84.2955 172.872C84.7471 172.816 85.1774 172.648 85.547 172.383C85.0298 173.891 84.9564 175.515 85.3355 177.064C85.9746 179.618 79.3721 175.007 79.3721 175.007L80.7819 171.789C80.7819 171.789 81.3293 172.808 82.9623 172.702Z" fill="#D39999"/>
<path opacity="0.1" d="M83.4536 172.845C83.8167 172.918 84.1913 172.914 84.5528 172.834C84.9143 172.753 85.2547 172.597 85.5519 172.376C85.0347 173.884 84.9613 175.508 85.3404 177.057C85.9795 179.611 79.377 175 79.377 175L80.7867 171.782C80.7867 171.782 81.1956 172.566 82.3963 172.688C82.7605 172.73 83.1082 172.779 83.4536 172.845Z" fill="black"/>
<path d="M81.4 173.909C81.4 173.909 83.1388 173.801 83.9189 175.362L84.8775 176.106L85.3475 175.007C86.3674 176.803 86.7499 178.89 86.433 180.931C86.433 180.931 86.574 181.921 85.1196 182.384C85.1196 182.384 84.3747 182.738 84.5509 184.086C84.7272 185.433 81.9264 187.42 78.2703 186.603C78.2703 186.603 75.0748 186.675 74.6847 185.929C74.2947 185.182 74.9338 183.198 74.9338 183.198C74.9338 183.198 76.2472 181.118 76.8488 180.351C76.8488 180.351 78.4113 177.134 78.5899 175.655C78.7684 174.176 80.4766 173.092 81.4 173.909Z" fill="#7E5659"/>
<path d="M67.0084 175.221L67.0366 173.017C67.0366 173.017 63.8622 173.93 61.2917 172.897C61.2917 172.897 61.5079 175.113 61.1507 175.416C60.7936 175.719 62.3396 178.571 62.3396 178.571L64.0666 180.379L67.0366 179.299L67.8426 176.763C67.8426 176.763 67.2199 175.221 67.0084 175.221Z" fill="#D39999"/>
<path opacity="0.1" d="M67.0084 175.221L67.0366 173.017C67.0366 173.017 63.8622 173.93 61.2917 172.897C61.2917 172.897 61.5079 175.113 61.1507 175.416C60.7936 175.719 62.3396 178.571 62.3396 178.571L64.0666 180.379L67.0366 179.299L67.8426 176.763C67.8426 176.763 67.2199 175.221 67.0084 175.221Z" fill="black"/>
<path d="M60.9554 174.423C60.9554 174.423 62.6424 174.618 62.4286 176.77C62.2148 178.923 62.5179 176.77 62.5179 176.77C62.5179 176.77 64.3107 177.496 64.9498 178.508C65.5889 179.52 66.7426 177.604 66.8295 177.055C66.9165 176.505 67.6354 176.277 67.6354 176.277C67.6354 176.277 70.455 181.501 69.9569 182.938C69.4588 184.375 63.4061 184.706 63.4061 184.706C63.4061 184.706 62.3041 184.086 59.7664 186.018C57.2288 187.95 51.9585 186.488 51.9585 186.488C51.9585 186.488 47.6634 184.696 50.2738 182.731C52.8843 180.766 54.6559 181.064 54.6559 181.064L58.5423 177.322C58.5423 177.322 59.0569 174.315 60.9554 174.423Z" fill="#7E5659"/>
<path opacity="0.1" d="M78.3452 125.065V127.476C78.3452 127.476 82.9975 128.516 93.5968 126.577C93.5968 126.577 93.7214 125.901 93.8201 124.748C90.5681 125.269 81.5995 126.523 78.3452 125.065Z" fill="black"/>
<path opacity="0.1" d="M64.9196 124.734C64.9196 124.734 75.5682 126.861 78.0777 126.577L78.3479 127.476V125.065C77.1355 125.567 68.4793 123.483 65.3425 122.701C65.2838 122.856 65.2227 123.008 65.1546 123.17C64.9065 123.652 64.824 124.201 64.9196 124.734Z" fill="black"/>
<path opacity="0.1" d="M2.88867 95.4349C7.11806 111.904 16.0726 126.14 30.2246 133.04C59.647 147.382 125.961 139.985 175.462 131.495C201.073 127.103 223.569 114.991 239.92 97.9235L2.88867 95.4349Z" fill="#009F79"/>
<path opacity="0.1" d="M262.472 17.9166H235.312C234.02 17.9166 232.962 16.9541 232.962 15.7779C232.962 14.6017 234.017 13.6391 235.312 13.6391H240.011C238.719 13.6391 237.662 12.6766 237.662 11.5004C237.662 10.3242 238.717 9.36401 240.011 9.36401H236.658C235.366 9.36401 234.309 8.40146 234.309 7.22527C234.309 6.04908 235.364 5.08653 236.658 5.08653H250.834C247.688 3.75304 244.02 2.80692 239.776 2.31156C201.122 -2.21243 187.32 0.778523 182.445 3.85634C176.384 7.73219 169.643 10.4241 162.578 11.7892C138.729 16.2709 94.1281 21.6635 53.7023 10.0613C33.6103 4.2977 18.6783 14.0523 9.72607 30.3242H267.187C266.851 25.5912 265.846 21.2198 263.999 17.3954C263.563 17.7357 263.025 17.9193 262.472 17.9166Z" fill="#009F79"/>
<path opacity="0.1" d="M0.583411 61.0601C-0.458703 70.6384 -0.103331 80.3171 1.63841 89.7934L240.1 97.738C246.671 90.8792 252.247 83.1349 256.668 74.7306L0.583411 61.0601ZM94.8916 81.5577H90.1923C91.4823 81.5577 92.542 82.5203 92.542 83.6964C92.542 84.8726 91.4846 85.8328 90.1923 85.8328H63.0444C61.7544 85.8328 60.6947 84.8726 60.6947 83.6964C60.6947 82.5203 61.752 81.5577 63.0444 81.5577H67.7437C66.4537 81.5577 65.394 80.5952 65.394 79.419C65.394 78.2428 66.4514 77.2802 67.7437 77.2802H64.386C63.0961 77.2802 62.0364 76.32 62.0364 75.1438C62.0364 73.9676 63.0937 73.0051 64.386 73.0051H91.5457C92.838 73.0051 93.8954 73.9676 93.8954 75.1438C93.8954 76.32 92.8404 77.2802 91.5457 77.2802H94.8916C96.1839 77.2802 97.2413 78.2428 97.2413 79.419C97.2413 80.5952 96.191 81.5577 94.8916 81.5577Z" fill="#009F79"/>
<path opacity="0.1" d="M267.199 30.472L6.85699 36.2403C3.68496 43.6567 1.58671 52.0402 0.618652 60.7314H262.636C264.342 55.6459 265.608 50.4235 266.419 45.1216C267.199 40.013 267.512 35.0735 267.199 30.472ZM53.4789 49.3733H48.7796C50.0695 49.3733 51.1292 50.3358 51.1292 51.512C51.1292 52.6882 50.0719 53.6508 48.7796 53.6508H21.6222C20.3323 53.6508 19.2726 52.6882 19.2726 51.512C19.2726 50.3358 20.3299 49.3733 21.6222 49.3733H26.3216C25.0316 49.3733 23.9719 48.4131 23.9719 47.2369C23.9719 46.0607 25.0292 45.0981 26.3216 45.0981H22.9639C21.6739 45.0981 20.6142 44.1356 20.6142 42.9594C20.6142 41.7832 21.6716 40.8206 22.9639 40.8206H50.1236C51.4159 40.8206 52.4732 41.7832 52.4732 42.9594C52.4732 44.1356 51.4183 45.0981 50.1236 45.0981H53.4789C54.7689 45.0981 55.8286 46.0607 55.8286 47.2369C55.8286 48.4131 54.7689 49.3733 53.4789 49.3733Z" fill="#009F79"/>
<path d="M135.686 70.5071C135.179 67.0936 132.075 59.1279 132.075 59.1279C132.021 58.8931 131.96 58.6584 131.892 58.4236C129.69 50.8641 126.642 50.2067 126.642 50.2067L115.726 47.859C115.817 47.9161 115.897 47.9903 115.961 48.0773C115.903 48.0827 115.846 48.0913 115.789 48.1032C115.289 47.5136 114.959 46.7996 114.833 46.0372C114.812 45.9245 114.793 45.8024 114.779 45.6874C115.563 44.9238 116.175 44.0015 116.573 42.9824C116.971 41.9633 117.146 40.8709 117.087 39.7786C117.027 38.6862 116.735 37.6191 116.229 36.6489C115.724 35.6787 115.016 34.8278 114.154 34.1532C114.039 34.064 113.919 33.9771 113.804 33.895C114.318 33.348 114.335 32.5873 113.95 31.8267C113.09 30.0424 111.219 28.9132 109.297 28.3615C107.829 27.9412 106.243 27.8051 104.781 28.2652C103.952 28.5282 103.195 28.9695 102.417 29.3616C100.968 30.0847 99.3629 30.6575 98.2797 31.8478C98.0259 32.1248 97.7909 32.4793 97.8661 32.8456C97.9225 33.1179 98.1387 33.3292 98.2773 33.571C98.5898 34.1133 98.5123 34.7965 98.2985 35.3881C98.0847 35.9797 97.7721 36.5291 97.6241 37.1348C97.4761 37.7405 97.5325 38.4542 97.9883 38.8885C98.2069 39.0571 98.4344 39.2138 98.6697 39.358C98.9191 39.5704 99.1382 39.8161 99.3206 40.0882C99.7529 40.6673 100.184 41.2487 100.613 41.8325C101.219 42.6062 101.76 43.4283 102.232 44.2905C102.554 44.9244 102.803 45.6005 103.233 46.1687C103.359 46.3345 103.503 46.4857 103.663 46.6194L103.536 46.5701C103.723 46.7601 103.946 46.91 104.193 47.0105C104.44 47.111 104.705 47.1601 104.971 47.1547C104.995 47.1547 105.016 47.1547 105.037 47.1547C105.135 47.1526 105.229 47.1141 105.3 47.0467C105.3 47.1265 105.3 47.2064 105.3 47.2815C105.326 48.1196 105.322 49.0117 105.263 49.8498L105.162 49.7982C105.012 49.7238 104.844 49.6935 104.678 49.711C104.511 49.7284 104.353 49.7929 104.222 49.8968L94.1725 57.9541C94.1725 57.9541 91.9873 60.9403 92.2927 66.0958L90.5305 73.8268C90.5305 73.8268 88.3289 80.3862 90.023 85.0698C91.7171 89.7535 92.6992 92.4322 92.6992 92.4322C92.6992 92.4322 93.3759 97.7544 94.3933 98.1887C95.4107 98.623 95.8501 98.8578 95.8501 98.8578L96.0522 100.13C96.0522 100.13 96.1203 100.255 96.2402 100.464C96.9803 101.75 99.7224 106.291 101.315 105.805C101.516 107.038 101.602 108.286 101.574 109.535L103.151 120.111C103.151 120.111 104.25 122.987 104.182 124.495C104.114 126.002 105.465 128.15 105.465 128.15C104.644 129.651 104.403 131.401 104.788 133.068C105.432 135.886 106.245 148.864 106.245 148.864L107.42 152.009L107.387 155.698C107.29 156.299 107.04 156.865 106.659 157.341C105.897 158.167 105.954 159.123 104.119 160.252C102.283 161.381 101.12 161.809 101.12 163.304C101.118 163.513 101.099 163.721 101.064 163.926C100.895 165.025 100.566 165.621 103.94 165.941C107.904 166.316 110.547 163.734 110.547 163.734C110.547 163.734 111.13 162.677 113.874 162.25C113.874 162.25 114.814 162.201 114.864 161.372C114.882 161.086 114.878 160.539 114.864 159.935C114.819 158.787 114.708 157.447 114.563 157.381C114.38 157.299 114.06 156.144 113.95 155.726H114.713C114.713 155.726 115.418 150.404 114.713 146.957C114.008 143.511 114.645 141.067 114.645 141.067L114.509 131.965C114.509 131.965 113.569 130.96 114.307 129.185C115.044 127.41 114.307 118.644 114.307 118.644C114.307 118.644 114.579 115.498 115.357 114.761C116.135 114.024 115.395 110.153 115.357 109.951L116.743 114.597C116.743 114.597 117.352 123.832 118.642 125.504L119.013 129.688C119.013 129.688 121.654 133.538 121.147 135.611C120.639 137.684 121.689 145.182 121.689 145.182V152.848C121.689 152.848 120.503 155.925 122.159 157.031L122.864 157.003C122.629 157.221 122.448 157.55 122.173 157.834C121.856 158.16 121.675 159.402 121.574 160.47C121.49 161.374 121.461 162.151 121.461 162.151C121.461 162.151 122.166 163.278 123.494 163.356C124.821 163.433 129.196 166.758 129.196 166.758C129.196 166.758 133.517 166.758 134.636 166.523L134.702 166.506C135.061 166.394 135.363 166.147 135.545 165.819C135.769 165.437 135.841 164.985 135.747 164.553C135.609 163.893 135.085 163.17 133.924 162.555C131.036 161.034 130.606 159.609 130.606 159.609L128.71 156.766H128.98C128.98 156.766 128.813 153.754 130.876 150.373L130.743 135.482C130.743 135.482 131.588 130.361 130.134 127.582C130.134 127.582 130.014 124.638 130.987 123.734C131.96 122.83 129.692 113.695 129.692 113.695C129.692 113.695 129.222 108.791 128.67 104.316C130.956 106.483 133.327 98.6817 133.727 97.2942H133.785L133.759 97.1933C133.776 97.1276 133.785 97.0947 133.785 97.0947C133.785 97.0947 133.278 95.2917 133.649 95.6579C134.02 96.0241 134.937 94.6531 134.937 94.6531C134.937 94.6531 134.8 87.1898 136.393 83.4288C137.987 79.6678 135.686 70.5071 135.686 70.5071ZM128.872 75.2565L128.884 75.2354C129.119 79.7922 128.839 89.5164 128.839 89.5164C128.839 89.5164 128.524 90.763 128.188 92.2303L127.954 82.9921L127.719 74.2893L128.872 75.2565ZM99.7106 72.1153C99.7106 72.1153 100.862 86.5043 99.7106 88.5796C99.384 89.1713 99.1091 90.223 98.8812 91.4227C98.5005 90.4249 97.6946 88.0819 97.9836 86.84C98.3572 85.2342 97.2388 81.0154 97.2388 80.9168C97.2388 80.8182 97.1377 78.5691 97.9437 76.8506C98.7496 75.1321 98.2209 74.3879 98.2209 74.3879C98.2209 74.3879 98.8976 71.5706 99.7106 72.1153Z" fill="url(#paint1_linear)"/>
<path d="M102.516 104.523C101.513 108.929 97.5233 102.267 96.6139 100.668C96.4965 100.459 96.4307 100.337 96.4307 100.337L96.863 98.3108L99.1492 97.3717C99.5113 97.5607 99.8543 97.784 100.174 98.0384C101.426 99.0221 103.289 101.109 102.516 104.523Z" fill="#D38884"/>
<path d="M133.468 97.3131C133.468 97.3131 133.468 97.3459 133.442 97.4117C133.442 97.4399 133.424 97.4774 133.412 97.5173C133.019 98.8931 130.693 106.638 128.447 104.488C125.989 102.14 127.183 96.7121 127.183 96.7121H127.199L132.369 96.1838L133.393 97.2356L133.468 97.3131Z" fill="#D38884"/>
<path d="M130.477 135.428L130.609 150.218C128.581 153.575 128.748 156.557 128.748 156.557L122.065 156.82C120.435 155.724 121.596 152.669 121.596 152.669V145.053C121.596 145.053 120.564 137.613 121.062 135.552C121.56 133.491 118.969 129.683 118.969 129.683L118.602 125.53C117.338 123.87 116.739 114.702 116.739 114.702L115.383 110.073C115.421 110.272 116.126 114.137 115.383 114.848C114.641 115.559 114.352 118.7 114.352 118.7C114.352 118.7 115.082 127.406 114.352 129.164C113.621 130.923 114.549 131.923 114.549 131.923L114.683 140.959C114.683 140.959 114.051 143.384 114.749 146.805C115.446 150.225 114.749 155.51 114.749 155.51H107.58L107.613 151.822L106.452 148.699C106.452 148.699 105.653 135.81 105.021 133.019C104.643 131.365 104.878 129.63 105.684 128.136C105.684 128.136 104.356 126.011 104.422 124.516C104.488 123.02 103.397 120.168 103.397 120.168L101.851 109.671C101.894 107.651 101.636 105.636 101.085 103.692C100.188 100.701 98.8579 96.7802 98.8579 96.7802L100.359 96.914L107.935 97.5878C107.935 97.5878 126.354 96.3505 127.178 97.3788C127.352 97.715 127.47 98.0774 127.526 98.4517C128.353 102.163 129.446 113.791 129.446 113.791C129.446 113.791 131.673 122.861 130.717 123.757C129.761 124.654 129.878 127.575 129.878 127.575C131.311 130.333 130.477 135.428 130.477 135.428Z" fill="#444053"/>
<path d="M117.077 49.6269L110.945 56.1041C110.945 56.1041 103.513 55.5571 104.81 53.3644C105.47 52.2469 105.573 49.9086 105.515 47.8755C105.461 45.9152 105.258 44.246 105.258 44.246C105.258 44.246 115.682 39.0623 114.892 43.8961C114.722 44.807 114.712 45.7405 114.864 46.6547C115.308 49.0963 117.077 49.6269 117.077 49.6269Z" fill="#D38884"/>
<path opacity="0.1" d="M114.883 43.8961C114.712 44.807 114.703 45.7405 114.854 46.6547C114.141 47.3765 113.292 47.9494 112.355 48.34C111.418 48.7305 110.413 48.931 109.398 48.9296C107.989 48.9296 106.464 47.7722 105.324 47.1031C105.27 45.1404 105.258 44.246 105.258 44.246C105.258 44.246 115.681 39.0623 114.883 43.8961Z" fill="black"/>
<path d="M117.077 40.8558C117.078 42.5947 116.487 44.2822 115.402 45.642C114.318 47.0017 112.803 47.9532 111.106 48.3404C109.41 48.7276 107.632 48.5277 106.064 47.7735C104.496 47.0192 103.231 45.7552 102.476 44.1886C101.72 42.6219 101.52 40.8455 101.908 39.1503C102.295 37.4551 103.247 35.9415 104.608 34.8576C105.969 33.7737 107.657 33.1836 109.398 33.184C111.138 33.1844 112.827 33.7753 114.187 34.8598C115.088 35.5784 115.816 36.4906 116.316 37.5285C116.817 38.5665 117.077 39.7037 117.077 40.8558Z" fill="#D38884"/>
<path opacity="0.1" d="M127.526 98.4516C125.613 102.999 113.311 103.093 113.311 103.093V98.1347L112.566 98.0854C112.888 99.5057 112.115 102.969 112.115 102.969C102.392 104.34 100.021 98.8038 100.021 98.8038L100.359 96.9092L107.935 97.583C107.935 97.583 126.354 96.3457 127.178 97.374C127.353 97.7117 127.47 98.0757 127.526 98.4516Z" fill="black"/>
<path d="M113.311 102.494V97.536L112.566 97.4891C112.888 98.8977 112.115 102.372 112.115 102.372C104.798 103.403 101.645 100.525 100.533 99.0362C100.333 98.7798 100.162 98.5028 100.021 98.2098L102.991 81.5178L103.696 56.9516L104.76 52.6412L105.007 50.5729V50.5494H105.033L105.789 50.8734L110.317 52.829L115.461 48.9483L115.536 48.8943L115.792 48.6995L116.217 49.0399L117.275 49.8874L120.665 71.7655C120.665 71.7655 126.539 88.6101 127.639 95.409C127.684 95.6814 127.719 95.9349 127.747 96.172C128.473 102.379 113.311 102.494 113.311 102.494Z" fill="#FFD037"/>
<path d="M110.867 53.7493C111.108 53.7493 111.304 53.5538 111.304 53.3126C111.304 53.0715 111.108 52.876 110.867 52.876C110.625 52.876 110.43 53.0715 110.43 53.3126C110.43 53.5538 110.625 53.7493 110.867 53.7493Z" fill="#67647E"/>
<path d="M111.069 57.7358C111.31 57.7358 111.506 57.5403 111.506 57.2991C111.506 57.0579 111.31 56.8624 111.069 56.8624C110.828 56.8624 110.632 57.0579 110.632 57.2991C110.632 57.5403 110.828 57.7358 111.069 57.7358Z" fill="#67647E"/>
<path d="M111.506 64.1895C111.747 64.1895 111.943 63.994 111.943 63.7528C111.943 63.5117 111.747 63.3162 111.506 63.3162C111.265 63.3162 111.069 63.5117 111.069 63.7528C111.069 63.994 111.265 64.1895 111.506 64.1895Z" fill="#67647E"/>
<path d="M112.228 71.141C112.469 71.141 112.665 70.9455 112.665 70.7044C112.665 70.4632 112.469 70.2677 112.228 70.2677C111.986 70.2677 111.791 70.4632 111.791 70.7044C111.791 70.9455 111.986 71.141 112.228 71.141Z" fill="#67647E"/>
<path d="M112.665 77.6675C112.906 77.6675 113.102 77.472 113.102 77.2309C113.102 76.9897 112.906 76.7942 112.665 76.7942C112.423 76.7942 112.228 76.9897 112.228 77.2309C112.228 77.472 112.423 77.6675 112.665 77.6675Z" fill="#67647E"/>
<path d="M113.102 84.6191C113.343 84.6191 113.539 84.4236 113.539 84.1824C113.539 83.9412 113.343 83.7457 113.102 83.7457C112.86 83.7457 112.665 83.9412 112.665 84.1824C112.665 84.4236 112.86 84.6191 113.102 84.6191Z" fill="#67647E"/>
<path d="M112.928 91.4955C113.169 91.4955 113.365 91.3 113.365 91.0589C113.365 90.8177 113.169 90.6222 112.928 90.6222C112.686 90.6222 112.491 90.8177 112.491 91.0589C112.491 91.3 112.686 91.4955 112.928 91.4955Z" fill="#67647E"/>
<path opacity="0.1" d="M105.298 83.9453C105.298 83.9453 104.81 90.3381 103.912 92.1975C103.014 94.0568 102.615 99.2734 102.615 99.2734L100.531 99.0386C100.331 98.7823 100.159 98.5052 100.019 98.2122L102.989 81.5202L103.693 56.954L104.76 52.6413L105.007 50.573L105.035 50.5612C105.151 50.5063 105.279 50.4788 105.408 50.4808C105.536 50.4829 105.663 50.5144 105.778 50.573L105.876 50.6246C105.846 50.7091 105.818 50.796 105.792 50.8852C104.979 53.4278 104.676 58.1137 104.676 58.1137C104.676 58.1137 105.85 66.6852 105.973 70.6715C106.095 74.6579 105.298 83.9453 105.298 83.9453Z" fill="black"/>
<path opacity="0.1" d="M100.174 98.0455C100.151 98.099 100.124 98.1508 100.094 98.2004C99.2855 99.5644 97.2366 100.431 96.6139 100.668C96.4965 100.459 96.4307 100.337 96.4307 100.337L96.863 98.3108L99.1492 97.3717C99.5115 97.5629 99.8546 97.7886 100.174 98.0455Z" fill="black"/>
<path d="M94.6356 65.4221L92.7394 66.5514L91.0124 74.2259C91.0124 74.2259 88.8508 80.7361 90.512 85.3868C92.1732 90.0376 93.1389 92.6999 93.1389 92.6999C93.1389 92.6999 93.8038 97.9822 94.8024 98.4142C95.801 98.8461 96.231 99.0786 96.231 99.0786L96.4307 100.342C96.4307 100.342 99.1376 99.4237 100.094 97.8061C101.05 96.1886 99.389 92.1717 99.389 92.1717C99.389 92.1717 97.9604 88.7487 98.3269 87.1547C98.6935 85.5606 97.5938 81.3747 97.5938 81.2854C97.5938 81.1962 97.4951 78.9589 98.2987 77.2474C99.1023 75.536 98.5666 74.8058 98.5666 74.8058L98.0661 69.9226L94.6356 65.4221Z" fill="#67647E"/>
<path opacity="0.1" d="M127.683 97.0149C127.683 97.0149 122.662 98.9072 121.067 97.2497C119.471 95.5922 119.636 87.8143 119.636 87.8143C119.636 87.8143 118.109 73.4629 117.143 71.1058C116.177 68.7488 116.673 51.7374 116.673 51.7374C116.673 51.7374 116.024 49.5377 115.458 48.9625C115.422 48.9255 115.382 48.8932 115.338 48.8662L115.533 48.9085L116.215 49.054L117.272 49.9015L120.663 71.7796C120.663 71.7796 126.537 88.6243 127.636 95.4232L127.683 97.0149Z" fill="black"/>
<path opacity="0.1" d="M133.468 97.5126H133.412C132.78 97.5947 127.202 98.2685 127.178 97.1088C127.177 96.9746 127.184 96.8406 127.199 96.7073L132.369 96.1791L133.393 97.2308C133.412 97.2989 133.426 97.3576 133.44 97.4046L133.468 97.5126Z" fill="black"/>
<path d="M128.116 57.7357L131.781 59.6467C131.781 59.6467 134.836 67.549 135.324 70.9368C135.324 70.9368 137.587 80.0129 136.029 83.7457C134.471 87.4785 134.601 94.8879 134.601 94.8879C134.601 94.8879 133.703 96.2495 133.337 95.8856C132.97 95.5217 133.47 97.313 133.47 97.313C133.47 97.313 127.204 98.1441 127.178 96.9139C127.152 95.6837 128.616 89.8051 128.616 89.8051C128.616 89.8051 129.016 75.8199 128.449 73.6272C127.883 71.4345 128.116 57.7357 128.116 57.7357Z" fill="#67647E"/>
<path opacity="0.1" d="M117.178 72.6318C117.178 72.6318 115.115 77.6794 114.45 78.0127C113.785 78.3461 114.584 79.6726 114.584 79.6726C114.584 79.6726 118.341 74.4255 117.178 72.6318Z" fill="black"/>
<path opacity="0.1" d="M115.947 54.9255C115.97 54.8293 113.487 57.3601 112.822 57.7428C112.157 58.1254 115.249 57.7193 115.947 54.9255Z" fill="black"/>
<path opacity="0.1" d="M109.032 72.2327C109.032 72.2327 105.242 74.6813 105.742 75.6509C106.243 76.6205 109.032 72.2327 109.032 72.2327Z" fill="black"/>
<path opacity="0.1" d="M115.914 107.976C115.914 107.976 119.14 110.049 124.159 110.559L115.914 107.976Z" fill="black"/>
<path opacity="0.1" d="M108.167 112.96C108.167 112.96 111.158 116.717 112.523 116.813C113.888 116.909 108.167 112.96 108.167 112.96Z" fill="black"/>
<path opacity="0.1" d="M91.5762 78.0127C91.6091 78.1113 95.533 78.6442 96.064 79.9073C96.064 79.9073 92.2082 78.1113 91.5997 78.1113" fill="black"/>
<path opacity="0.1" d="M97.0954 88.2769C97.0954 88.2769 93.8364 89.3075 94.069 90.8593C94.3016 92.4111 93.7377 90.1409 97.0954 88.2769Z" fill="black"/>
<path opacity="0.1" d="M95.5776 96.1839C95.5776 96.1839 96.7642 94.5569 97.8944 94.8551C99.0246 95.1532 95.5776 96.1839 95.5776 96.1839Z" fill="black"/>
<path opacity="0.1" d="M114.187 34.8599C114.073 34.9705 113.945 35.066 113.807 35.1439C112.867 35.6909 112.608 36.5338 112.162 37.5057C111.746 38.3955 111.288 39.3369 110.449 39.8417C109.366 40.4943 107.939 40.2549 106.814 40.823C106.314 41.0829 105.904 41.4863 105.636 41.9814C105.368 42.4764 105.255 43.0402 105.31 43.6003C105.382 44.0325 105.489 44.458 105.63 44.8727C105.886 45.7707 106.001 46.7028 105.973 47.636C105.975 47.6633 105.975 47.6908 105.973 47.7181C105.01 47.2374 104.159 46.5598 103.475 45.7292C102.791 44.8986 102.29 43.9337 102.003 42.8969C101.717 41.8602 101.651 40.7748 101.812 39.7113C101.972 38.6478 102.355 37.6298 102.934 36.7235C103.514 35.8172 104.278 35.0428 105.176 34.4506C106.075 33.8583 107.088 33.4615 108.15 33.2857C109.212 33.11 110.299 33.1593 111.341 33.4305C112.383 33.7017 113.355 34.1887 114.197 34.8599H114.187Z" fill="black"/>
<path d="M113.987 32.5498C113.144 30.7796 111.309 29.6574 109.422 29.1104C107.982 28.6949 106.417 28.5587 104.988 29.0165C104.173 29.2747 103.433 29.7208 102.669 30.1035C101.245 30.8219 99.6804 31.39 98.6089 32.5709C98.3575 32.8456 98.139 33.1977 98.2024 33.5616C98.2565 33.8316 98.4679 34.0311 98.6042 34.28C98.912 34.82 98.8392 35.4985 98.6254 36.0854C98.4115 36.6723 98.1084 37.217 97.9628 37.8203C97.8171 38.4237 97.8735 39.1303 98.3199 39.5599C98.5196 39.7501 98.7757 39.8698 98.9919 40.0295C99.2362 40.2403 99.4504 40.4836 99.6287 40.7526L100.897 42.4852C101.494 43.253 102.025 44.0689 102.486 44.9244C102.801 45.5536 103.045 46.225 103.468 46.7861C103.891 47.3472 104.549 47.798 105.249 47.7369C105.303 47.7383 105.357 47.7269 105.406 47.7037C105.455 47.6804 105.498 47.646 105.531 47.6031C105.557 47.5482 105.569 47.4877 105.566 47.427C105.597 46.4973 105.484 45.5683 105.23 44.6732C105.089 44.2586 104.982 43.833 104.911 43.4008C104.857 42.8409 104.971 42.2777 105.239 41.783C105.507 41.2883 105.916 40.8846 106.414 40.6235C107.542 40.0553 108.969 40.2948 110.049 39.6445C110.891 39.1374 111.349 38.1959 111.762 37.2968C112.216 36.3248 112.467 35.482 113.407 34.935C114.347 34.388 114.455 33.4818 113.987 32.5498Z" fill="#585268"/>
<path opacity="0.1" d="M107.041 55.3434L110.331 53.0403C110.331 53.0403 105.519 50.1996 104.946 50.5987C104.372 50.9978 103.978 54.5898 103.978 54.5898L107.041 55.3434Z" fill="black"/>
<path d="M107.028 55.1955L110.317 52.8478C110.317 52.8478 105.505 50.0071 104.932 50.4062C104.359 50.8053 103.964 54.5945 103.964 54.5945L107.028 55.1955Z" fill="#E1E7EF"/>
<path d="M107.028 55.1955L110.317 52.8478C110.317 52.8478 105.505 50.0071 104.932 50.4062C104.359 50.8053 103.964 54.5945 103.964 54.5945L107.028 55.1955Z" fill="#FFD037"/>
<path d="M105.477 50.425L105.378 50.3757C105.231 50.3009 105.066 50.2702 104.902 50.2873C104.738 50.3044 104.583 50.3685 104.455 50.472L94.5862 58.4705C94.5862 58.4705 92.441 61.4357 92.7394 66.5513L98.5595 74.7893C98.5595 74.7893 99.2245 72.0003 100.021 72.5308C100.021 72.5308 101.151 86.8165 100.021 88.8754C98.8908 90.9343 98.3927 98.6418 98.3927 98.6418L102.216 99.0738C102.216 99.0738 102.615 93.8572 103.513 91.9979C104.41 90.1385 104.899 83.7457 104.899 83.7457C104.899 83.7457 105.707 74.4583 105.573 70.4719C105.439 66.4855 104.276 57.9141 104.276 57.9141C104.276 57.9141 104.603 52.8901 105.477 50.425Z" fill="#67647E"/>
<path opacity="0.1" d="M115.308 53.8879L111.208 52.3713C111.208 52.3713 116.428 46.657 117.082 49.8264L115.308 53.8879Z" fill="black"/>
<path d="M115.308 53.6884L111.208 52.1718C111.208 52.1718 116.428 46.4575 117.082 49.6269L115.308 53.6884Z" fill="#E1E7EF"/>
<path d="M115.308 53.6884L111.208 52.1718C111.208 52.1718 116.428 46.4575 117.082 49.6269L115.308 53.6884Z" fill="#FFD037"/>
<path opacity="0.1" d="M115.174 48.8263C115.233 48.8169 115.293 48.8303 115.343 48.8639L115.174 48.8263Z" fill="black"/>
<path d="M115.568 48.4296L126.447 50.7772C126.447 50.7772 129.441 51.4416 131.602 58.9495C133.764 66.4574 128.642 75.6557 128.642 75.6557L127.512 74.6955L128.078 96.6205C128.078 96.6205 123.057 98.5128 121.461 96.8553C119.866 95.1978 120.033 87.4129 120.033 87.4129C120.033 87.4129 118.503 73.0638 117.537 70.7044C116.572 68.345 117.067 51.3383 117.067 51.3383C117.067 51.3383 116.179 48.2981 115.568 48.4296Z" fill="#67647E"/>
<path opacity="0.1" d="M125.522 62.4006C125.369 62.5415 125.19 69.176 125.855 74.2259C126.262 77.3011 126.89 80.343 127.735 83.3279L126.748 63.0979C126.748 63.0979 125.987 61.9686 125.522 62.4006Z" fill="black"/>
<path opacity="0.1" d="M124.192 56.6863C124.457 56.853 125.623 59.6091 125.089 60.7384C124.556 61.8676 124.192 56.6863 124.192 56.6863Z" fill="black"/>
<path opacity="0.1" d="M113.924 32.5498C113.39 31.4989 112.558 30.6285 111.532 30.0471C112.295 30.5929 112.911 31.3188 113.325 32.16C113.795 33.0991 113.656 34.0382 112.742 34.5523C111.828 35.0665 111.544 35.9422 111.097 36.9141C110.681 37.8039 110.223 38.7453 109.382 39.2618C108.301 39.9144 106.875 39.6726 105.747 40.2408C105.249 40.5028 104.84 40.907 104.572 41.402C104.304 41.8969 104.19 42.4603 104.243 43.0204C104.316 43.4519 104.423 43.8767 104.565 44.2905C104.821 45.1885 104.937 46.1205 104.908 47.0538C104.91 47.1146 104.897 47.1751 104.871 47.2298C104.838 47.2729 104.796 47.3076 104.747 47.3309C104.699 47.3542 104.645 47.3654 104.591 47.3637C104.309 47.3852 104.026 47.3326 103.771 47.2111C103.956 47.3943 104.176 47.5377 104.419 47.6326C104.661 47.7275 104.921 47.7718 105.181 47.7628C105.223 47.7689 105.266 47.7652 105.307 47.7519C105.348 47.7385 105.385 47.716 105.415 47.686C105.446 47.656 105.469 47.6193 105.483 47.5788C105.497 47.5384 105.501 47.4953 105.496 47.4529C105.526 46.5197 105.411 45.5875 105.155 44.6896C105.012 44.2754 104.904 43.8497 104.833 43.4172C104.779 42.8573 104.893 42.2941 105.161 41.7994C105.429 41.3047 105.838 40.901 106.337 40.6399C107.465 40.0717 108.891 40.3112 109.972 39.6609C110.813 39.1538 111.271 38.2124 111.685 37.3132C112.138 36.3413 112.39 35.4984 113.329 34.9514C114.269 34.4044 114.394 33.4818 113.924 32.5498Z" fill="black"/>
<path d="M180.859 62.032C177.621 61.9686 174.764 59.6843 173.145 56.8929C172.72 56.2287 172.453 55.4762 172.364 54.6931C172.376 54.5152 172.406 54.3389 172.454 54.1672C172.553 53.9052 172.631 53.636 172.689 53.362C172.702 53.2528 172.702 53.1425 172.689 53.0333C172.689 53.0333 172.689 53.0333 172.689 53.0145C172.766 52.4206 172.416 51.8407 171.984 51.4345C171.552 51.0284 171.009 50.7302 170.558 50.3264C169.167 49.1056 168.744 47.1477 168.718 45.2836V45.185C168.734 44.3868 168.798 43.5862 168.791 42.788C168.802 42.3349 168.782 41.8815 168.732 41.431C168.598 40.3018 168.168 39.1514 167.28 38.4307C164.963 36.5525 161.067 38.5082 158.668 36.7333C158.086 36.299 157.613 35.6581 156.906 35.489C156.373 35.3599 155.818 35.5336 155.297 35.7074C153.53 36.2896 151.558 37.0549 150.867 38.7594C150.473 39.7384 150.583 40.8559 150.221 41.8466C149.986 42.511 149.538 43.0815 149.211 43.7106C148.943 44.1843 148.813 44.7234 148.835 45.2672C148.806 45.5486 148.846 45.8329 148.95 46.0959C149.073 46.4128 149.27 46.6955 149.526 46.9199C149.434 47.116 149.318 47.3004 149.183 47.4693C148.732 48.021 148.038 48.4084 147.569 48.9577C146.699 49.9649 146.732 51.3336 147.16 52.5168C147.587 53.7 148.36 54.7776 148.894 55.9303C149.129 56.4304 149.307 56.9892 149.07 57.4869C148.903 57.832 148.558 58.0949 148.29 58.3931C147.898 58.8321 147.652 59.3815 147.585 59.966C142.296 61.1727 142.291 65.4197 142.291 65.4197L139.434 72.5989C139.434 72.5989 138.976 73.808 138.438 75.4044L135.057 74.7987L137.406 78.7287C136.962 80.3298 136.647 81.8136 136.751 82.5602C136.751 82.5602 135.7 87.4903 137.568 88.3519L141.69 90.2042C141.868 90.3136 142.06 90.3996 142.261 90.4601L142.428 90.5352C142.488 90.5643 142.553 90.5794 142.62 90.5794C142.687 90.5794 142.753 90.5643 142.813 90.5352H142.825H142.869C142.949 90.5406 143.029 90.5286 143.104 90.5C143.196 90.4506 143.269 90.3722 143.311 90.277C143.31 90.2692 143.31 90.2613 143.311 90.2535L144.545 89.8967L145.59 91.1339C146.06 91.4649 146.53 91.7513 146.974 92.0096L145.355 108.072C145.355 108.072 145.094 129.436 144.305 134.305C144.014 136.109 144.011 137.339 144.122 138.174L144.091 138.226C144.286 139.6 144.796 139.87 144.796 139.87V139.851C144.805 139.858 144.816 139.864 144.827 139.87C145.064 139.246 145.347 138.64 145.672 138.057C145.672 138.172 145.672 138.292 145.672 138.409C145.656 140.222 145.6 142.76 145.412 144.41C145.092 147.227 146.229 156.512 146.229 156.512L146.622 164.964C146.685 166.399 146.352 167.824 145.658 169.082C144.718 170.77 143.518 173.146 143.431 174.2C143.426 174.257 143.426 174.314 143.431 174.371L141.415 176.794C141.415 176.794 140.628 178.01 142.406 178.501C143.363 178.766 145.012 178.501 146.337 178.188C146.916 178.055 147.432 177.73 147.802 177.266C148.172 176.803 148.374 176.227 148.374 175.634C148.709 174.47 149.275 173.385 150.038 172.444L150.369 174.39L152.587 174.939L152.872 169.605C152.986 169.306 153.038 168.986 153.024 168.666C153.462 164.872 151.995 165.213 151.995 165.213C152.035 165.246 152.06 165.293 152.066 165.344L151.995 165.215C151.095 163.44 151.525 160.52 151.525 160.52C151.525 160.52 152.7 152.068 153.102 149.835C153.391 148.258 153.271 143.093 153.175 140.21C153.175 140.09 153.175 139.975 153.163 139.86C156.603 139.816 160.818 139.7 163.777 139.414V139.762L163.231 159.729C163.194 161.002 162.935 162.258 162.465 163.443C162.465 163.466 162.449 163.487 162.44 163.511C161.791 165.183 161.425 166.951 161.356 168.744L161.103 175.082V175.259C160.661 175.428 159.963 175.918 159.944 177.341C159.914 179.426 163.591 178.731 163.591 178.731C167.266 178.731 167.296 174.909 167.296 174.909C167.296 174.909 167.411 171.404 167.588 169.058C167.764 166.713 167.033 167.229 167.033 167.229L166.977 173.902C166.977 173.918 166.977 173.934 166.977 173.953V168.105L167.033 167.258V167.234V167.053L167.496 160.172C167.496 160.172 170.882 148.706 171.406 146.506C171.779 144.943 171.624 140.233 171.502 137.63C171.502 137.51 171.502 137.395 171.483 137.285C172.534 137.191 173.462 137.181 173.833 137.181H174.005C174.005 137.181 173.831 118.766 173.391 111.826C172.952 104.887 172.254 98.5362 170.504 96.6251C169.446 95.4701 167.973 91.9039 166.979 89.2628C169.068 90.1654 171.237 90.8728 173.457 91.3757C179 92.5355 178.241 87.7274 178.241 87.7274L177.679 78.6348H177.717C177.696 76.2531 177.492 73.8764 177.106 71.526C176.812 69.723 176.364 67.8589 175.678 66.3611C176.279 66.1263 176.874 65.8751 177.456 65.6169C178.962 64.9525 180.659 64.0111 180.875 62.3888H180.802C180.831 62.2717 180.85 62.1523 180.859 62.032ZM146.499 75.179C146.511 76.1181 146.476 77.7474 146.42 79.5481L144.66 77.2004L146.424 74.3409L146.499 75.179ZM170.814 83.4992L167.881 82.5602C168.401 81.7496 169.009 80.9985 169.693 80.3205L169.947 80.0857L169.855 80.1045L169.996 79.9753L170.081 79.9566L169.947 80.0857L170.106 80.0528C170.283 80.7888 170.624 81.4752 171.105 82.0601C172.158 83.2081 170.816 83.4992 170.816 83.4992H170.814Z" fill="url(#paint2_linear)"/>
<path d="M145.031 139.705C145.031 139.705 145.896 137.358 146.676 136.94C147.456 136.522 147.367 139.698 147.367 139.698C147.367 139.698 166.357 139.872 167.306 138.405C168.255 136.937 173.779 137.024 173.779 137.024C173.779 137.024 173.608 118.74 173.175 111.843C172.743 104.945 172.055 98.6465 170.328 96.7496C169.211 95.5218 167.623 91.5495 166.641 88.9013C166.108 87.4551 165.753 86.401 165.753 86.401L147.627 87.434L147.479 88.9013L145.555 108.134C145.555 108.134 145.297 129.35 144.519 134.179C143.741 139.008 145.031 139.705 145.031 139.705Z" fill="#444053"/>
<g opacity="0.1">
<path opacity="0.1" d="M165.83 138.405C166.77 136.94 172.304 137.024 172.304 137.024C172.304 137.024 172.132 118.74 171.7 111.843C171.267 104.945 170.579 98.6465 168.852 96.7496C167.731 95.5171 166.147 91.5495 165.165 88.9013C164.717 87.6852 164.395 86.7485 164.305 86.4808L165.715 86.401C165.715 86.401 166.07 87.4551 166.606 88.9013C167.588 91.5495 169.174 95.5218 170.29 96.7496C172.017 98.6465 172.708 104.943 173.138 111.843C173.568 118.743 173.744 137.024 173.744 137.024C173.744 137.024 168.22 136.94 167.268 138.405C166.458 139.656 152.484 139.715 148.429 139.703C153.633 139.691 165.097 139.536 165.83 138.405Z" fill="black"/>
<path opacity="0.1" d="M145.2 136.94C145.55 136.745 145.724 137.285 145.811 137.94C145.497 138.508 145.225 139.098 144.996 139.705C144.996 139.705 144.495 139.435 144.291 138.062C144.578 137.571 144.895 137.109 145.2 136.94Z" fill="black"/>
</g>
<path d="M150.633 42.1635C149.378 43.8726 150.647 46.3025 149.3 47.9647C148.856 48.514 148.173 48.9037 147.71 49.4437C146.852 50.4438 146.885 51.8031 147.306 52.977C147.726 54.1508 148.48 55.2214 149.016 56.367C149.251 56.8624 149.425 57.4188 149.19 57.9118C149.026 58.2546 148.685 58.5152 148.419 58.811C147.555 59.7759 147.531 61.1164 147.996 62.2527C148.462 63.389 149.35 64.3656 150.226 65.3282C150.572 65.7061 151.009 66.124 151.584 66.1123C151.887 66.0893 152.18 65.9935 152.437 65.8329C154.431 64.8156 155.955 63.0692 156.692 60.9574C157.429 58.8456 157.322 56.5312 156.394 54.4959C155.666 52.7516 154.451 51.08 154.439 49.2371C154.439 47.7745 155.191 46.3776 155.325 44.9221C155.487 43.1519 154.439 40.3417 152.301 39.5693C152.442 40.7056 151.27 41.2855 150.633 42.1635Z" fill="#585268"/>
<path opacity="0.1" d="M150.633 42.1635C149.378 43.8726 150.647 46.3025 149.3 47.9647C148.856 48.514 148.173 48.9037 147.71 49.4437C146.852 50.4438 146.885 51.8031 147.306 52.977C147.726 54.1508 148.48 55.2214 149.016 56.367C149.251 56.8624 149.425 57.4188 149.19 57.9118C149.026 58.2546 148.685 58.5152 148.419 58.811C147.555 59.7759 147.531 61.1164 147.996 62.2527C148.462 63.389 149.35 64.3656 150.226 65.3282C150.572 65.7061 151.009 66.124 151.584 66.1123C151.887 66.0893 152.18 65.9935 152.437 65.8329C154.431 64.8156 155.955 63.0692 156.692 60.9574C157.429 58.8456 157.322 56.5312 156.394 54.4959C155.666 52.7516 154.451 51.08 154.439 49.2371C154.439 47.7745 155.191 46.3776 155.325 44.9221C155.487 43.1519 154.439 40.3417 152.301 39.5693C152.442 40.7056 151.27 41.2855 150.633 42.1635Z" fill="black"/>
<path opacity="0.1" d="M164.547 104.333C162.036 104.464 159.672 105.544 157.473 106.765C155.273 107.986 153.144 109.368 150.778 110.235" fill="black"/>
<path opacity="0.1" d="M162.987 110.246C160.502 110.483 158.187 111.609 156.467 113.416C155.856 114.061 155.329 114.785 154.693 115.404C153.718 116.355 152.513 117.037 151.196 117.383" fill="black"/>
<path opacity="0.1" d="M163.501 114.747C161.498 115.303 159.684 116.395 158.257 117.907C157.872 118.322 157.522 118.766 157.136 119.182C155.057 121.412 152.12 122.595 149.284 123.715" fill="black"/>
<path d="M163.288 52.3337C163.343 54.3392 163.516 56.3397 163.805 58.325C164.04 59.7336 164.369 61.0014 164.841 61.5625C166.223 63.2059 158.109 65.401 158.109 65.401L153.318 61.6916C153.318 61.6916 157.115 58.1983 155.346 54.7918C153.577 51.3853 163.288 52.3337 163.288 52.3337Z" fill="#CC818C"/>
<path opacity="0.1" d="M147.475 88.9013H166.636C166.103 87.4551 165.748 86.401 165.748 86.401L147.623 87.434L147.475 88.9013Z" fill="black"/>
<path d="M146.241 88.5562H166.728C166.152 86.4973 166.728 84.5933 167.548 83.1284C168.123 82.1018 168.845 81.1652 169.693 80.3487L169.834 80.2196L176.986 78.6373L177.372 78.5527C177.372 78.5527 177.43 65.5583 172.825 63.7741C168.22 61.9898 165.459 59.5787 165.459 59.5787L159.131 61.532L154.47 59.1843C152.973 60.7925 149.002 60.161 149.002 60.161C142.5 60.9075 142.5 65.7954 142.5 65.7954C142.5 65.7954 146.298 74.6485 146.587 74.6485C146.876 74.6485 146.241 88.5562 146.241 88.5562Z" fill="#DFE5EE"/>
<path opacity="0.1" d="M153.314 80.2946C153.314 80.2946 149.136 79.3696 147.714 77.7521L153.314 80.2946Z" fill="black"/>
<path opacity="0.1" d="M161.26 87.1757C161.26 87.1757 162.32 87.772 163.944 88.5561H166.728C166.152 86.4972 166.728 84.5933 167.548 83.1283L162.64 81.5413C164.31 83.0931 161.26 87.1757 161.26 87.1757Z" fill="black"/>
<path d="M145.376 64.2365L142.5 65.7883L139.681 72.9182C139.681 72.9182 136.746 80.736 137.033 82.8066C137.033 82.8066 135.999 87.6945 137.839 88.5561L142.632 90.7254C142.717 90.7627 142.811 90.7728 142.902 90.7543C142.992 90.7358 143.075 90.6895 143.138 90.622C143.201 90.5544 143.242 90.4688 143.254 90.3772C143.267 90.2855 143.251 90.1922 143.208 90.1103C142.524 88.8167 141.772 86.793 142.973 85.6802L141.591 82.8066L146.584 74.6414L148.252 71.8242L145.376 64.2365Z" fill="#DFE5EE"/>
<path opacity="0.1" d="M151.775 78.663C152.024 79.6772 152.865 81.2454 155.649 81.83L158.704 84.3303L161.953 85.8023L163.279 86.401L163.84 82.3465L162.564 81.6422L161.077 80.8299C161.077 80.8299 157.722 74.7564 152.409 77.3084C152.162 77.4252 151.964 77.6244 151.848 77.8717C151.732 78.1189 151.706 78.3987 151.775 78.663Z" fill="black"/>
<path d="M151.948 78.3179C152.198 79.3345 153.036 80.9004 155.821 81.4849L158.875 83.9852L162.127 85.4572L163.45 86.0559L164.012 82.0014L162.736 81.2971L161.26 80.4919C161.26 80.4919 157.903 74.4184 152.59 76.9821C152.346 77.0971 152.148 77.2928 152.032 77.5361C151.915 77.7794 151.885 78.0555 151.948 78.3179Z" fill="#CC818C"/>
<path opacity="0.1" d="M157.935 57.5926C162.035 57.5926 165.358 54.2722 165.358 50.1762C165.358 46.0803 162.035 42.7599 157.935 42.7599C153.836 42.7599 150.513 46.0803 150.513 50.1762C150.513 54.2722 153.836 57.5926 157.935 57.5926Z" fill="black"/>
<path d="M157.935 57.4212C162.035 57.4212 165.358 54.1008 165.358 50.0048C165.358 45.9089 162.035 42.5885 157.935 42.5885C153.836 42.5885 150.513 45.9089 150.513 50.0048C150.513 54.1008 153.836 57.4212 157.935 57.4212Z" fill="#CC818C"/>
<path opacity="0.1" d="M162.533 65.8517L160.301 61.5178C160.301 61.5178 163.567 60.1984 163.805 58.6701C164.042 57.1418 166.934 60.4614 166.309 61.5625C165.684 62.6635 162.533 65.8517 162.533 65.8517Z" fill="black"/>
<path d="M162.533 65.5065L160.301 61.1727C160.301 61.1727 163.567 59.8533 163.805 58.3249C164.042 56.7966 166.934 60.1186 166.309 61.2173C165.684 62.316 162.533 65.5065 162.533 65.5065Z" fill="#DFE5EE"/>
<path d="M144.265 76.7027L156.598 93.2703C156.598 93.2703 152.052 95.7424 145.79 91.317L143.085 88.096L135.364 75.0922L144.265 76.7027Z" fill="#F6F8FB"/>
<path d="M141.838 85.7108L142.961 85.6803C142.961 85.6803 149.822 79.0269 151.507 82.3935C153.191 85.7601 147.233 88.906 147.233 88.906L145.421 89.8826L143.06 90.5869L141.549 88.5609L141.838 85.7108Z" fill="#CC818C"/>
<path opacity="0.1" d="M143.494 89.3051C143.598 89.6878 143.696 90.1104 143.522 90.4649C143.481 90.5597 143.409 90.6381 143.318 90.6879C143.243 90.7166 143.163 90.7279 143.083 90.7208C142.489 90.6702 141.935 90.3968 141.535 89.9554C141.141 89.5155 140.804 89.0281 140.531 88.5045C140.226 87.9716 139.909 87.3823 140.017 86.7766C140.139 86.1169 140.722 85.6591 141.293 85.2882C142.43 84.5369 142.467 85.4126 142.716 86.3799C142.966 87.3471 143.233 88.3285 143.494 89.3051Z" fill="black"/>
<path d="M143.323 89.3051C143.424 89.6878 143.525 90.1104 143.351 90.4649C143.309 90.5597 143.237 90.6381 143.146 90.6879C143.072 90.7165 142.991 90.7277 142.911 90.7208C142.317 90.6714 141.763 90.3977 141.363 89.9554C140.968 89.5162 140.63 89.0287 140.357 88.5045C140.052 87.9716 139.735 87.3823 139.845 86.7766C139.965 86.1169 140.55 85.6591 141.119 85.2882C142.258 84.5369 142.294 85.4126 142.545 86.3799C142.796 87.3471 143.06 88.3285 143.323 89.3051Z" fill="#DFE5EE"/>
<path opacity="0.1" d="M146.586 74.6415L147.16 73.6719L146.659 75.4726L146.586 74.6415Z" fill="black"/>
<path opacity="0.1" d="M167.447 80.7501C167.447 80.7501 163.175 81.0106 161.361 79.8462L167.447 80.7501Z" fill="black"/>
<g opacity="0.1">
<path opacity="0.1" d="M166.916 83.4734C167.491 82.4461 168.214 81.5088 169.061 80.6914C169.264 80.564 169.476 80.4495 169.693 80.3486L176.352 78.9823L176.737 78.8978C176.737 78.8978 176.796 65.9033 172.193 64.1191C169.611 63.1381 167.191 61.7762 165.013 60.0787L165.518 59.9238C165.518 59.9238 168.279 62.3372 172.884 64.1191C177.489 65.901 177.428 78.8978 177.428 78.8978H176.737L169.923 80.2007C169.923 80.2007 169.63 80.4848 169.54 80.567C168.686 81.4222 167.953 82.3907 167.362 83.4452C166.461 85.1179 166.256 87.0784 166.791 88.9013H166.086C165.518 86.8423 166.105 84.9384 166.916 83.4734Z" fill="black"/>
<path opacity="0.1" d="M148.729 60.5365C148.84 60.5201 148.946 60.5037 149.061 60.4919C149.528 60.5581 149.999 60.5965 150.471 60.6069C149.889 60.623 149.308 60.5994 148.729 60.5365Z" fill="black"/>
<path opacity="0.1" d="M158.497 61.8771L154.282 59.7454C154.365 59.6768 154.444 59.6023 154.517 59.5223L158.915 61.7456L158.497 61.8771Z" fill="black"/>
</g>
<path d="M174.545 75.0922L177.365 78.5433L177.94 87.9152C177.94 87.9152 178.688 92.6857 173.222 91.5354C167.757 90.385 161.432 86.8306 161.432 86.8306C161.432 86.8306 164.486 82.748 162.813 81.1961L170.64 83.727C170.64 83.727 171.963 83.4382 170.927 82.2902C169.89 81.1422 169.707 79.0691 169.707 79.0691L174.545 75.0922Z" fill="#DFE5EE"/>
<path opacity="0.1" d="M149.07 46.6007C148.804 45.9504 149.009 45.1921 149.328 44.5793C149.648 43.9666 150.087 43.3867 150.327 42.727C150.682 41.7457 150.574 40.6352 150.961 39.675C151.645 37.9729 153.588 37.2123 155.329 36.623C155.844 36.4516 156.391 36.2803 156.918 36.407C157.623 36.5737 158.081 37.2123 158.657 37.6419C161.02 39.4027 164.864 37.4635 167.151 39.3276C168.025 40.0319 168.45 41.1846 168.581 42.3044C168.713 43.4243 168.581 44.5606 168.567 45.6898C168.53 47.6665 168.901 49.8288 170.381 51.1388C170.828 51.5332 171.354 51.829 171.791 52.2375C172.228 52.646 172.571 53.2165 172.496 53.8081C172.438 54.0798 172.36 54.3466 172.261 54.6063C171.967 55.6369 172.407 56.7192 172.942 57.6583C174.54 60.4215 177.357 62.6988 180.551 62.7622C180.337 64.3727 178.671 65.3071 177.179 65.9668C175.299 66.8096 173.297 67.636 171.227 67.5303C169.157 67.4247 166.998 66.1006 166.636 64.0628C166.511 63.3585 166.528 62.511 165.931 62.1447C165.565 61.9217 165.09 61.978 164.695 61.8114C164.124 61.5766 163.842 60.9357 163.654 60.3464C163.269 59.1305 163.062 57.8652 163.041 56.5901C163.015 55.0782 163.215 53.4278 162.357 52.1835C161.563 51.0308 160.153 50.4462 159.237 49.3874C158.391 48.4061 157.472 47.2228 156.086 47.0397C154.169 46.7697 150.202 49.3733 149.07 46.6007Z" fill="black"/>
<path d="M149.07 46.2556C148.804 45.6053 149.009 44.847 149.328 44.2342C149.648 43.6215 150.087 43.0416 150.327 42.3819C150.682 41.4006 150.574 40.2901 150.961 39.3299C151.645 37.6255 153.588 36.8649 155.329 36.2779C155.844 36.1066 156.391 35.9352 156.918 36.0619C157.623 36.2286 158.081 36.8672 158.657 37.2968C161.02 39.0576 164.864 37.1184 167.151 38.9825C168.025 39.6868 168.45 40.8395 168.581 41.9617C168.713 43.0839 168.581 44.2155 168.567 45.3447C168.53 47.3214 168.901 49.4837 170.381 50.7937C170.828 51.1881 171.354 51.4839 171.791 51.8924C172.228 52.3009 172.571 52.8714 172.496 53.463C172.438 53.7347 172.36 54.0015 172.261 54.2612C171.967 55.2918 172.407 56.3741 172.942 57.3132C174.545 60.067 177.35 62.3513 180.544 62.4147C180.33 64.0252 178.664 64.9596 177.172 65.6217C175.292 66.4621 173.29 67.2885 171.22 67.1829C169.15 67.0772 166.991 65.7531 166.629 63.7153C166.504 63.011 166.521 62.1635 165.924 61.7973C165.557 61.5743 165.083 61.6306 164.688 61.4639C164.117 61.2291 163.835 60.5882 163.647 59.999C163.262 58.7831 163.055 57.5178 163.034 56.2427C163.008 54.7307 163.208 53.0803 162.35 51.8361C161.556 50.6833 160.146 50.0988 159.23 49.04C158.384 48.0586 157.465 46.8754 156.079 46.6923C154.169 46.4246 150.202 49.0329 149.07 46.2556Z" fill="#585268"/>
<path opacity="0.1" d="M154.338 65.3141L158.593 61.863C158.593 61.863 155.679 60.2854 155.332 58.9401C154.984 57.5949 152.653 59.5787 152.89 60.7854C153.128 61.9921 154.338 65.3141 154.338 65.3141Z" fill="black"/>
<path d="M154.505 64.7953L158.76 61.3465C158.76 61.3465 155.846 59.7689 155.513 58.4237C155.179 57.0784 152.834 59.0622 153.072 60.2689C153.309 61.4757 154.505 64.7953 154.505 64.7953Z" fill="#DFE5EE"/>
<path opacity="0.1" d="M158.927 64.5722C159.114 64.5722 159.265 64.4209 159.265 64.2342C159.265 64.0475 159.114 63.8961 158.927 63.8961C158.74 63.8961 158.588 64.0475 158.588 64.2342C158.588 64.4209 158.74 64.5722 158.927 64.5722Z" fill="black"/>
<path opacity="0.1" d="M158.927 66.4503C159.114 66.4503 159.265 66.2989 159.265 66.1122C159.265 65.9255 159.114 65.7742 158.927 65.7742C158.74 65.7742 158.588 65.9255 158.588 66.1122C158.588 66.2989 158.74 66.4503 158.927 66.4503Z" fill="black"/>
<path opacity="0.1" d="M158.927 68.3262C159.114 68.3262 159.265 68.1748 159.265 67.9881C159.265 67.8014 159.114 67.65 158.927 67.65C158.74 67.65 158.588 67.8014 158.588 67.9881C158.588 68.1748 158.74 68.3262 158.927 68.3262Z" fill="black"/>
<g opacity="0.1">
<path opacity="0.1" d="M150.788 41.4616C151.124 40.539 151.051 39.5037 151.366 38.574C151.22 38.7795 151.099 39.0018 151.006 39.236C150.616 40.2056 150.727 41.3161 150.37 42.288L150.346 42.3444C150.52 42.0643 150.668 41.7688 150.788 41.4616Z" fill="black"/>
<path opacity="0.1" d="M177.633 64.7014C175.753 65.5419 173.751 66.3683 171.681 66.2626C169.611 66.157 167.452 64.8329 167.09 62.7974C166.965 62.0931 166.982 61.2433 166.385 60.877C166.018 60.654 165.544 60.7103 165.149 60.5437C164.578 60.3089 164.296 59.668 164.108 59.0787C163.723 57.8629 163.516 56.5976 163.495 55.3224C163.469 53.8128 163.671 52.1624 162.813 50.9158C162.017 49.7631 160.607 49.1809 159.691 48.1197C158.845 47.1407 157.926 45.9551 156.54 45.772C154.639 45.5138 150.666 48.1197 149.542 45.3447C149.362 44.8204 149.388 44.2471 149.615 43.7413C149.533 43.8798 149.453 44.0183 149.38 44.1592C149.061 44.7836 148.859 45.5326 149.124 46.1829C150.254 48.9531 154.221 46.3495 156.121 46.6101C157.508 46.798 158.426 47.9835 159.272 48.9578C160.189 50.019 161.599 50.6012 162.393 51.7563C163.253 53.0005 163.051 54.651 163.076 56.1605C163.098 57.4357 163.304 58.701 163.69 59.9168C163.878 60.5084 164.16 61.1423 164.731 61.3818C165.125 61.5485 165.6 61.4945 165.967 61.7152C166.573 62.0814 166.556 62.9383 166.671 63.6356C167.038 65.671 169.195 66.9951 171.263 67.1007C173.33 67.2064 175.323 66.3824 177.214 65.5395C178.577 64.9338 180.095 64.0957 180.504 62.7223C179.851 63.6144 178.695 64.2295 177.633 64.7014Z" fill="black"/>
</g>
<path d="M51.5355 186.941C51.5355 186.941 56.9045 188.413 59.4891 186.455C62.0737 184.497 63.1945 185.126 63.1945 185.126C63.1945 185.126 69.3577 184.786 69.8652 183.33C70.3727 181.874 67.5014 176.587 67.5014 176.587C67.297 176.118 66.9986 175.522 66.8647 175.522L66.8929 173.291L67.7858 163.959C69.8464 158.679 67.8233 151.857 67.8233 151.857L67.4545 150.164C67.2472 149.213 67.3706 148.219 67.8046 147.347L71.5476 139.834C71.7479 139.338 71.9834 138.856 72.2525 138.393C72.4874 137.963 72.7999 137.433 73.1923 136.796C73.3075 136.613 73.4273 136.423 73.5589 136.224C74.0123 135.519 74.5622 134.721 75.2271 133.801C76.8836 131.507 77.7554 128.636 78.2065 126.523L78.4062 127.185H78.418H78.4509L78.5049 127.197H78.5801H78.5942L78.6905 127.213H78.7258L79.8771 141.853C79.9476 147.563 82.0458 150.723 82.0458 150.723L81.7568 163.328C82.1516 166.363 81.2869 170.411 80.8898 172.026L79.9828 174.071C79.6257 174.249 79.3174 174.511 79.0845 174.835C78.8515 175.159 78.701 175.535 78.6459 175.93C78.4673 177.44 76.8766 180.693 76.8766 180.693C76.261 181.473 74.924 183.579 74.924 183.579C74.924 183.579 74.2943 185.612 74.6844 186.373C75.0744 187.133 78.3357 187.056 78.3357 187.056C82.0599 187.88 84.9148 185.882 84.7338 184.506C84.5529 183.13 85.3142 182.781 85.3142 182.781C86.7945 182.311 86.6512 181.309 86.6512 181.309C86.9698 179.241 86.5746 177.126 85.5304 175.313L85.2954 175.855C85.2319 174.769 85.3836 173.682 85.7418 172.655L85.6056 172.749L85.5633 172.775H85.5492C85.7841 170.716 87.9482 166.906 87.9482 166.906C91.9238 159.938 90.4787 150.495 90.4787 150.495L89.8631 147.551L89.8279 146.441C89.7437 143.79 89.9446 141.137 90.4271 138.529C90.6409 137.374 90.8617 135.979 91.0309 134.442C91.3881 131.193 92.5394 127.84 93.0704 126.42L93.2279 126.392H93.2466C93.4628 126.354 93.6813 126.316 93.9022 126.274H93.9445C93.9445 126.274 94.0714 125.589 94.1795 124.422C94.2429 123.678 94.2946 122.734 94.2946 121.649C94.3105 118.374 93.8102 115.117 92.812 111.998L92.9318 111.826C92.9318 111.826 93.2161 111.441 93.7354 110.775C94.6893 109.563 96.1743 107.723 98.0047 105.647C101.282 101.912 100.319 98.1348 100.319 98.1348C100.319 98.1348 97.946 89.446 96.8886 84.2294C96.2848 81.2572 95.1522 79.2359 94.2852 78.0433C94.4807 77.221 94.5909 76.3808 94.6141 75.5359C94.6846 73.9912 94.6306 72.3806 93.9351 70.9932C93.2396 69.6057 91.7593 68.5093 90.2132 68.6948C89.9939 68.7476 89.7652 68.7476 89.5459 68.6948C89.3652 68.6129 89.2124 68.4798 89.1065 68.3121C88.2019 67.0655 88.1432 65.3892 88.4252 63.8773C88.7071 62.3654 89.2851 60.9192 89.5436 59.4026C89.802 57.886 89.6846 56.2027 88.7189 55.0007C87.584 53.5921 85.6056 53.1953 84.13 52.1365C83.0938 51.3923 82.316 50.3241 81.2234 49.6644C80.1309 49.0047 79.1088 49.2559 77.9222 49.5048C75.9273 49.925 74.0311 50.1175 72.1444 50.9744C70.2338 51.8388 68.5203 53.0844 67.1091 54.6345C66.6081 55.1341 66.2245 55.7388 65.9859 56.4046C65.516 57.9564 66.4347 59.6092 66.242 61.215C66.1058 62.3537 65.4337 63.3444 64.9004 64.3609C64.367 65.3775 63.9605 66.5842 64.3788 67.6477C65.0367 69.3099 67.1819 69.662 68.7421 70.5471C68.9505 70.649 69.1287 70.8036 69.259 70.9955C69.6443 71.6669 68.8572 72.3642 68.3614 72.9605C68.0777 73.3084 67.8768 73.7162 67.774 74.1531C67.1282 74.418 66.5574 74.8374 66.112 75.3746C65.6667 75.9117 65.3603 76.55 65.2199 77.2333C64.6913 79.5974 65.5042 82.5813 66.2209 84.5534C65.4385 88.9459 66.4559 90.6785 67.2054 91.3429C67.9642 91.9923 68.434 92.916 68.5118 93.9113V93.9934C68.5611 94.7917 68.6457 95.5875 68.7585 96.381C68.7327 96.1956 68.7068 95.9984 68.6927 95.9115C68.0795 97.0454 66.9117 99.9425 66.2538 104.816C66.1169 105.861 65.9184 106.896 65.6593 107.918C65.1887 109.726 65.0204 111.6 65.1612 113.463L65.2787 115.043C65.1631 115.046 65.0501 115.008 64.9591 114.937L65.7838 116.447V118.994C65.7829 120.143 65.5711 121.281 65.1588 122.353C65.1001 122.508 65.0367 122.663 64.9685 122.823C64.7566 123.252 64.661 123.729 64.6913 124.206C62.9173 126.922 58.85 142.144 58.85 142.144C56.6437 147.136 59.0309 150.361 59.0309 150.361C59.0309 150.361 60.187 164.257 60.4031 164.976C60.6193 165.694 61.0986 174.165 61.0986 174.165C61.0986 174.388 61.0986 174.62 61.0986 174.838C60.9704 174.782 60.8353 174.744 60.6968 174.723C58.7631 174.615 58.2391 177.667 58.2391 177.667L54.2823 181.442C54.2823 181.442 52.4754 181.137 49.8179 183.13C47.1605 185.124 51.5355 186.941 51.5355 186.941ZM91.045 106.629L91.0333 106.586L90.9252 106.65L90.8805 106.676L90.8594 106.69L89.0361 100.259C88.548 98.5355 88.5019 96.7165 88.9021 94.9701L90.3119 88.8004V87.3166L94.7927 99.2476C95.0794 100.856 92.4172 104.751 91.045 106.629Z" fill="url(#paint3_linear)"/>
<path d="M67.9834 113.04H70.7419V97.4023L68.6718 97.0314L67.9834 113.04Z" fill="#FDC2CC"/>
<path opacity="0.05" d="M67.9834 113.04H70.7419V97.4023L68.6718 97.0314L67.9834 113.04Z" fill="black"/>
<path d="M81.1039 50.9321C82.1777 51.5824 82.9414 52.6389 83.9588 53.3737C85.4062 54.4184 87.3493 54.8082 88.4631 56.2027C89.4029 57.3906 89.5251 59.0504 89.2714 60.5482C89.0176 62.0461 88.449 63.4758 88.1741 64.9689C87.8992 66.4621 87.9555 68.1172 88.8437 69.3474C88.9468 69.5128 89.0964 69.6443 89.2737 69.7254C89.4892 69.7768 89.7138 69.7768 89.9293 69.7254C91.4471 69.5422 92.9039 70.6269 93.5853 71.9956C94.2667 73.3643 94.3208 74.956 94.2503 76.482C94.1915 77.7333 94.0506 79.0105 93.5007 80.1373C92.5609 82.0531 90.606 83.2363 88.6769 84.1425C87.423 84.7315 86.1373 85.2504 84.8258 85.6967C83.9235 86.0019 82.9719 86.2765 82.0344 86.1169C80.4296 85.8399 79.2924 84.382 77.7698 83.8115C76.5221 83.3419 75.1382 83.511 73.8106 83.6284C72.6781 83.727 71.3834 83.7246 70.6033 82.8982C69.6024 81.8371 70.0535 80.1256 70.5657 78.7593C70.0232 78.7249 69.5008 78.5414 69.0561 78.229C68.6114 77.9166 68.2618 77.4874 68.0459 76.989C67.83 76.4905 67.7563 75.9421 67.8327 75.4044C67.9092 74.8666 68.1329 74.3605 68.4792 73.9418C68.9633 73.3525 69.7363 72.6647 69.358 72.0003C69.231 71.8108 69.0558 71.6585 68.8505 71.5589C67.3209 70.6856 65.2132 70.3358 64.5694 68.6971C64.1559 67.643 64.5553 66.4503 65.0793 65.4479C65.6033 64.4454 66.2541 63.4641 66.3974 62.3419C66.5854 60.7548 65.6925 59.1232 66.146 57.5925C66.3804 56.9351 66.7567 56.3372 67.248 55.8411C68.6292 54.3135 70.3084 53.084 72.1823 52.228C74.0362 51.3805 75.8947 51.1904 77.8544 50.7772C79.0292 50.5283 80.002 50.2654 81.1039 50.9321Z" fill="#865A61"/>
<path d="M70.7395 74.5663C70.7395 74.5663 66.2446 74.3315 65.394 78.1606C64.5434 81.9897 67.2385 87.4739 67.2385 87.4739L70.7395 74.5663Z" fill="#FDC2CC"/>
<path opacity="0.05" d="M70.7395 74.5663C70.7395 74.5663 66.2446 74.3315 65.394 78.1606C64.5434 81.9897 67.2385 87.4739 67.2385 87.4739L70.7395 74.5663Z" fill="black"/>
<path d="M67.8706 85.962L69.5741 87.3096L77.523 87.6641L82.4855 84.26L87.5325 75.6064C84.4474 74.8199 83.1998 72.6906 82.7345 70.6997C82.4386 69.3524 82.4051 67.9607 82.6359 66.6007C82.6359 66.6007 74.5436 62.4147 75.5375 68.9484C75.6738 69.7503 75.6991 70.5671 75.6127 71.3759C75.1428 75.2026 71.4256 74.4819 71.4256 74.4819L69.9994 76.6793L68.3664 82.079L67.8706 85.962Z" fill="#FDC2CC"/>
<path opacity="0.1" d="M75.5446 68.9389C75.6808 69.7408 75.7061 70.5576 75.6197 71.3664C76.7615 71.8876 78.02 72.1003 79.2698 71.9833C80.5195 71.8663 81.7166 71.4237 82.7416 70.6997C82.4456 69.3523 82.4121 67.9606 82.6429 66.6006C82.6429 66.6006 74.5507 62.4147 75.5446 68.9389Z" fill="black"/>
<path d="M78.6014 71.7302C82.5606 71.7302 85.7702 68.5234 85.7702 64.5675C85.7702 60.6116 82.5606 57.4047 78.6014 57.4047C74.6422 57.4047 71.4326 60.6116 71.4326 64.5675C71.4326 68.5234 74.6422 71.7302 78.6014 71.7302Z" fill="#FDC2CC"/>
<path d="M73.5308 84.5956C73.7047 84.5956 73.8762 84.6215 74.0477 84.6379C74.9876 84.7318 78.9138 84.9431 81.1507 82.2738C83.6531 79.2875 86.9849 75.5993 87.1212 75.4491L90.5118 76.4727C90.5118 76.4727 87.8284 75.5195 86.0474 80.506C85.6566 81.5519 85.6154 82.6962 85.9302 83.7674C86.2449 84.8386 86.8986 85.7791 87.7932 86.448C88.4519 86.9248 89.2103 87.2459 90.0113 87.387C90.0123 87.3888 90.0129 87.3909 90.0129 87.3929C90.0129 87.395 90.0123 87.397 90.0113 87.3988V89.5868L88.625 95.6908C88.2311 97.4156 88.2763 99.2116 88.7566 100.914L90.8713 108.382C90.5517 108.603 77.4312 117.52 68.667 111.362C68.6999 111.094 69.7831 102.33 69.0312 98.0408C68.8381 96.9441 68.7071 95.8374 68.6388 94.7259C68.6388 94.6977 68.6388 94.6719 68.6388 94.6437C68.5613 93.6624 68.0994 92.7513 67.3535 92.1082C66.564 91.4039 65.495 89.5258 66.5523 84.5628C66.8194 83.3336 67.2131 82.1354 67.7271 80.9872L70.6665 74.3503L73.3757 74.4043V74.4231C73.1407 74.7142 69.9992 78.6349 69.6585 81.161C69.3249 83.5627 68.9137 84.2998 73.5308 84.5956Z" fill="#0CD9A8"/>
<path d="M92.7936 77.6394C92.7936 77.6394 95.444 79.9096 96.4849 85.0628C97.5258 90.216 99.8449 98.7757 99.8449 98.7757C99.8449 98.7757 100.785 102.511 97.5728 106.199C94.3608 109.887 92.2249 112.773 92.2249 112.773L90.1103 115.886C89.7497 116.416 89.2087 116.798 88.5877 116.961C87.6243 117.214 86.144 117.398 84.8611 116.696C84.3942 116.435 84.04 116.011 83.8666 115.505C83.6931 115 83.7126 114.448 83.9213 113.956L84.3912 112.869C84.3912 112.869 80.0373 115.611 79.659 114.097C79.2807 112.582 84.7225 111.07 84.7225 111.07C84.7225 111.07 89.2174 110.315 90.1267 108.188C90.1267 108.188 94.9529 101.992 94.5746 99.865L89.9129 87.3823C89.9129 87.3823 84.0834 86.6123 86.0712 80.0693C88.059 73.5263 92.7936 77.6394 92.7936 77.6394Z" fill="#FDC2CC"/>
<path d="M64.9194 124.734C64.9194 124.734 75.568 126.861 78.0775 126.577L78.3477 127.476C78.3477 127.476 82.3891 128.38 91.5269 126.931C92.1237 126.838 92.7432 126.732 93.3855 126.615L93.5993 126.577C93.5993 126.577 93.7238 125.901 93.8225 124.748C94.041 122.13 94.1186 117.062 92.2741 111.873L90.7374 107.145C90.7374 107.145 81.2401 112.834 74.9524 112.31C74.3909 112.263 73.834 112.218 73.2724 112.2C71.9825 112.15 69.9829 112.2 68.6835 111.16L65.9579 111.629V119.377C65.957 120.51 65.7483 121.633 65.3423 122.692C65.2836 122.846 65.2225 122.999 65.1544 123.161C64.9043 123.645 64.8216 124.198 64.9194 124.734Z" fill="#65617D"/>
<path d="M90.7349 122.046L91.5244 126.939C92.1212 126.845 92.7407 126.739 93.3829 126.622C93.1362 125.192 92.5981 121.926 92.7462 121.384L91.7523 120.534L90.7349 122.046Z" fill="#65617D"/>
<path opacity="0.1" d="M90.8457 121.94L91.6352 126.835C92.232 126.74 92.8515 126.634 93.4938 126.518C93.2471 125.089 92.709 121.823 92.857 121.281L91.8631 120.428L90.8457 121.94Z" fill="black"/>
<g opacity="0.05">
<path opacity="0.05" d="M74.3817 112.308C73.8225 112.261 73.2632 112.216 72.7017 112.197C71.447 112.15 69.532 112.197 68.2256 111.237L68.6814 111.157C69.9878 112.193 71.9709 112.148 73.2703 112.197C73.8319 112.216 74.3887 112.261 74.9503 112.308C75.1336 112.324 75.3215 112.334 75.5119 112.338C75.1349 112.348 74.7576 112.338 74.3817 112.308Z" fill="black"/>
<path opacity="0.05" d="M90.9561 126.931C91.5529 126.837 92.1724 126.733 92.8146 126.617L93.0308 126.577C93.0308 126.577 93.1553 125.901 93.2517 124.748C93.4725 122.13 93.5501 117.062 91.7033 111.873L90.2559 107.413C90.5637 107.239 90.7258 107.138 90.7258 107.138L92.2625 111.866C94.107 117.055 94.0294 122.123 93.8109 124.741C93.7122 125.894 93.5877 126.57 93.5877 126.57L93.3739 126.61C92.7332 126.726 92.1137 126.83 91.5153 126.924C87.246 127.601 84.0927 127.765 81.9404 127.746C84.9618 127.7 87.9755 127.428 90.9561 126.931Z" fill="black"/>
<path opacity="0.05" d="M77.5042 126.577V126.603H77.1987C77.3146 126.595 77.4165 126.586 77.5042 126.577Z" fill="black"/>
</g>
<path d="M92.058 122.959C92.2799 122.959 92.4598 122.589 92.4598 122.133C92.4598 121.676 92.2799 121.306 92.058 121.306C91.8361 121.306 91.6562 121.676 91.6562 122.133C91.6562 122.589 91.8361 122.959 92.058 122.959Z" fill="#D39999"/>
<path d="M66.4136 105.398C67.0621 100.586 68.2063 97.7262 68.8102 96.6063C68.8337 96.7589 68.8948 97.2543 68.923 97.4069C69.0452 98.1112 68.9371 98.9986 68.9747 99.8931L68.3732 110.777L69.1791 114.181C69.9357 116.876 67.1326 114.747 67.1326 114.747C66.5522 116.024 65.4878 115.883 65.4878 115.883L65.3421 113.93C65.2041 112.09 65.3692 110.239 65.8308 108.453C66.0857 107.447 66.2802 106.427 66.4136 105.398Z" fill="#FDC2CC"/>
<path opacity="0.05" d="M66.4136 105.398C67.0621 100.586 68.2063 97.7262 68.8102 96.6063C68.8337 96.7589 68.8948 97.2543 68.923 97.4069C69.0452 98.1112 68.9371 98.9986 68.9747 99.8931L68.3732 110.777L69.1791 114.181C69.9357 116.876 67.1326 114.747 67.1326 114.747C66.5522 116.024 65.4878 115.883 65.4878 115.883L65.3421 113.93C65.2041 112.09 65.3692 110.239 65.8308 108.453C66.0857 107.447 66.2802 106.427 66.4136 105.398Z" fill="black"/>
<path d="M93.3831 111.27C92.8732 111.93 92.5936 112.308 92.5936 112.308L90.4789 115.418C90.1191 115.95 89.5778 116.332 88.9563 116.494C87.993 116.747 86.5127 116.933 85.2298 116.228C84.7626 115.968 84.4082 115.545 84.2347 115.04C84.0612 114.534 84.0808 113.983 84.2899 113.491L84.7599 112.402C84.7599 112.402 80.4059 115.144 80.0276 113.632C79.6493 112.12 85.0912 110.606 85.0912 110.606C85.0912 110.606 89.586 109.85 90.4954 107.72C90.4954 107.72 90.8878 107.218 91.4352 106.448" fill="#FDC2CC"/>
<path d="M90.7349 116.484C90.7349 116.484 85.5868 115.984 83.9562 113.043L83.209 115.472C83.209 115.472 88.6132 119.201 89.8468 118.717L90.7349 116.484Z" fill="#65617D"/>
<path opacity="0.1" d="M90.5519 116.461C90.5519 116.461 85.4062 115.961 83.7732 113.017L83.0283 115.44C83.0283 115.44 88.4325 119.168 89.6638 118.684L90.5519 116.461Z" fill="black"/>
<path d="M67.302 115.111C67.302 115.111 65.4998 115.749 65.145 115.395L65.9557 116.886L67.4876 115.712L67.302 115.111Z" fill="#65617D"/>
<path opacity="0.1" d="M67.302 115.111C67.302 115.111 65.4998 115.749 65.145 115.395L65.9557 116.886L67.4876 115.712L67.302 115.111Z" fill="black"/>
<path opacity="0.1" d="M78.3451 125.065V121.954L77.605 125.14L78.3451 125.065Z" fill="black"/>
<path opacity="0.1" d="M85.6456 60.7854C85.2109 61.3958 84.4567 61.7057 83.7142 61.802C82.9717 61.8982 82.2198 61.816 81.4703 61.802C80.2955 61.7832 79.0454 61.9639 78.0844 62.6542C77.4712 63.0932 77.0106 63.7106 76.5313 64.2975C75.0792 66.07 73.0632 67.7299 70.7746 67.5444C70.5753 67.5444 70.3781 67.5045 70.1944 67.4271C70.0108 67.3497 69.8446 67.2363 69.7055 67.0936C69.5191 66.8043 69.4241 66.4657 69.433 66.1217C69.3346 64.6604 69.381 63.193 69.5716 61.7409C69.6634 60.8422 69.8866 59.9619 70.2342 59.1279C70.6434 58.292 71.1809 57.5252 71.8273 56.8554C72.6091 55.9492 73.5514 55.1947 74.6069 54.6298C75.6735 54.0646 76.9092 53.9052 78.0844 54.1814C79.4543 54.5546 80.521 55.6252 81.8274 56.1769C83.3195 56.8037 87.281 58.4776 85.6456 60.7854Z" fill="black"/>
<path d="M85.6456 60.5014C85.2109 61.1118 84.4567 61.4217 83.7142 61.5179C82.9717 61.6142 82.2198 61.532 81.4703 61.5179C80.2955 61.4968 79.0454 61.6776 78.0844 62.3678C77.4712 62.8068 77.0106 63.4242 76.5313 64.0112C75.0792 65.7837 73.0632 67.4435 70.7746 67.258C70.5753 67.2586 70.3778 67.2189 70.1941 67.1415C70.0104 67.064 69.8443 66.9503 69.7055 66.8073C69.5187 66.5181 69.4237 66.1793 69.433 65.8353C69.3346 64.3741 69.381 62.9067 69.5716 61.4545C69.6634 60.5558 69.8866 59.6755 70.2342 58.8416C70.6427 58.006 71.1803 57.2399 71.8273 56.5713C72.6084 55.6637 73.5508 54.9084 74.6069 54.3434C75.6735 53.7782 76.9092 53.6188 78.0844 53.895C79.4543 54.2683 80.521 55.3388 81.8274 55.8905C83.3195 56.5197 87.281 58.1889 85.6456 60.5014Z" fill="#865A61"/>
<path d="M68.6836 111.155L68.6648 112.012L68.4722 111.193L68.6836 111.155Z" fill="#FDC2CC"/>
<path opacity="0.05" d="M68.6836 111.155L68.6648 112.012L68.4722 111.193L68.6836 111.155Z" fill="black"/>
<g opacity="0.05">
<path opacity="0.05" d="M86.804 79.6209C84.8139 86.1639 90.6152 86.9316 90.6152 86.9316L95.2769 99.4142C95.6552 101.541 90.8267 107.737 90.8267 107.737C90.4907 108.53 89.6518 109.134 88.7355 109.58C89.2709 109.254 89.7015 108.781 89.9761 108.218C89.9761 108.218 94.8023 102.025 94.424 99.8979L89.7623 87.4129C89.7623 87.4129 83.9633 86.6452 85.9511 80.1022C86.6161 77.9165 87.5959 76.9211 88.5874 76.5642C87.9037 77.1136 87.2763 78.0644 86.804 79.6209Z" fill="black"/>
</g>
<g opacity="0.1">
<path opacity="0.1" d="M86.9028 85.5652C87.1753 85.9021 87.4914 86.2013 87.8427 86.455C88.5008 86.9327 89.2595 87.2539 90.0608 87.3941C90.0608 87.3941 90.0608 87.3941 90.0608 87.4058V87.6406C89.3357 87.4871 88.6506 87.1841 88.0495 86.7508C87.6026 86.4236 87.2149 86.0227 86.9028 85.5652Z" fill="black"/>
<path opacity="0.1" d="M68.8764 94.9255C68.8764 94.9513 68.8764 94.9795 68.8764 95.0076C68.9497 96.1231 69.0846 97.2337 69.2806 98.3343C69.9855 102.382 69.0621 110.418 68.9305 111.528C68.8553 111.479 68.7801 111.432 68.6955 111.378C68.7308 111.11 69.8139 102.347 69.0621 98.0596C68.8693 96.9629 68.7383 95.8561 68.6697 94.7447C68.6697 94.7165 68.6697 94.6883 68.6697 94.6625C68.623 94.0183 68.4048 93.3982 68.0376 92.8665C68.5246 93.449 68.8178 94.1687 68.8764 94.9255Z" fill="black"/>
<path opacity="0.1" d="M73.2019 74.6697L70.9039 74.6251C70.9021 74.624 70.9001 74.6235 70.8981 74.6235C70.896 74.6235 70.894 74.624 70.8922 74.6251L67.9551 81.2596C67.4415 82.4079 67.0478 83.6061 66.7803 84.8351C65.925 88.8497 66.4631 90.8499 67.1163 91.8383C66.3808 90.972 65.6219 88.9976 66.5688 84.5605C66.8311 83.3307 67.2209 82.1316 67.7319 80.9826L70.6901 74.348L73.3993 74.402V74.4185C73.3781 74.4466 73.3053 74.5358 73.2019 74.6697Z" fill="black"/>
<path opacity="0.1" d="M90.519 76.4703L90.559 76.4821L90.519 76.4703Z" fill="black"/>
<path opacity="0.1" d="M89.6753 76.4328L87.3727 75.7402H87.3609C87.2246 75.8905 83.8952 79.5787 81.3928 82.5649C79.1559 85.2343 75.2343 85.0253 74.2898 84.9314C74.1182 84.9126 73.9444 84.8985 73.7728 84.8868C71.2047 84.7225 70.1943 84.4173 69.856 83.7693C70.3376 84.2388 71.3973 84.4736 73.559 84.6051C73.7329 84.6051 73.9044 84.6309 74.0759 84.6473C75.0158 84.7413 78.9421 84.9502 81.179 82.2832C83.6813 79.2946 87.0132 75.6064 87.1494 75.4561L90.5 76.4703C90.2304 76.4033 89.95 76.3905 89.6753 76.4328Z" fill="black"/>
</g>
<path opacity="0.1" d="M62.4124 177.834C62.4124 177.834 59.1698 178.719 58.5425 177.329L62.4124 177.834Z" fill="black"/>
<path opacity="0.1" d="M82.9975 177.17C82.9975 177.17 79.238 178.139 78.3687 176.639L82.9975 177.17Z" fill="black"/>
<path opacity="0.1" d="M45.2573 169.176C48.752 169.176 51.5849 168.697 51.5849 168.108C51.5849 167.518 48.752 167.039 45.2573 167.039C41.7627 167.039 38.9297 167.518 38.9297 168.108C38.9297 168.697 41.7627 169.176 45.2573 169.176Z" fill="#590799"/>
<path opacity="0.1" d="M20.3301 184.325C23.8247 184.325 26.6577 183.847 26.6577 183.257C26.6577 182.667 23.8247 182.189 20.3301 182.189C16.8354 182.189 14.0024 182.667 14.0024 183.257C14.0024 183.847 16.8354 184.325 20.3301 184.325Z" fill="#590799"/>
<path d="M13.7414 171.3C18.9594 171.3 23.1894 170.586 23.1894 169.704C23.1894 168.822 18.9594 168.108 13.7414 168.108C8.52346 168.108 4.29346 168.822 4.29346 169.704C4.29346 170.586 8.52346 171.3 13.7414 171.3Z" fill="#FFD037"/>
<path d="M9.83417 167.093C9.40222 166.743 9.08745 166.27 8.9319 165.736C8.81677 165.196 9.04704 164.551 9.56161 164.354C10.1396 164.133 10.7576 164.532 11.2252 164.936C11.6928 165.34 12.2308 165.802 12.8441 165.718C12.5287 165.432 12.2928 165.069 12.1594 164.665C12.026 164.261 11.9996 163.829 12.0828 163.412C12.1081 163.239 12.1814 163.076 12.2943 162.943C12.6138 162.6 13.1965 162.748 13.5819 163.018C14.8013 163.877 15.1444 165.534 15.1491 167.028C15.2736 166.488 15.1702 165.929 15.1726 165.384C15.1749 164.84 15.3277 164.21 15.7929 163.924C16.0803 163.765 16.4043 163.684 16.7328 163.689C17.2826 163.67 17.8935 163.724 18.2694 164.126C18.7394 164.624 18.6148 165.462 18.2084 166.004C17.8019 166.546 17.1863 166.896 16.62 167.276C16.1639 167.547 15.775 167.917 15.4827 168.359C15.4485 168.42 15.4202 168.485 15.3982 168.551H11.9653C11.1918 168.164 10.4748 167.674 9.83417 167.093Z" fill="#FFD037"/>
<path opacity="0.1" d="M241.978 178.111C245.473 178.111 248.306 177.633 248.306 177.043C248.306 176.453 245.473 175.975 241.978 175.975C238.483 175.975 235.65 176.453 235.65 177.043C235.65 177.633 238.483 178.111 241.978 178.111Z" fill="#590799"/>
<path d="M237.729 172.077C237.729 172.077 241.339 171.967 242.429 171.192C243.519 170.418 247.979 169.495 248.249 170.737C248.519 171.979 253.674 176.909 249.598 176.942C245.521 176.975 240.131 176.308 239.045 175.646C237.96 174.984 237.729 172.077 237.729 172.077Z" fill="#A8A8A8"/>
<path opacity="0.2" d="M249.668 176.512C245.594 176.545 240.201 175.878 239.116 175.216C238.289 174.714 237.96 172.909 237.849 172.075H237.729C237.729 172.075 237.964 174.984 239.043 175.644C240.121 176.303 245.521 176.972 249.595 176.939C250.77 176.939 251.179 176.512 251.155 175.892C250.993 176.277 250.545 176.512 249.668 176.512Z" fill="black"/>
<defs>
<linearGradient id="paint0_linear" x1="42903.9" y1="114183" x2="42903.9" y2="33124.8" gradientUnits="userSpaceOnUse">
<stop stop-color="#808080" stop-opacity="0.25"/>
<stop offset="0.54" stop-color="#808080" stop-opacity="0.12"/>
<stop offset="1" stop-color="#808080" stop-opacity="0.1"/>
</linearGradient>
<linearGradient id="paint1_linear" x1="113.169" y1="166.758" x2="113.169" y2="27.9882" gradientUnits="userSpaceOnUse">
<stop stop-color="#808080" stop-opacity="0.25"/>
<stop offset="0.54" stop-color="#808080" stop-opacity="0.12"/>
<stop offset="1" stop-color="#808080" stop-opacity="0.1"/>
</linearGradient>
<linearGradient id="paint2_linear" x1="32363.2" y1="112162" x2="32363.2" y2="24573.7" gradientUnits="userSpaceOnUse">
<stop stop-color="#808080" stop-opacity="0.25"/>
<stop offset="0.54" stop-color="#808080" stop-opacity="0.12"/>
<stop offset="1" stop-color="#808080" stop-opacity="0.1"/>
</linearGradient>
<linearGradient id="paint3_linear" x1="-24573.6" y1="113214" x2="-24573.6" y2="31825.2" gradientUnits="userSpaceOnUse">
<stop stop-color="#808080" stop-opacity="0.25"/>
<stop offset="0.54" stop-color="#808080" stop-opacity="0.12"/>
<stop offset="1" stop-color="#808080" stop-opacity="0.1"/>
</linearGradient>
</defs>
</svg>
